<svg xmlns="http://www.w3.org/2000/svg" viewBox="0 0 216.57 55.7"><defs><style>.cls-1{fill:#99cabb;}</style></defs><title>Fichier 4</title><g id="Calque_2" data-name="Calque 2"><g id="Calque_1-2" data-name="Calque 1"><polygon class="cls-1" points="56.4 39.49 56.4 17.18 59.28 17.18 72.94 35.15 72.94 17.18 75.67 17.18 75.67 39.49 72.78 39.49 59.13 21.36 59.13 39.49 56.4 39.49"/><path class="cls-1" d="M97.82,38.61a16.16,16.16,0,0,1-5.82,1Q79.88,39.64,79.88,28q0-11,11.7-11a20.09,20.09,0,0,1,6.24.94v2.5a16.61,16.61,0,0,0-5.93-1.09q-9.12,0-9.12,8.66,0,9.28,9,9.28a15.23,15.23,0,0,0,3.18-.38V29.35h2.88v9.27Z"/><path class="cls-1" d="M102.42,30.88V17.18h2.88v13.7q0,6.43,6.4,6.43t6.4-6.43V17.18H121v13.7q0,8.77-9.28,8.77T102.42,30.88Z"/><polygon class="cls-1" points="129.01 17.18 129.01 37.15 140.68 37.15 140.68 39.48 126.13 39.48 126.13 17.18 129.01 17.18"/><polygon class="cls-1" points="144.85 39.49 141.85 39.49 152.94 14.23 164.03 39.49 160.84 39.49 157.95 32.47 150.57 32.47 151.37 30.13 156.98 30.13 152.82 20.02 144.85 39.49"/><path class="cls-1" d="M167.08,39.49V17.18h9.52q6.37,0,6.36,5.35,0,4.35-6.22,6.44l7.66,10.51h-3.81l-7.1-10V27.57q6.39-1,6.4-4.91,0-3.09-3.56-3.09H170V39.49Z"/><path class="cls-1" d="M195.2,17.18V33.06q0,6.43-7.57,6.43V37.15q4.68,0,4.68-4.09V17.18Z"/><path class="cls-1" d="M200.35,38.71V36.05a22.49,22.49,0,0,0,7.58,1.25q5.76,0,5.76-4.21,0-3.58-4.24-3.59h-2.87q-7,0-7-6.08,0-6.39,9-6.4a26.94,26.94,0,0,1,7.25.94v2.65a20.62,20.62,0,0,0-7.25-1.25q-6.08,0-6.08,4.06,0,3.59,4.12,3.59h2.87q7.13,0,7.13,6.08,0,6.55-8.64,6.55A29.39,29.39,0,0,1,200.35,38.71Z"/><path class="cls-1" d="M173.69,51.39l-1.06-3.22h-.75l1.46,4.07-.17.41-.13.3a.56.56,0,0,1-.15.15.48.48,0,0,1-.27.06h-.14l-.25-.06v.61l.19,0h.22a.93.93,0,0,0,.81-.33,11.25,11.25,0,0,0,.81-1.84q.24-.64.61-1.66l.62-1.74h-.73Zm-3.93.27a1,1,0,0,1-1-.65,2.44,2.44,0,0,1-.14-.9A1.51,1.51,0,0,1,169,49a1.11,1.11,0,0,1,.8-.34.89.89,0,0,1,.79.41,1.85,1.85,0,0,1,.27,1,2.1,2.1,0,0,1-.27,1.13A.89.89,0,0,1,169.76,51.66Zm-1.73.46h.61v-.51a1.82,1.82,0,0,0,.4.41,1.3,1.3,0,0,0,.76.22,1.48,1.48,0,0,0,1.26-.62,2.56,2.56,0,0,0,.46-1.56,2.15,2.15,0,0,0-.46-1.5,1.55,1.55,0,0,0-1.2-.51,1.46,1.46,0,0,0-1.18.58v-2H168v5.44Z"/><path class="cls-1" d="M26.05,0,0,9.17,4.12,43.3l22,12.07L48.16,43.14,52.27,9ZM19,32.28l-3.23,8-6.12.28L25.55,4.7l17,35.94L37,40.54l-3.65-8.19h-8Zm6.47-4.74h6L25.81,16.18l-.27.43h0L21.24,27.55h4.25"/><path class="cls-1" d="M205.62,46.62a2,2,0,0,1-.16,3.46.88.88,0,0,0-.35.61.69.69,0,0,0,.32.54l.45.35a2.18,2.18,0,0,1,1.05,1.75c0,1.18-1.14,2.36-3.29,2.36-1.81,0-2.69-.86-2.69-1.79a1.8,1.8,0,0,1,1-1.53,5.39,5.39,0,0,1,2.39-.58,1.31,1.31,0,0,1-.38-.85,1.13,1.13,0,0,1,.13-.49l-.4,0a2,2,0,0,1-2.08-2,2.25,2.25,0,0,1,.8-1.68,3.41,3.41,0,0,1,2.24-.69h2.58l-.8.45h-.77m-.89,5.55h-.29a5,5,0,0,0-1.31.2,1.41,1.41,0,0,0-1.08,1.29c0,.89.86,1.53,2.2,1.53s1.84-.58,1.84-1.35S205.68,52.85,204.73,52.17Zm.36-2.38a1.26,1.26,0,0,0,.31-.91c0-.9-.54-2.3-1.58-2.3A1.17,1.17,0,0,0,203,47a1.44,1.44,0,0,0-.27.93c0,.84.49,2.23,1.56,2.23A1.28,1.28,0,0,0,205.09,49.8ZM197.74,52a3,3,0,0,1-3-2.95,3.09,3.09,0,0,1,3.23-3,2.92,2.92,0,0,1,3,2.95,3.05,3.05,0,0,1-3.17,3m1.56-1a2.26,2.26,0,0,0,.38-1.39c0-1.1-.52-3.2-2.07-3.2a1.74,1.74,0,0,0-1.12.43,1.89,1.89,0,0,0-.57,1.52c0,1.24.61,3.27,2.12,3.27A1.59,1.59,0,0,0,199.3,51ZM191,52a3,3,0,0,1-3-2.95,3.09,3.09,0,0,1,3.23-3,2.92,2.92,0,0,1,3,2.95A3.05,3.05,0,0,1,191,52m1.56-1a2.26,2.26,0,0,0,.37-1.39c0-1.1-.52-3.2-2.07-3.2a1.74,1.74,0,0,0-1.12.43,1.89,1.89,0,0,0-.57,1.52c0,1.24.61,3.27,2.12,3.27A1.59,1.59,0,0,0,192.54,51Zm-5.56.82V50.24c0-.13,0-.49,0-.6a.29.29,0,0,1,.13-.2l.33-.31h-2.66l-1,.54,1.9-.1v2a3.73,3.73,0,0,1-1.59.31,4.44,4.44,0,0,1-4.44-4.58,3.47,3.47,0,0,1,3.48-3.7,3.59,3.59,0,0,1,2.69,1.18l-.31.5.44-.1,1-1a4.9,4.9,0,0,0-1.66-.78,7.23,7.23,0,0,0-1.92-.26,4.75,4.75,0,0,0-5.07,4.69,4.46,4.46,0,0,0,4.78,4.55,13.32,13.32,0,0,0,2.07-.21l1.8-.41m22.61-.36c-.41,0-.5-.11-.5-.6V43.63c.05-.44.18-.51.56-.74h-1.8l-.94.45h1v7.75c0,.25,0,.29-.34.66h2.22l.46-.28-.64-.06m5.11.12c-.14.07-.27.16-.41.22a2.91,2.91,0,0,1-1.21.24,2.66,2.66,0,0,1-1.66-.49,3.23,3.23,0,0,1-1.27-2.63A2.83,2.83,0,0,1,213,46a2.42,2.42,0,0,1,1.28.35,2.07,2.07,0,0,1,.87,1.23l-2.93,1.18-1,.07a2.77,2.77,0,0,0,2.57,2.51,3.22,3.22,0,0,0,1.52-.44l-.66.62m-1.17-3.72c.24-.09.36-.16.36-.34a1.24,1.24,0,0,0-1.23-1.07,1.54,1.54,0,0,0-1.43,1.73c0,.21,0,.44,0,.66Z"/></g></g></svg>