<?xml version="1.0" encoding="utf-8"?>
<!-- Generator: Adobe Illustrator 20.1.0, SVG Export Plug-In . SVG Version: 6.00 Build 0)  -->
<svg version="1.1" id="Calque_1" xmlns="http://www.w3.org/2000/svg" xmlns:xlink="http://www.w3.org/1999/xlink" x="0px" y="0px"
	 viewBox="0 0 216.6 76" style="enable-background:new 0 0 216.6 76;" xml:space="preserve">
<style type="text/css">
	.st0{fill:#0493AA;}
</style>
<g>
	<polygon class="st0" points="56.4,51.9 56.4,29.6 59.3,29.6 72.9,47.6 72.9,29.6 75.7,29.6 75.7,51.9 72.8,51.9 59.1,33.8 
		59.1,51.9 	"/>
	<path class="st0" d="M97.8,51.1c-1.8,0.7-3.7,1-5.8,1c-8.1,0-12.1-3.9-12.1-11.6c0-7.3,3.9-11,11.7-11c2.2,0,4.3,0.3,6.2,0.9v2.5
		c-1.9-0.7-3.9-1.1-5.9-1.1c-6.1,0-9.1,2.9-9.1,8.7c0,6.2,3,9.3,9,9.3c1,0,2-0.1,3.2-0.4v-7.6h2.9L97.8,51.1L97.8,51.1z"/>
	<path class="st0" d="M102.4,43.3V29.6h2.9v13.7c0,4.3,2.1,6.4,6.4,6.4s6.4-2.1,6.4-6.4V29.6h2.9v13.7c0,5.8-3.1,8.8-9.3,8.8
		C105.5,52.1,102.4,49.2,102.4,43.3z"/>
	<polygon class="st0" points="129,29.6 129,49.6 140.7,49.6 140.7,51.9 126.1,51.9 126.1,29.6 	"/>
	<polygon class="st0" points="144.8,51.9 141.9,51.9 152.9,26.7 164,51.9 160.8,51.9 157.9,44.9 150.6,44.9 151.4,42.6 157,42.6 
		152.8,32.5 	"/>
	<path class="st0" d="M167.1,51.9V29.6h9.5c4.2,0,6.4,1.8,6.4,5.4c0,2.9-2.1,5-6.2,6.4l7.7,10.5h-3.9l-7.1-10V40
		c4.3-0.7,6.4-2.3,6.4-4.9c0-2.1-1.2-3.1-3.6-3.1h-6.4v19.9C169.9,51.9,167.1,51.9,167.1,51.9z"/>
	<path class="st0" d="M195.2,29.6v15.9c0,4.3-2.5,6.4-7.6,6.4v-2.3c3.1,0,4.7-1.4,4.7-4.1V29.6H195.2z"/>
	<path class="st0" d="M200.3,51.2v-2.7c2.3,0.8,4.9,1.2,7.6,1.2c3.8,0,5.8-1.4,5.8-4.2c0-2.4-1.4-3.6-4.2-3.6h-2.9c-4.7,0-7-2-7-6.1
		c0-4.3,3-6.4,9-6.4c2.6,0,5,0.3,7.3,0.9V33c-2.2-0.8-4.7-1.2-7.3-1.2c-4.1,0-6.1,1.4-6.1,4.1c0,2.4,1.4,3.6,4.1,3.6h2.9
		c4.8,0,7.1,2,7.1,6.1c0,4.4-2.9,6.6-8.6,6.6C205.2,52.1,202.7,51.8,200.3,51.2z"/>
	<path class="st0" d="M173.7,63.8l-1.1-3.2h-0.8l1.5,4.1c0,0.1-0.1,0.2-0.2,0.4c-0.1,0.2-0.1,0.3-0.1,0.3c0,0.1-0.1,0.1-0.1,0.1
		c-0.1,0-0.1,0.1-0.3,0.1h-0.1c-0.1,0-0.1,0-0.3-0.1v0.6c0.1,0,0.1,0,0.2,0c0.1,0,0.1,0,0.2,0c0.4,0,0.7-0.1,0.8-0.3
		c0.2-0.2,0.4-0.8,0.8-1.8c0.2-0.4,0.4-1,0.6-1.7c0.3-0.9,0.5-1.5,0.6-1.7h-0.7L173.7,63.8z M169.8,64.1c-0.5,0-0.8-0.2-1-0.7
		c-0.1-0.2-0.1-0.5-0.1-0.9c0-0.5,0.1-0.9,0.3-1.1c0.2-0.2,0.5-0.3,0.8-0.3s0.6,0.1,0.8,0.4c0.2,0.3,0.3,0.6,0.3,1
		c0,0.5-0.1,0.8-0.3,1.1C170.4,64,170.1,64.1,169.8,64.1z M168,64.6h0.6v-0.5c0.1,0.2,0.3,0.3,0.4,0.4c0.2,0.1,0.5,0.2,0.8,0.2
		c0.5,0,1-0.2,1.3-0.6s0.5-0.9,0.5-1.6c0-0.7-0.2-1.2-0.5-1.5s-0.7-0.5-1.2-0.5c-0.2,0-0.5,0-0.7,0.1s-0.4,0.2-0.5,0.4v-2h-0.6
		L168,64.6L168,64.6z"/>
</g>
<path class="st0" d="M26.1,12.5L0,21.7l4.1,34.1l22,12.1l22.1-12.2l4.1-34.1L26.1,12.5z M19,44.7l-3.2,8L9.7,53l15.9-35.8l17,35.9
	L37,53l-3.6-8.2h-8L19,44.7z M25.6,40h5.9l-5.7-11.4L25.5,29l0,0l-4.3,11H25.6"/>
<path class="st0" d="M205.6,59.1c0.3,0.2,0.9,0.7,0.9,1.7c0,0.9-0.5,1.4-1.1,1.8c-0.2,0.2-0.4,0.3-0.4,0.6s0.2,0.4,0.3,0.5l0.5,0.3
	c0.6,0.5,1.1,0.9,1.1,1.8c0,1.2-1.1,2.4-3.3,2.4c-1.8,0-2.7-0.9-2.7-1.8c0-0.5,0.2-1.1,1-1.5c0.8-0.5,1.8-0.5,2.4-0.6
	c-0.2-0.2-0.4-0.5-0.4-0.9c0-0.2,0.1-0.3,0.1-0.5c-0.1,0-0.3,0-0.4,0c-1.3,0-2.1-1-2.1-2c0-0.6,0.3-1.2,0.8-1.7
	c0.7-0.6,1.6-0.7,2.2-0.7h2.6l-0.8,0.5L205.6,59.1 M204.7,64.6c-0.1,0-0.2,0-0.3,0s-0.8,0-1.3,0.2c-0.3,0.1-1.1,0.4-1.1,1.3
	s0.9,1.5,2.2,1.5c1.2,0,1.8-0.6,1.8-1.4C206.1,65.6,205.7,65.3,204.7,64.6z M205.1,62.2c0.3-0.3,0.3-0.7,0.3-0.9
	c0-0.9-0.5-2.3-1.6-2.3c-0.3,0-0.7,0.2-0.9,0.4c-0.2,0.3-0.3,0.6-0.3,0.9c0,0.8,0.5,2.2,1.6,2.2C204.6,62.6,204.9,62.5,205.1,62.2z
	 M197.7,64.4c-2,0-3-1.5-3-2.9c0-1.6,1.3-3,3.2-3c1.8,0,3,1.4,3,2.9S199.8,64.4,197.7,64.4 M199.3,63.4c0.3-0.4,0.4-0.9,0.4-1.4
	c0-1.1-0.5-3.2-2.1-3.2c-0.4,0-0.8,0.2-1.1,0.4c-0.5,0.4-0.6,1-0.6,1.5c0,1.2,0.6,3.3,2.1,3.3C198.5,64.1,199,63.8,199.3,63.4z
	 M191,64.4c-2,0-3-1.5-3-2.9c0-1.6,1.3-3,3.2-3c1.8,0,3,1.4,3,2.9C194.1,62.9,193,64.4,191,64.4 M192.5,63.4
	c0.3-0.4,0.4-0.9,0.4-1.4c0-1.1-0.5-3.2-2.1-3.2c-0.4,0-0.8,0.2-1.1,0.4c-0.5,0.4-0.6,1-0.6,1.5c0,1.2,0.6,3.3,2.1,3.3
	C191.7,64.1,192.2,63.8,192.5,63.4z M187,64.2v-1.5c0-0.1,0-0.5,0-0.6s0-0.1,0.1-0.2l0.3-0.3h-2.7l-1,0.5l1.9-0.1v2
	c-0.4,0.2-0.8,0.3-1.6,0.3c-2.7,0-4.4-2.2-4.4-4.6c0-2.2,1.5-3.7,3.5-3.7c1.5,0,2.3,0.8,2.7,1.2l-0.3,0.5l0.4-0.1l1-1
	c-0.3-0.2-0.7-0.5-1.7-0.8c-0.6-0.2-1.2-0.3-1.9-0.3c-3.2,0-5.1,2.3-5.1,4.7c0,2,1.3,4.5,4.8,4.5c0.7,0,1.3-0.1,2.1-0.2L187,64.2
	 M209.6,63.9c-0.4,0-0.5-0.1-0.5-0.6v-7.1v-0.1c0.1-0.4,0.2-0.5,0.6-0.7h-1.8l-0.9,0.5h1l0,0l0,0v7.8c0,0.3,0,0.3-0.3,0.7h2.2
	l0.5-0.3C210,63.9,209.8,63.9,209.6,63.9 M214.7,64c-0.1,0.1-0.3,0.2-0.4,0.2c-0.4,0.2-0.8,0.2-1.2,0.2s-1,0-1.7-0.5
	c-0.9-0.6-1.3-1.7-1.3-2.6c0-1.9,1.6-2.9,2.9-2.9c0.4,0,0.9,0.1,1.3,0.3c0.6,0.4,0.8,0.9,0.9,1.2l-2.9,1.2l-1,0.1
	c0.3,1.6,1.4,2.5,2.6,2.5c0.6,0,1.1-0.2,1.5-0.4L214.7,64 M213.5,60.3c0.2-0.1,0.4-0.2,0.4-0.3c0-0.5-0.6-1.1-1.2-1.1
	c-0.5,0-1.4,0.4-1.4,1.7c0,0.2,0,0.4,0,0.7L213.5,60.3z"/>
</svg>
