<?xml version="1.0" encoding="utf-8"?>
<!-- Generator: Adobe Illustrator 20.1.0, SVG Export Plug-In . SVG Version: 6.00 Build 0)  -->
<svg version="1.1" id="Calque_1" xmlns="http://www.w3.org/2000/svg" xmlns:xlink="http://www.w3.org/1999/xlink" x="0px" y="0px"
	 viewBox="0 0 307.5 50.5" style="enable-background:new 0 0 307.5 50.5;" xml:space="preserve">
<style type="text/css">
	.st0{clip-path:url(#SVGID_2_);}
	.st1{fill:#697B92;stroke:#697B92;stroke-width:1.51;}
	.st2{fill:#B9E1C8;stroke:#B9E1C8;stroke-width:1.51;}
	.st3{fill:#A6CFCA;stroke:#A6CFCA;stroke-width:1.51;}
	.st4{fill:#1B4088;stroke:#1B4088;stroke-width:1.51;}
	.st5{fill:#1E4F8E;stroke:#1E4F8E;stroke-width:1.51;}
	.st6{fill:#968FA9;stroke:#968FA9;stroke-width:1.51;}
	.st7{fill:#918B9E;stroke:#918B9E;stroke-width:1.51;}
	.st8{fill:#326995;stroke:#326995;stroke-width:1.51;}
	.st9{fill:#527596;stroke:#527596;stroke-width:1.51;}
	.st10{fill:#162772;stroke:#162772;stroke-width:1.51;}
	.st11{fill:#1F3789;stroke:#1F3789;stroke-width:1.51;}
	.st12{fill:#1B3E87;stroke:#1B3E87;stroke-width:1.51;}
	.st13{fill:#1C488B;stroke:#1C488B;stroke-width:1.51;}
	.st14{fill:#838492;stroke:#838492;stroke-width:1.51;}
	.st15{fill:#8A8793;stroke:#8A8793;stroke-width:1.51;}
	.st16{fill:#777F8B;stroke:#777F8B;stroke-width:1.51;}
	.st17{fill:#66798D;stroke:#66798D;stroke-width:1.51;}
	.st18{fill:#4D718E;stroke:#4D718E;stroke-width:1.51;}
	.st19{fill:#2C6391;stroke:#2C6391;stroke-width:1.51;}
	.st20{fill:#162875;stroke:#162875;stroke-width:1.51;}
	.st21{fill:#245C99;stroke:#245C99;stroke-width:1.51;}
	.st22{fill:#5F7A9D;stroke:#5F7A9D;stroke-width:1.51;}
	.st23{fill:#858799;stroke:#858799;stroke-width:1.51;}
	.st24{fill:#798193;stroke:#798193;stroke-width:1.51;}
	.st25{fill:#9EB2BF;stroke:#9EB2BF;stroke-width:1.51;}
	.st26{fill:#224193;stroke:#224193;stroke-width:1.51;}
	.st27{fill:#1E2D83;stroke:#1E2D83;stroke-width:1.51;}
	.st28{fill:#33699B;stroke:#33699B;stroke-width:1.51;}
	.st29{fill:#3066A0;stroke:#3066A0;stroke-width:1.51;}
	.st30{fill:#72819B;stroke:#72819B;stroke-width:1.51;}
	.st31{fill:#44709A;stroke:#44709A;stroke-width:1.51;}
	.st32{fill:#7F8394;stroke:#7F8394;stroke-width:1.51;}
	.st33{fill:#9CA2B8;stroke:#9CA2B8;stroke-width:1.51;}
	.st34{fill:#4171A1;stroke:#4171A1;stroke-width:1.51;}
	.st35{fill:#214D94;stroke:#214D94;stroke-width:1.51;}
	.st36{fill:#26579E;stroke:#26579E;stroke-width:1.51;}
	.st37{fill:#224A96;stroke:#224A96;stroke-width:1.51;}
	.st38{fill:#AFDBC9;stroke:#AFDBC9;stroke-width:1.51;}
	.st39{fill:#7A87A7;stroke:#7A87A7;stroke-width:1.51;}
	.st40{fill:#858EA8;stroke:#858EA8;stroke-width:1.51;}
	.st41{fill:#958FA3;stroke:#958FA3;stroke-width:1.51;}
	.st42{fill:#1F2E86;stroke:#1F2E86;stroke-width:1.51;}
	.st43{fill:#A0BFC2;stroke:#A0BFC2;stroke-width:1.51;}
	.st44{fill:#253693;stroke:#253693;stroke-width:1.51;}
	.st45{fill:#336BAD;stroke:#336BAD;stroke-width:1.51;}
	.st46{fill:#386DAC;stroke:#386DAC;stroke-width:1.51;}
	.st47{fill:#4678AD;stroke:#4678AD;stroke-width:1.51;}
	.st48{fill:#26409A;stroke:#26409A;stroke-width:1.51;}
	.st49{fill:#26459C;stroke:#26459C;stroke-width:1.51;}
	.st50{fill:#5078A9;stroke:#5078A9;stroke-width:1.51;}
	.st51{fill:#5C7DA9;stroke:#5C7DA9;stroke-width:1.51;}
	.st52{fill:#8B8CA6;stroke:#8B8CA6;stroke-width:1.51;}
	.st53{fill:#9993AD;stroke:#9993AD;stroke-width:1.51;}
	.st54{fill:#8F8FA7;stroke:#8F8FA7;stroke-width:1.51;}
	.st55{fill:#2855A4;stroke:#2855A4;stroke-width:1.51;}
	.st56{fill:#2B5DA8;stroke:#2B5DA8;stroke-width:1.51;}
	.st57{fill:#264B9F;stroke:#264B9F;stroke-width:1.51;}
	.st58{fill:#6985AA;stroke:#6985AA;stroke-width:1.51;}
	.st59{fill:#2C65AB;stroke:#2C65AB;stroke-width:1.51;}
	.st60{fill:#2455A4;stroke:#2455A4;stroke-width:1.51;}
	.st61{fill:#4E80AE;stroke:#4E80AE;stroke-width:1.51;}
	.st62{fill:#20398D;stroke:#20398D;stroke-width:1.51;}
	.st63{fill:#26439B;stroke:#26439B;stroke-width:1.51;}
	.st64{fill:#2659A6;stroke:#2659A6;stroke-width:1.51;}
	.st65{fill:#9A99B2;stroke:#9A99B2;stroke-width:1.51;}
	.st66{fill:#999CAF;stroke:#999CAF;stroke-width:1.51;}
	.st67{fill:#9297AA;stroke:#9297AA;stroke-width:1.51;}
	.st68{fill:#1F488F;stroke:#1F488F;stroke-width:1.51;}
	.st69{fill:#6288AC;stroke:#6288AC;stroke-width:1.51;}
	.st70{fill:#3371AF;stroke:#3371AF;stroke-width:1.51;}
	.st71{fill:#4281B1;stroke:#4281B1;stroke-width:1.51;}
	.st72{fill:#2C6BAE;stroke:#2C6BAE;stroke-width:1.51;}
	.st73{fill:#2868AD;stroke:#2868AD;stroke-width:1.51;}
	.st74{fill:#3679B1;stroke:#3679B1;stroke-width:1.51;}
	.st75{fill:#26479D;stroke:#26479D;stroke-width:1.51;}
	.st76{fill:#6C90AE;stroke:#6C90AE;stroke-width:1.51;}
	.st77{fill:#8C9CAD;stroke:#8C9CAD;stroke-width:1.51;}
	.st78{fill:#264EA0;stroke:#264EA0;stroke-width:1.51;}
	.st79{fill:#8194AC;stroke:#8194AC;stroke-width:1.51;}
	.st80{fill:#7C98AE;stroke:#7C98AE;stroke-width:1.51;}
	.st81{fill:#898795;stroke:#898795;stroke-width:1.51;}
	.st82{fill:#F4FBC1;stroke:#F4FBC1;stroke-width:1.51;}
	.st83{fill:#91A4AF;stroke:#91A4AF;stroke-width:1.51;}
	.st84{fill:#6595B2;stroke:#6595B2;stroke-width:1.51;}
	.st85{fill:#5894B4;stroke:#5894B4;stroke-width:1.51;}
	.st86{fill:#4A8BB4;stroke:#4A8BB4;stroke-width:1.51;}
	.st87{fill:#307CB3;stroke:#307CB3;stroke-width:1.51;}
	.st88{fill:#2573B3;stroke:#2573B3;stroke-width:1.51;}
	.st89{fill:#2470B1;stroke:#2470B1;stroke-width:1.51;}
	.st90{fill:#9BA4B5;stroke:#9BA4B5;stroke-width:1.51;}
	.st91{fill:#214595;stroke:#214595;stroke-width:1.51;}
	.st92{fill:#2366AC;stroke:#2366AC;stroke-width:1.51;}
	.st93{fill:#3E8CB7;stroke:#3E8CB7;stroke-width:1.51;}
	.st94{fill:#3284B6;stroke:#3284B6;stroke-width:1.51;}
	.st95{fill:#235DA7;stroke:#235DA7;stroke-width:1.51;}
	.st96{fill:#2456A5;stroke:#2456A5;stroke-width:1.51;}
	.st97{fill:#264C9D;stroke:#264C9D;stroke-width:1.51;}
	.st98{fill:#8AA6B1;stroke:#8AA6B1;stroke-width:1.51;}
	.st99{fill:#2656A4;stroke:#2656A4;stroke-width:1.51;}
	.st100{fill:#99A7B2;stroke:#99A7B2;stroke-width:1.51;}
	.st101{fill:#265D96;stroke:#265D96;stroke-width:1.51;}
	.st102{fill:#7FA1B1;stroke:#7FA1B1;stroke-width:1.51;}
	.st103{fill:#76A2B3;stroke:#76A2B3;stroke-width:1.51;}
	.st104{fill:#2187BC;stroke:#2187BC;stroke-width:1.51;}
	.st105{fill:#2378B5;stroke:#2378B5;stroke-width:1.51;}
	.st106{fill:#93B0B4;stroke:#93B0B4;stroke-width:1.51;}
	.st107{fill:#9AB0B4;stroke:#9AB0B4;stroke-width:1.51;}
	.st108{fill:#9DB7BB;stroke:#9DB7BB;stroke-width:1.51;}
	.st109{fill:#285EA8;stroke:#285EA8;stroke-width:1.51;}
	.st110{fill:#3E96BA;stroke:#3E96BA;stroke-width:1.51;}
	.st111{fill:#2D8BBA;stroke:#2D8BBA;stroke-width:1.51;}
	.st112{fill:#236DAF;stroke:#236DAF;stroke-width:1.51;}
	.st113{fill:#8CB2B6;stroke:#8CB2B6;stroke-width:1.51;}
	.st114{fill:#234F97;stroke:#234F97;stroke-width:1.51;}
	.st115{fill:#3095BD;stroke:#3095BD;stroke-width:1.51;}
	.st116{fill:#A9D4C9;stroke:#A9D4C9;stroke-width:1.51;}
	.st117{fill:#7BA8B6;stroke:#7BA8B6;stroke-width:1.51;}
	.st118{fill:#70A7B7;stroke:#70A7B7;stroke-width:1.51;}
	.st119{fill:#5D9FB7;stroke:#5D9FB7;stroke-width:1.51;}
	.st120{fill:#4BA0BC;stroke:#4BA0BC;stroke-width:1.51;}
	.st121{fill:#2370B1;stroke:#2370B1;stroke-width:1.51;}
	.st122{fill:#2569AE;stroke:#2569AE;stroke-width:1.51;}
	.st123{fill:#58A2BA;stroke:#58A2BA;stroke-width:1.51;}
	.st124{fill:#2858A2;stroke:#2858A2;stroke-width:1.51;}
	.st125{fill:#266EB0;stroke:#266EB0;stroke-width:1.51;}
	.st126{fill:#2187BB;stroke:#2187BB;stroke-width:1.51;}
	.st127{fill:#275CA0;stroke:#275CA0;stroke-width:1.51;}
	.st128{fill:#96C4BB;stroke:#96C4BB;stroke-width:1.51;}
	.st129{fill:#8FBCBA;stroke:#8FBCBA;stroke-width:1.51;}
	.st130{fill:#71AFBA;stroke:#71AFBA;stroke-width:1.51;}
	.st131{fill:#81BABC;stroke:#81BABC;stroke-width:1.51;}
	.st132{fill:#60ADBC;stroke:#60ADBC;stroke-width:1.51;}
	.st133{fill:#2D9BC1;stroke:#2D9BC1;stroke-width:1.51;}
	.st134{fill:#2D63A8;stroke:#2D63A8;stroke-width:1.51;}
	.st135{fill:#9DC3BB;stroke:#9DC3BB;stroke-width:1.51;}
	.st136{fill:#4BA9C0;stroke:#4BA9C0;stroke-width:1.51;}
	.st137{fill:#227BB6;stroke:#227BB6;stroke-width:1.51;}
	.st138{fill:#31A2C2;stroke:#31A2C2;stroke-width:1.51;}
	.st139{fill:#40A9C2;stroke:#40A9C2;stroke-width:1.51;}
	.st140{fill:#2379B5;stroke:#2379B5;stroke-width:1.51;}
	.st141{fill:#5AB0BF;stroke:#5AB0BF;stroke-width:1.51;}
	.st142{fill:#2898C1;stroke:#2898C1;stroke-width:1.51;}
	.st143{fill:#2193C0;stroke:#2193C0;stroke-width:1.51;}
	.st144{fill:#A2C9C0;stroke:#A2C9C0;stroke-width:1.51;}
	.st145{fill:#A3CEBF;stroke:#A3CEBF;stroke-width:1.51;}
	.st146{fill:#7BBFBD;stroke:#7BBFBD;stroke-width:1.51;}
	.st147{fill:#2D86B8;stroke:#2D86B8;stroke-width:1.51;}
	.st148{fill:#2B93BE;stroke:#2B93BE;stroke-width:1.51;}
	.st149{fill:#297DB6;stroke:#297DB6;stroke-width:1.51;}
	.st150{fill:#3075B1;stroke:#3075B1;stroke-width:1.51;}
	.st151{fill:#4B7296;stroke:#4B7296;stroke-width:1.51;}
	.st152{fill:#33A3C3;stroke:#33A3C3;stroke-width:1.51;}
	.st153{fill:#2E649D;stroke:#2E649D;stroke-width:1.51;}
	.st154{fill:#A6D1C5;stroke:#A6D1C5;stroke-width:1.51;}
	.st155{fill:#87C5BC;stroke:#87C5BC;stroke-width:1.51;}
	.st156{fill:#65B8BE;stroke:#65B8BE;stroke-width:1.51;}
	.st157{fill:#406F99;stroke:#406F99;stroke-width:1.51;}
	.st158{fill:#319BBF;stroke:#319BBF;stroke-width:1.51;}
	.st159{fill:#3775AF;stroke:#3775AF;stroke-width:1.51;}
	.st160{fill:#366BA4;stroke:#366BA4;stroke-width:1.51;}
	.st161{fill:#93C9BC;stroke:#93C9BC;stroke-width:1.51;}
	.st162{fill:#5EB8BF;stroke:#5EB8BF;stroke-width:1.51;}
	.st163{fill:#3AABC3;stroke:#3AABC3;stroke-width:1.51;}
	.st164{fill:#4BB1C2;stroke:#4BB1C2;stroke-width:1.51;}
	.st165{fill:#44B1C3;stroke:#44B1C3;stroke-width:1.51;}
	.st166{fill:#9ACDBC;stroke:#9ACDBC;stroke-width:1.51;}
	.st167{fill:#9FD2BC;stroke:#9FD2BC;stroke-width:1.51;}
	.st168{fill:#35A6C3;stroke:#35A6C3;stroke-width:1.51;}
	.st169{fill:#81C8BE;stroke:#81C8BE;stroke-width:1.51;}
	.st170{fill:#6CC1BF;stroke:#6CC1BF;stroke-width:1.51;}
	.st171{fill:#3588B6;stroke:#3588B6;stroke-width:1.51;}
	.st172{fill:#3A80B2;stroke:#3A80B2;stroke-width:1.51;}
	.st173{fill:#3BADC3;stroke:#3BADC3;stroke-width:1.51;}
	.st174{fill:#A8D6C5;stroke:#A8D6C5;stroke-width:1.51;}
	.st175{fill:#386E9F;stroke:#386E9F;stroke-width:1.51;}
	.st176{fill:#65C2C0;stroke:#65C2C0;stroke-width:1.51;}
	.st177{fill:#A9D8C1;stroke:#A9D8C1;stroke-width:1.51;}
	.st178{fill:#99D2BC;stroke:#99D2BC;stroke-width:1.51;}
	.st179{fill:#3A8FB8;stroke:#3A8FB8;stroke-width:1.51;}
	.st180{fill:#50BAC3;stroke:#50BAC3;stroke-width:1.51;}
	.st181{fill:#8DCEBC;stroke:#8DCEBC;stroke-width:1.51;}
	.st182{fill:#447CAF;stroke:#447CAF;stroke-width:1.51;}
	.st183{fill:#43B4C3;stroke:#43B4C3;stroke-width:1.51;}
	.st184{fill:#50BAC2;stroke:#50BAC2;stroke-width:1.51;}
	.st185{fill:#4374AA;stroke:#4374AA;stroke-width:1.51;}
	.st186{fill:#A2D8B9;stroke:#A2D8B9;stroke-width:1.51;}
	.st187{fill:#78C9BD;stroke:#78C9BD;stroke-width:1.51;}
	.st188{fill:#4976A7;stroke:#4976A7;stroke-width:1.51;}
	.st189{fill:#4BA4BE;stroke:#4BA4BE;stroke-width:1.51;}
	.st190{fill:#4695B8;stroke:#4695B8;stroke-width:1.51;}
	.st191{fill:#AEDBBF;stroke:#AEDBBF;stroke-width:1.51;}
	.st192{fill:#A7D9BA;stroke:#A7D9BA;stroke-width:1.51;}
	.st193{fill:#44A9C1;stroke:#44A9C1;stroke-width:1.51;}
	.st194{fill:#4DB3C1;stroke:#4DB3C1;stroke-width:1.51;}
	.st195{fill:#6F7E96;stroke:#6F7E96;stroke-width:1.51;}
	.st196{fill:#4E90B5;stroke:#4E90B5;stroke-width:1.51;}
	.st197{fill:#4C749F;stroke:#4C749F;stroke-width:1.51;}
	.st198{fill:#B6DFC3;stroke:#B6DFC3;stroke-width:1.51;}
	.st199{fill:#72C7BE;stroke:#72C7BE;stroke-width:1.51;}
	.st200{fill:#92D1BB;stroke:#92D1BB;stroke-width:1.51;}
	.st201{fill:#8ED1BB;stroke:#8ED1BB;stroke-width:1.51;}
	.st202{fill:#4D85B1;stroke:#4D85B1;stroke-width:1.51;}
	.st203{fill:#5DBFC1;stroke:#5DBFC1;stroke-width:1.51;}
	.st204{fill:#68C3BF;stroke:#68C3BF;stroke-width:1.51;}
	.st205{fill:#5180AD;stroke:#5180AD;stroke-width:1.51;}
	.st206{fill:#60BCC0;stroke:#60BCC0;stroke-width:1.51;}
	.st207{fill:#A9DBB8;stroke:#A9DBB8;stroke-width:1.51;}
	.st208{fill:#59BAC1;stroke:#59BAC1;stroke-width:1.51;}
	.st209{fill:#579CB7;stroke:#579CB7;stroke-width:1.51;}
	.st210{fill:#BBE2BD;stroke:#BBE2BD;stroke-width:1.51;}
	.st211{fill:#B4E0B7;stroke:#B4E0B7;stroke-width:1.51;}
	.st212{fill:#5B83AC;stroke:#5B83AC;stroke-width:1.51;}
	.st213{fill:#5B7BA4;stroke:#5B7BA4;stroke-width:1.51;}
	.st214{fill:#57A8BD;stroke:#57A8BD;stroke-width:1.51;}
	.st215{fill:#9BD6B9;stroke:#9BD6B9;stroke-width:1.51;}
	.st216{fill:#C1E5BE;stroke:#C1E5BE;stroke-width:1.51;}
	.st217{fill:#84CEBC;stroke:#84CEBC;stroke-width:1.51;}
	.st218{fill:#83CEBB;stroke:#83CEBB;stroke-width:1.51;}
	.st219{fill:#9BD7B9;stroke:#9BD7B9;stroke-width:1.51;}
	.st220{fill:#60B1BE;stroke:#60B1BE;stroke-width:1.51;}
	.st221{fill:#6198B3;stroke:#6198B3;stroke-width:1.51;}
	.st222{fill:#668DAE;stroke:#668DAE;stroke-width:1.51;}
	.st223{fill:#62B9BF;stroke:#62B9BF;stroke-width:1.51;}
	.st224{fill:#617B9E;stroke:#617B9E;stroke-width:1.51;}
	.st225{fill:#C9E9C3;stroke:#C9E9C3;stroke-width:1.51;}
	.st226{fill:#75C8BD;stroke:#75C8BD;stroke-width:1.51;}
	.st227{fill:#BDE4B6;stroke:#BDE4B6;stroke-width:1.51;}
	.st228{fill:#72C6BE;stroke:#72C6BE;stroke-width:1.51;}
	.st229{fill:#6D9BB2;stroke:#6D9BB2;stroke-width:1.51;}
	.st230{fill:#72A2B4;stroke:#72A2B4;stroke-width:1.51;}
	.st231{fill:#6DB5BE;stroke:#6DB5BE;stroke-width:1.51;}
	.st232{fill:#B0DFB7;stroke:#B0DFB7;stroke-width:1.51;}
	.st233{fill:#BEE5B6;stroke:#BEE5B6;stroke-width:1.51;}
	.st234{fill:#75C2BE;stroke:#75C2BE;stroke-width:1.51;}
	.st235{fill:#7CC9BE;stroke:#7CC9BE;stroke-width:1.51;}
	.st236{fill:#74AFBA;stroke:#74AFBA;stroke-width:1.51;}
	.st237{fill:#AFDFB7;stroke:#AFDFB7;stroke-width:1.51;}
	.st238{fill:#C6E8B7;stroke:#C6E8B7;stroke-width:1.51;}
	.st239{fill:#97D5B9;stroke:#97D5B9;stroke-width:1.51;}
	.st240{fill:#6B7F9D;stroke:#6B7F9D;stroke-width:1.51;}
	.st241{fill:#7AC1BD;stroke:#7AC1BD;stroke-width:1.51;}
	.st242{fill:#CDEBBC;stroke:#CDEBBC;stroke-width:1.51;}
	.st243{fill:#7190AD;stroke:#7190AD;stroke-width:1.51;}
	.st244{fill:#EDF8C0;stroke:#EDF8C0;stroke-width:1.51;}
	.st245{fill:#D6EFBD;stroke:#D6EFBD;stroke-width:1.51;}
	.st246{fill:#8DD0BB;stroke:#8DD0BB;stroke-width:1.51;}
	.st247{fill:#768CAB;stroke:#768CAB;stroke-width:1.51;}
	.st248{fill:#7584A5;stroke:#7584A5;stroke-width:1.51;}
	.st249{fill:#85B9BA;stroke:#85B9BA;stroke-width:1.51;}
	.st250{fill:#7F96AD;stroke:#7F96AD;stroke-width:1.51;}
	.st251{fill:#CFECB4;stroke:#CFECB4;stroke-width:1.51;}
	.st252{fill:#DBF1B6;stroke:#DBF1B6;stroke-width:1.51;}
	.st253{fill:#88C3BC;stroke:#88C3BC;stroke-width:1.51;}
	.st254{fill:#7F9FB0;stroke:#7F9FB0;stroke-width:1.51;}
	.st255{fill:#91CABC;stroke:#91CABC;stroke-width:1.51;}
	.st256{fill:#B7E2B6;stroke:#B7E2B6;stroke-width:1.51;}
	.st257{fill:#C7E9B4;stroke:#C7E9B4;stroke-width:1.51;}
	.st258{fill:#D3EEB4;stroke:#D3EEB4;stroke-width:1.51;}
	.st259{fill:#A6DBB8;stroke:#A6DBB8;stroke-width:1.51;}
	.st260{fill:#7C86A1;stroke:#7C86A1;stroke-width:1.51;}
	.st261{fill:#7B849B;stroke:#7B849B;stroke-width:1.51;}
	.st262{fill:#8AB2B6;stroke:#8AB2B6;stroke-width:1.51;}
	.st263{fill:#8490A9;stroke:#8490A9;stroke-width:1.51;}
	.st264{fill:#94D1BC;stroke:#94D1BC;stroke-width:1.51;}
	.st265{fill:#A7DBB8;stroke:#A7DBB8;stroke-width:1.51;}
	.st266{fill:#87A6B2;stroke:#87A6B2;stroke-width:1.51;}
	.st267{fill:#9FD7BA;stroke:#9FD7BA;stroke-width:1.51;}
	.st268{fill:#8E8999;stroke:#8E8999;stroke-width:1.51;}
	.st269{fill:#A4D8BA;stroke:#A4D8BA;stroke-width:1.51;}
	.st270{fill:#D3EDB3;stroke:#D3EDB3;stroke-width:1.51;}
	.st271{fill:#C7E9B5;stroke:#C7E9B5;stroke-width:1.51;}
	.st272{fill:#8588A0;stroke:#8588A0;stroke-width:1.51;}
	.st273{fill:#8A91A9;stroke:#8A91A9;stroke-width:1.51;}
	.st274{fill:#E4F5BB;stroke:#E4F5BB;stroke-width:1.51;}
	.st275{fill:#88889C;stroke:#88889C;stroke-width:1.51;}
	.st276{fill:#8E9BAC;stroke:#8E9BAC;stroke-width:1.51;}
	.st277{fill:#B9E2B6;stroke:#B9E2B6;stroke-width:1.51;}
	.st278{fill:#96C7BB;stroke:#96C7BB;stroke-width:1.51;}
	.st279{fill:#90B3B6;stroke:#90B3B6;stroke-width:1.51;}
	.st280{fill:#DBF1B3;stroke:#DBF1B3;stroke-width:1.51;}
	.st281{fill:#8CA4B0;stroke:#8CA4B0;stroke-width:1.51;}
	.st282{fill:#E4F4B4;stroke:#E4F4B4;stroke-width:1.51;}
	.st283{fill:#D8EFB3;stroke:#D8EFB3;stroke-width:1.51;}
	.st284{fill:#A0D5BB;stroke:#A0D5BB;stroke-width:1.51;}
	.st285{fill:#9CCEBC;stroke:#9CCEBC;stroke-width:1.51;}
	.st286{fill:#91AAB2;stroke:#91AAB2;stroke-width:1.51;}
	.st287{fill:#94BDBA;stroke:#94BDBA;stroke-width:1.51;}
	.st288{fill:#9498AA;stroke:#9498AA;stroke-width:1.51;}
	.st289{fill:#B3E0B7;stroke:#B3E0B7;stroke-width:1.51;}
	.st290{fill:#98BAB8;stroke:#98BAB8;stroke-width:1.51;}
	.st291{fill:#BEE4B6;stroke:#BEE4B6;stroke-width:1.51;}
	.st292{fill:#B8E1BA;stroke:#B8E1BA;stroke-width:1.51;}
	.st293{fill:#979FAC;stroke:#979FAC;stroke-width:1.51;}
	.st294{fill:#E9F7B3;stroke:#E9F7B3;stroke-width:1.51;}
	.st295{fill:#EBF7B3;stroke:#EBF7B3;stroke-width:1.51;}
	.st296{fill:#F2FABB;stroke:#F2FABB;stroke-width:1.51;}
	.st297{fill:#E0F3B2;stroke:#E0F3B2;stroke-width:1.51;}
	.st298{fill:#A1CEBB;stroke:#A1CEBB;stroke-width:1.51;}
	.st299{fill:#ACDBBA;stroke:#ACDBBA;stroke-width:1.51;}
	.st300{fill:#96AEB3;stroke:#96AEB3;stroke-width:1.51;}
	.st301{fill:#99A9B0;stroke:#99A9B0;stroke-width:1.51;}
	.st302{fill:#928DA2;stroke:#928DA2;stroke-width:1.51;}
	.st303{fill:#928C9E;stroke:#928C9E;stroke-width:1.51;}
	.st304{fill:#ACDABE;stroke:#ACDABE;stroke-width:1.51;}
	.st305{fill:#9EC4BB;stroke:#9EC4BB;stroke-width:1.51;}
	.st306{fill:#D5EEB8;stroke:#D5EEB8;stroke-width:1.51;}
	.st307{fill:#A5D3BE;stroke:#A5D3BE;stroke-width:1.51;}
	.st308{fill:#9AA8B5;stroke:#9AA8B5;stroke-width:1.51;}
	.st309{fill:#9DB1BB;stroke:#9DB1BB;stroke-width:1.51;}
	.st310{fill:#9FC4C1;stroke:#9FC4C1;stroke-width:1.51;}
	.st311{fill:#9FBDC0;stroke:#9FBDC0;stroke-width:1.51;}
	.st312{fill:#968FA7;stroke:#968FA7;stroke-width:1.51;}
	.st313{fill:#9997AE;stroke:#9997AE;stroke-width:1.51;}
	.st314{fill:#F6FCC3;stroke:#F6FCC3;stroke-width:1.51;}
	.st315{fill:#F5FBC2;stroke:#F5FBC2;stroke-width:1.51;}
	.st316{fill:#9B9DB3;stroke:#9B9DB3;stroke-width:1.51;}
	.st317{fill:#928CA2;stroke:#928CA2;stroke-width:1.51;}
	.st318{fill:#E0F3BD;stroke:#E0F3BD;stroke-width:1.51;}
	.st319{fill:#D6EFC2;stroke:#D6EFC2;stroke-width:1.51;}
	.st320{fill:#B0DCC3;stroke:#B0DCC3;stroke-width:1.51;}
	.st321{fill:#A4CFC3;stroke:#A4CFC3;stroke-width:1.51;}
	.st322{fill:#EFF9BA;stroke:#EFF9BA;stroke-width:1.51;}
	.st323{fill:#EDF8BE;stroke:#EDF8BE;stroke-width:1.51;}
	.st324{fill:#C4E7C5;stroke:#C4E7C5;stroke-width:1.51;}
	.st325{fill:#A8D4C6;stroke:#A8D4C6;stroke-width:1.51;}
	.st326{fill:#BCE3C2;stroke:#BCE3C2;stroke-width:1.51;}
	.st327{fill:#B6DFC5;stroke:#B6DFC5;stroke-width:1.51;}
	.st328{fill:#ABDAC9;stroke:#ABDAC9;stroke-width:1.51;}
	.st329{fill:#9CA4B9;stroke:#9CA4B9;stroke-width:1.51;}
	.st330{fill:#9C99B4;stroke:#9C99B4;stroke-width:1.51;}
	.st331{fill:#A6CFC9;stroke:#A6CFC9;stroke-width:1.51;}
	.st332{fill:#A0BAC4;stroke:#A0BAC4;stroke-width:1.51;}
	.st333{fill:#D3EDB3;}
	.st334{fill:#C7E9B5;}
	.st335{fill:#B9E2B6;}
	.st336{fill:#B3E0B7;}
	.st337{fill:#BEE4B6;}
	.st338{fill:#E9F7B3;}
	.st339{fill:#EBF7B3;}
	.st340{fill:#E0F3B2;}
	.st341{fill:#DBF1B3;}
	.st342{fill:#D5EEB8;}
	.st343{fill:#E0F3BD;}
	.st344{fill:#D6EFC2;}
	.st345{clip-path:url(#SVGID_4_);}
	.st346{fill:#96C4BB;}
	.st347{fill:#81BABC;}
	.st348{fill:#7BBFBD;}
	.st349{fill:#87C5BC;}
	.st350{fill:#93C9BC;}
	.st351{fill:#9ACDBC;}
	.st352{fill:#9FD2BC;}
	.st353{fill:#81C8BE;}
	.st354{fill:#6CC1BF;}
	.st355{fill:#99D2BC;}
	.st356{fill:#8DCEBC;}
</style>
<title>axelbaron</title>
<g>
	<defs>
		<path id="SVGID_1_" d="M40.1,21.8h12.7l4.4,7.8l5.2-7.8h11.9l-9.6,13.3L75,49.8H62.5l-5.2-9l-6.1,9H39.6l10.2-14.7L40.1,21.8z
			 M108.7,38.5H87.2c0.1,1.4,0.6,2.7,1.4,3.8c1,1.2,2.5,1.9,4.1,1.8c1.1,0,2.1-0.3,3-0.8c0.7-0.5,1.4-1.1,1.9-1.8l10.6,1
			c-1.3,2.5-3.4,4.6-5.8,6.1c-2.3,1.2-5.6,1.8-9.8,1.8c-3,0.1-6-0.4-8.8-1.6c-2.2-1.1-4-2.9-5.3-5c-1.4-2.4-2.2-5.2-2.1-8
			c-0.2-4,1.4-7.9,4.2-10.7c2.8-2.7,6.7-4.1,11.6-4.1c4,0,7.2,0.6,9.5,1.8c2.3,1.2,4.1,3,5.3,5.3c1.3,2.8,1.9,5.9,1.8,9L108.7,38.5z
			 M97.8,33.3c0-1.6-0.6-3.2-1.7-4.5c-2.2-1.9-5.5-1.8-7.4,0.4c-0.1,0.1-0.2,0.2-0.2,0.3c-0.8,1.1-1.2,2.4-1.3,3.8H97.8z M114,11.2
			h10.8v38.6H114V11.2z"/>
	</defs>
	<clipPath id="SVGID_2_">
		<use xlink:href="#SVGID_1_"  style="overflow:visible;"/>
	</clipPath>
	<g class="st0">
		<path class="st1" d="M93,202l-96.4,0.3l158.3,4.1L93,202z"/>
		<path class="st2" d="M80.9-22l29.2,2l62.3,1.7L80.9-22z"/>
		<path class="st3" d="M80.9-22l91.5,3.8l87.3-0.6L80.9-22z"/>
		<path class="st4" d="M236.4,201.1l-34.5,0.9l60.2,7.5L236.4,201.1z"/>
		<path class="st5" d="M201.9,202l-47,4.3l107.2,3.1L201.9,202z"/>
		<path class="st6" d="M259.8-18.8L284.3-8l22.8-1.8L259.8-18.8z"/>
		<path class="st7" d="M284.3-8l-3.8,20.3l26.6-22.1L284.3-8z"/>
		<path class="st8" d="M307.6,76.9l-6.2,18.2l7.2,13.5L307.6,76.9z"/>
		<path class="st9" d="M283.6,71.5l24,5.4l1-30.8L283.6,71.5z"/>
		<path class="st10" d="M291.5,203.3l9,5.2l9.3-25.2L291.5,203.3z"/>
		<path class="st11" d="M301,151.4l-23,22.4l31.7,9.4L301,151.4z"/>
		<path class="st12" d="M303.5,134.5l-2.5,16.9l8.7,31.9L303.5,134.5z"/>
		<path class="st13" d="M308.6,108.6l-5,25.9l6.2,48.8L308.6,108.6z"/>
		<path class="st14" d="M280.5,12.3l30.3,10.3l3.6-10.7L280.5,12.3z"/>
		<path class="st15" d="M307.1-9.8l-26.6,22.2l34-0.4L307.1-9.8z"/>
		<path class="st16" d="M310.8,22.6L308.6,46l5.9-34.2L310.8,22.6z"/>
		<path class="st17" d="M308.6,46l-1,30.8l6.9-65L308.6,46z"/>
		<path class="st18" d="M307.6,76.9l1,31.7l5.9-96.7L307.6,76.9z"/>
		<path class="st19" d="M308.6,108.6l1.1,74.7l4.8-171.4L308.6,108.6z"/>
		<path class="st20" d="M291.5,203.3l-29.3,6.2l38.3-1L291.5,203.3z"/>
		<path class="st21" d="M278.1,122.9l25.4,11.6l5-25.9L278.1,122.9z"/>
		<path class="st22" d="M279.3,56.9l4.4,14.6l25-25.5L279.3,56.9z"/>
		<path class="st23" d="M280.5,12.3l3.5,12.9l26.8-2.6L280.5,12.3z"/>
		<path class="st24" d="M284,25.2L308.6,46l2.2-23.5L284,25.2z"/>
		<path class="st25" d="M172.4-18.2l57.7,9.6l29.6-10.1L172.4-18.2z"/>
		<path class="st26" d="M281.6,155l-3.6,18.8l23-22.4L281.6,155z"/>
		<path class="st27" d="M278,173.9l13.5,29.4l18.2-20L278,173.9z"/>
		<path class="st28" d="M301.4,95.1l-20.6-0.3l27.8,13.8L301.4,95.1z"/>
		<path class="st29" d="M280.8,94.8l-2.6,28.1l30.5-14.3L280.8,94.8z"/>
		<path class="st30" d="M284,25.2l-4.8,31.7L308.6,46L284,25.2z"/>
		<path class="st31" d="M283.6,71.5l17.8,23.6l6.2-18.2L283.6,71.5z"/>
		<path class="st32" d="M60.7,197.9l-64.1,4.3L93,202L60.7,197.9z"/>
		<path class="st33" d="M230.1-8.7l18.5-4.9l11.1-5.2L230.1-8.7z"/>
		<path class="st34" d="M283.6,71.5l-2.8,23.3l20.6,0.3L283.6,71.5z"/>
		<path class="st35" d="M280.5,137.2l20.5,14.2l2.5-16.9L280.5,137.2z"/>
		<path class="st36" d="M278.1,122.9l2.4,14.3l23-2.8L278.1,122.9z"/>
		<path class="st37" d="M280.5,137.2l1.1,17.8l19.4-3.6L280.5,137.2z"/>
		<path class="st38" d="M110.2-20l30.2,4.2l32.1-2.5L110.2-20z"/>
		<path class="st39" d="M259.8,42.3l19.5,14.6l4.8-31.7L259.8,42.3z"/>
		<path class="st40" d="M262.1,30.4l-2.4,11.9L284,25.2L262.1,30.4z"/>
		<path class="st41" d="M272,4.9l8.6,7.4L284.3-8L272,4.9z"/>
		<path class="st42" d="M278,173.9l-15.8,35.6l29.3-6.2L278,173.9z"/>
		<path class="st43" d="M172.4-18.2l22,9.7l35.7-0.1L172.4-18.2z"/>
		<path class="st44" d="M266.3,173l-4.2,36.5l15.9-35.6L266.3,173z"/>
		<path class="st45" d="M265.9,98.7l-2.1,18.3l14.3,5.9L265.9,98.7z"/>
		<path class="st46" d="M265.9,98.7l12.2,24.2l2.7-28.1L265.9,98.7z"/>
		<path class="st47" d="M265.1,67.8l0.8,31l14.9-3.9L265.1,67.8z"/>
		<path class="st48" d="M266.3,173l11.6,0.9l3.6-18.9L266.3,173z"/>
		<path class="st49" d="M261,164l5.3,9l15.3-18L261,164z"/>
		<path class="st50" d="M265.1,67.8l15.7,27.1l2.8-23.3L265.1,67.8z"/>
		<path class="st51" d="M279.3,56.9l-14.2,10.8l18.5,3.8L279.3,56.9z"/>
		<path class="st52" d="M280.5,12.3l-18.4,18.1l21.9-5.2L280.5,12.3z"/>
		<path class="st53" d="M259.8-18.8L272,4.9L284.3-8L259.8-18.8z"/>
		<path class="st54" d="M272,4.9l-9.8,25.5l18.4-18.1L272,4.9z"/>
		<path class="st55" d="M267.5,129.4L261,164l19.5-26.8L267.5,129.4z"/>
		<path class="st56" d="M278.1,122.9l-10.7,6.5l13,7.8L278.1,122.9z"/>
		<path class="st57" d="M280.5,137.2L261,164l20.6-9L280.5,137.2z"/>
		<path class="st58" d="M259.8,42.3l5.3,25.5l14.2-10.8L259.8,42.3z"/>
		<path class="st59" d="M263.8,117l3.6,12.4l10.7-6.5L263.8,117z"/>
		<path class="st60" d="M241.4,142l4.8,16.8L261,164L241.4,142z"/>
		<path class="st61" d="M265.1,67.8l-15,4.2l15.9,26.8L265.1,67.8z"/>
		<path class="st62" d="M236.4,201.1l25.7,8.4l4.2-36.5L236.4,201.1z"/>
		<path class="st63" d="M240,174l-3.5,27.1l29.9-28.1L240,174z"/>
		<path class="st64" d="M241.4,142l19.7,22l6.5-34.6L241.4,142z"/>
		<path class="st65" d="M259.8-18.8l-11.1,5.2L272,4.9L259.8-18.8z"/>
		<path class="st66" d="M248.7-13.6l-8.6,15.5l31.9,3L248.7-13.6z"/>
		<path class="st67" d="M240.1,1.9l22.1,28.5L272,4.9L240.1,1.9z"/>
		<path class="st68" d="M225.4,198.6l-23.4,3.4l34.5-0.9L225.4,198.6z"/>
		<path class="st69" d="M259.8,42.3L250.1,72l15-4.2L259.8,42.3z"/>
		<path class="st70" d="M250.9,116.3l12.9,0.7l2.1-18.2L250.9,116.3z"/>
		<path class="st71" d="M250.1,72l-6.6,24l22.5,2.8L250.1,72z"/>
		<path class="st72" d="M263.8,117l-12.9-0.7l16.6,13.2L263.8,117z"/>
		<path class="st73" d="M250.9,116.3l-9.5,25.7l26.1-12.6L250.9,116.3z"/>
		<path class="st74" d="M243.5,96l7.4,20.3l15-17.5L243.5,96z"/>
		<path class="st75" d="M261,164L240,174l26.4-1L261,164z"/>
		<path class="st76" d="M235.8,44l14.3,28l9.7-29.7L235.8,44z"/>
		<path class="st77" d="M240.1,1.9l-3.5,33.4l25.6-4.9L240.1,1.9z"/>
		<path class="st78" d="M246.1,158.8L240,174l21-10L246.1,158.8z"/>
		<path class="st79" d="M236.6,35.3l23.2,6.9l2.4-11.9L236.6,35.3z"/>
		<path class="st80" d="M236.6,35.3l-0.8,8.7l24-1.7L236.6,35.3z"/>
		<path class="st81" d="M30.1,197.5l-33.5,4.8l64.1-4.3L30.1,197.5z"/>
		<path class="st82" d="M-3.6-19.2l14.9,1.2l50.4-3.5L-3.6-19.2z"/>
		<path class="st83" d="M228,5.8l8.6,29.5l3.5-33.4L228,5.8z"/>
		<path class="st84" d="M235.8,44l-16.3,12.5L250.1,72L235.8,44z"/>
		<path class="st85" d="M219.5,56.5l0.7,16.5l29.9-1L219.5,56.5z"/>
		<path class="st86" d="M220.1,73l23.3,23l6.6-24L220.1,73z"/>
		<path class="st87" d="M243.5,96l-16.4,17.2l23.9,3L243.5,96z"/>
		<path class="st88" d="M227,113.2l14.3,28.8l9.5-25.8L227,113.2z"/>
		<path class="st89" d="M227,113.2v27.9l14.3,0.9L227,113.2z"/>
		<path class="st90" d="M230.1-8.7l10,10.6l8.6-15.5L230.1-8.7z"/>
		<path class="st91" d="M225.4,198.6l11.1,2.5L240,174L225.4,198.6z"/>
		<path class="st92" d="M227,141.2l-6.2,13.8l20.5-12.9L227,141.2z"/>
		<path class="st93" d="M220.1,73l5.2,25.9l18.1-2.9L220.1,73z"/>
		<path class="st94" d="M225.4,98.9l1.7,14.3L243.5,96L225.4,98.9z"/>
		<path class="st95" d="M241.4,142l-20.5,12.9l25.3,3.9L241.4,142z"/>
		<path class="st96" d="M220.9,154.9L240,174l6.2-15.2L220.9,154.9z"/>
		<path class="st97" d="M216,183.7l9.4,14.9L240,174L216,183.7z"/>
		<path class="st98" d="M228,5.8l-11.9,29l20.5,0.6L228,5.8z"/>
		<path class="st99" d="M220.9,154.9l-4.9,28.8l24-9.7L220.9,154.9z"/>
		<path class="st100" d="M230.1-8.7L228,5.8l12.1-3.9L230.1-8.7z"/>
		<path class="st101" d="M185.1,198.6l-30.2,7.7l47-4.3L185.1,198.6z"/>
		<path class="st102" d="M216.1,34.8l19.7,9.2l0.8-8.7L216.1,34.8z"/>
		<path class="st103" d="M216.1,34.8l3.4,21.7L235.8,44L216.1,34.8z"/>
		<path class="st104" d="M193.6,113.4l7.9,30.8l25.5-31L193.6,113.4z"/>
		<path class="st105" d="M227,113.2l-25.5,31l25.5-3L227,113.2z"/>
		<path class="st106" d="M203,5.7l13.1,29.1l11.9-29L203,5.7z"/>
		<path class="st107" d="M203,5.7l25,0.1l2.1-14.5L203,5.7z"/>
		<path class="st108" d="M194.5-8.5L203,5.7l27.1-14.3L194.5-8.5z"/>
		<path class="st109" d="M200.4,173.4l15.6,10.3l4.9-28.8L200.4,173.4z"/>
		<path class="st110" d="M220.1,73l-21.6,19.4l26.8,6.5L220.1,73z"/>
		<path class="st111" d="M225.4,98.9l-31.7,14.5l33.4-0.1L225.4,98.9z"/>
		<path class="st112" d="M201.5,144.2l19.4,10.7l6.2-13.8L201.5,144.2z"/>
		<path class="st113" d="M203,5.7l4.2,29.8l8.8-0.7L203,5.7z"/>
		<path class="st114" d="M216,183.7L202,202l23.4-3.3L216,183.7z"/>
		<path class="st115" d="M198.5,92.4l-4.9,21l31.7-14.5L198.5,92.4z"/>
		<path class="st116" d="M140.3-15.8l23.6-0.3l8.6-2.2L140.3-15.8z"/>
		<path class="st117" d="M216.1,34.8l-8.8,0.7l12.2,21L216.1,34.8z"/>
		<path class="st118" d="M207.3,35.5l-0.7,22.6l12.9-1.6L207.3,35.5z"/>
		<path class="st119" d="M219.5,56.5l-12.9,1.6l13.6,15L219.5,56.5z"/>
		<path class="st120" d="M197.8,69.9l0.7,22.4L220.1,73L197.8,69.9z"/>
		<path class="st121" d="M201.5,144.2l-3.1,7.2l22.5,3.5L201.5,144.2z"/>
		<path class="st122" d="M198.4,151.4l2,22l20.5-18.5L198.4,151.4z"/>
		<path class="st123" d="M206.5,58.1l-8.7,11.9l22.3,3.1L206.5,58.1z"/>
		<path class="st124" d="M200.4,173.4l1.5,28.6l14-18.2L200.4,173.4z"/>
		<path class="st125" d="M198.4,151.4l-10.5,9l12.5,13L198.4,151.4z"/>
		<path class="st126" d="M193.6,113.4l-5.8,28.1l13.6,2.8L193.6,113.4z"/>
		<path class="st127" d="M200.4,173.4l-15.3,25.2l16.8,3.4L200.4,173.4z"/>
		<path class="st128" d="M172.3,12.2l1.5,14.8L203,5.7L172.3,12.2z"/>
		<path class="st129" d="M203,5.7l-29.2,21.3l33.4,8.5L203,5.7z"/>
		<path class="st130" d="M183.7,54.9l22.9,3.2l0.7-22.6L183.7,54.9z"/>
		<path class="st131" d="M173.8,26.9l9.8,27.9l23.6-19.4L173.8,26.9z"/>
		<path class="st132" d="M183.7,54.9l14.2,15.1l8.7-11.9L183.7,54.9z"/>
		<path class="st133" d="M186.5,107.4l7.2,5.9l4.9-21L186.5,107.4z"/>
		<path class="st134" d="M173.1,184.9l11.9,13.8l15.3-25.2L173.1,184.9z"/>
		<path class="st135" d="M194.5-8.5l-22.2,20.7L203,5.7L194.5-8.5z"/>
		<path class="st136" d="M197.8,69.9l-23.3,2l24,20.4L197.8,69.9z"/>
		<path class="st137" d="M187.9,141.4l10.5,10l3.1-7.2L187.9,141.4z"/>
		<path class="st72" d="M187.9,160.4l-14.7,24.5l27.2-11.4L187.9,160.4z"/>
		<path class="st138" d="M174.5,98.3l11.9,9.1l12.1-15.1L174.5,98.3z"/>
		<path class="st139" d="M174.5,72v26.3l24-5.9L174.5,72z"/>
		<path class="st140" d="M187.9,141.4v19l10.5-9L187.9,141.4z"/>
		<path class="st141" d="M183.7,54.9L174.5,72l23.3-2L183.7,54.9z"/>
		<path class="st142" d="M186.5,107.4l-23.4,1.2l24.8,32.9L186.5,107.4z"/>
		<path class="st143" d="M186.5,107.4l1.4,34l5.8-28.1L186.5,107.4z"/>
		<path class="st144" d="M172.4-18.2l-0.1,30.4l22.2-20.7L172.4-18.2z"/>
		<path class="st145" d="M158.8,0l13.5,12.2l0.1-30.4L158.8,0z"/>
		<path class="st146" d="M173.8,26.9l-9.5,26.4l19.4,1.6L173.8,26.9z"/>
		<path class="st147" d="M158.8,144.3l6,8l23-10.9L158.8,144.3z"/>
		<path class="st148" d="M163,108.6l-4.2,35.8l29.1-2.9L163,108.6z"/>
		<path class="st149" d="M187.9,141.4l-23,10.9l23,8.1V141.4z"/>
		<path class="st150" d="M164.9,152.3l8.3,32.6l14.7-24.5L164.9,152.3z"/>
		<path class="st151" d="M109.2,197L93,202l61.9,4.3L109.2,197z"/>
		<path class="st152" d="M174.5,98.3L163,108.6l23.4-1.2L174.5,98.3z"/>
		<path class="st153" d="M173.1,184.9l-18.2,21.4l30.2-7.7L173.1,184.9z"/>
		<path class="st154" d="M163.9-16.1L158.8,0l13.6-18.2L163.9-16.1z"/>
		<path class="st155" d="M159,32.9l5.3,20.4l9.5-26.3L159,32.9z"/>
		<path class="st156" d="M164.3,53.3L174.5,72l9.1-17.1L164.3,53.3z"/>
		<path class="st157" d="M140.1,198l-31-1l45.7,9.3L140.1,198z"/>
		<path class="st158" d="M143.7,134.6l15.2,9.7l4.2-35.8L143.7,134.6z"/>
		<path class="st159" d="M164.9,152.3l-11.5,29.1l19.8,3.5L164.9,152.3z"/>
		<path class="st160" d="M153.4,181.4l1.5,24.9l18.2-21.4L153.4,181.4z"/>
		<path class="st161" d="M172.3,12.2L159,32.9l14.9-5.9L172.3,12.2z"/>
		<path class="st162" d="M164.3,53.3l-5.5,22.9l15.7-4.2L164.3,53.3z"/>
		<path class="st163" d="M155.5,91.8l7.6,16.8l11.5-10.3L155.5,91.8z"/>
		<path class="st164" d="M174.5,72l-15.7,4.2l15.7,22.1V72z"/>
		<path class="st165" d="M158.8,76.2l-3.4,15.6l19.1,6.5L158.8,76.2z"/>
		<path class="st166" d="M158.8,0l0.1,32.9l13.3-20.7L158.8,0z"/>
		<path class="st167" d="M158.8,0l-14.2,1.2L159,32.9L158.8,0z"/>
		<path class="st168" d="M145.2,109.2l-1.5,25.5l19.4-26.1L145.2,109.2z"/>
		<path class="st169" d="M159,32.9l-20.6,12.6l26,7.8L159,32.9z"/>
		<path class="st170" d="M138.3,45.5l20.5,30.7l5.5-22.9L138.3,45.5z"/>
		<path class="st171" d="M158.8,144.3L136.1,162l28.8-9.7L158.8,144.3z"/>
		<path class="st172" d="M136.1,162l17.3,19.4l11.5-29.1L136.1,162z"/>
		<path class="st173" d="M155.5,91.8l-10.2,17.4l17.8-0.6L155.5,91.8z"/>
		<path class="st174" d="M140.3-15.8L158.8,0l5.1-16.1L140.3-15.8z"/>
		<path class="st175" d="M153.4,181.4L140.1,198l14.7,8.2L153.4,181.4z"/>
		<path class="st176" d="M138.3,45.5l-4.1,33.9l24.6-3.2L138.3,45.5z"/>
		<path class="st177" d="M140.3-15.8l4.4,16.9L158.8,0L140.3-15.8z"/>
		<path class="st178" d="M144.7,1.2l-9.1,34.7l23.4-3L144.7,1.2z"/>
		<path class="st179" d="M143.7,134.6l-7.6,27.4l22.7-17.7L143.7,134.6z"/>
		<path class="st180" d="M134.3,79.3l21.2,12.4l3.4-15.6L134.3,79.3z"/>
		<path class="st181" d="M135.5,35.9l2.8,9.5L159,32.9L135.5,35.9z"/>
		<path class="st182" d="M136.1,162l-2.2,14.3l19.5,5.1L136.1,162z"/>
		<path class="st183" d="M132.9,94.5l12.4,14.6l10.2-17.4L132.9,94.5z"/>
		<path class="st184" d="M134.3,79.3l-1.4,15.2l22.6-2.8L134.3,79.3z"/>
		<path class="st185" d="M133.8,176.3l6.3,21.7l13.2-16.6L133.8,176.3z"/>
		<path class="st186" d="M121.8,1.6l0.6,34.6l13.2-0.3L121.8,1.6z"/>
		<path class="st187" d="M114.8,52.3l19.5,27.1l4.1-33.9L114.8,52.3z"/>
		<path class="st188" d="M133.8,176.3L123.5,187l16.7,11L133.8,176.3z"/>
		<path class="st189" d="M115,115.8l5.6,20.1l23-1.3L115,115.8z"/>
		<path class="st190" d="M120.7,135.9l15.4,26.1l7.6-27.4L120.7,135.9z"/>
		<path class="st191" d="M140.3-15.8L121.8,1.6l22.9-0.4L140.3-15.8z"/>
		<path class="st192" d="M121.8,1.6l13.8,34.3l9.1-34.7L121.8,1.6z"/>
		<path class="st193" d="M115,115.8l28.6,18.8l1.5-25.5L115,115.8z"/>
		<path class="st194" d="M132.9,94.5l-17.8,21.3l30.2-6.7L132.9,94.5z"/>
		<path class="st195" d="M76.3,198l-15.6-0.1L93,202L76.3,198z"/>
		<path class="st196" d="M120.7,135.9l-4.9,22.3l20.3,3.8L120.7,135.9z"/>
		<path class="st197" d="M123.5,187l-14.3,10l31,1L123.5,187z"/>
		<path class="st198" d="M110.2-20l11.6,21.6l18.5-17.4L110.2-20z"/>
		<path class="st199" d="M114.8,52.3l-3.9,27.2l23.4-0.1L114.8,52.3z"/>
		<path class="st200" d="M135.5,35.9l-13.2,0.3l16,9.3L135.5,35.9z"/>
		<path class="st201" d="M122.3,36.2l-7.6,16.1l23.6-6.8L122.3,36.2z"/>
		<path class="st202" d="M115.8,158.2l18.1,18.1l2.2-14.3L115.8,158.2z"/>
		<path class="st203" d="M109.4,86.2l23.4,8.4l1.4-15.2L109.4,86.2z"/>
		<path class="st204" d="M110.8,79.5l-1.4,6.7l24.8-6.8L110.8,79.5z"/>
		<path class="st205" d="M115.8,158.2l7.7,28.8l10.4-10.7L115.8,158.2z"/>
		<path class="st206" d="M109.4,86.2l-7.3,15.1l12.9,14.6L109.4,86.2z"/>
		<path class="st207" d="M121.8,1.6l-20.5,29.5l21.1,5.1L121.8,1.6z"/>
		<path class="st208" d="M109.4,86.2l5.6,29.7l17.8-21.3L109.4,86.2z"/>
		<path class="st209" d="M99.6,134.2l16.1,24l4.9-22.3L99.6,134.2z"/>
		<path class="st210" d="M110.2-20L98.9,2.6l22.9-1L110.2-20z"/>
		<path class="st211" d="M98.9,2.6l2.4,28.5l20.5-29.5L98.9,2.6z"/>
		<path class="st212" d="M115.8,158.2l-27.2,21.4l34.9,7.3L115.8,158.2z"/>
		<path class="st213" d="M88.5,179.7l20.6,17.3l14.3-10L88.5,179.7z"/>
		<path class="st214" d="M115,115.8l-15.4,18.4l21,1.7L115,115.8z"/>
		<path class="st215" d="M101.3,31.1l13.5,21.1l7.6-16.1L101.3,31.1z"/>
		<path class="st216" d="M95.4-9.2l3.5,11.9L110.2-20L95.4-9.2z"/>
		<path class="st217" d="M92.2,52.7l-4.1,23.2l22.7,3.6L92.2,52.7z"/>
		<path class="st218" d="M92.2,52.7l18.7,26.8l3.9-27.2L92.2,52.7z"/>
		<path class="st219" d="M101.3,31.1l-9.1,21.6l22.6-0.4L101.3,31.1z"/>
		<path class="st220" d="M94.3,109.6l5.3,24.6l15.4-18.4L94.3,109.6z"/>
		<path class="st221" d="M99.6,134.2L88.5,160l27.2-1.7L99.6,134.2z"/>
		<path class="st222" d="M88.5,160v19.7l27.2-21.4L88.5,160z"/>
		<path class="st223" d="M102.2,101.2l-7.9,8.4l20.8,6.2L102.2,101.2z"/>
		<path class="st224" d="M88.5,179.7L93,202l16.1-5L88.5,179.7z"/>
		<path class="st225" d="M80.9-22L95.4-9.2L110.2-20L80.9-22z"/>
		<path class="st226" d="M88.1,75.9l21.3,10.3l1.4-6.7L88.1,75.9z"/>
		<path class="st227" d="M98.9,2.6l-16.4,7.7l18.8,20.9L98.9,2.6z"/>
		<path class="st228" d="M88.1,75.9l14,25.3l7.3-15.1L88.1,75.9z"/>
		<path class="st229" d="M81.6,158.8l6.9,1.2l11.1-25.8L81.6,158.8z"/>
		<path class="st230" d="M71.4,142.3l10.2,16.5l18-24.6L71.4,142.3z"/>
		<path class="st231" d="M94.3,109.6l-13.1,6.8l18.4,17.8L94.3,109.6z"/>
		<path class="st232" d="M73.9,27.5l18.2,25.2l9.1-21.6L73.9,27.5z"/>
		<path class="st233" d="M82.5,10.3l-8.6,17.2l27.4,3.6L82.5,10.3z"/>
		<path class="st234" d="M73.6,93.4l20.6,16.2l7.9-8.4L73.6,93.4z"/>
		<path class="st235" d="M88.1,75.9L73.6,93.4l28.5,7.8L88.1,75.9z"/>
		<path class="st236" d="M81.2,116.4l-9.8,25.9l28.2-8.1L81.2,116.4z"/>
		<path class="st237" d="M73.9,27.5L76,52.7h16.1L73.9,27.5z"/>
		<path class="st238" d="M95.4-9.2L82.5,10.3l16.4-7.7L95.4-9.2z"/>
		<path class="st239" d="M76,52.7l12.1,23.2l4.1-23.2H76z"/>
		<path class="st240" d="M88.5,179.7L76.3,198l16.7,4L88.5,179.7z"/>
		<path class="st241" d="M73.6,93.4l7.6,23l13.1-6.8L73.6,93.4z"/>
		<path class="st242" d="M80.9-22l1.5,32.3L95.4-9.2L80.9-22z"/>
		<path class="st243" d="M88.5,160l-6.9-1.2l6.9,20.9V160z"/>
		<path class="st244" d="M11.3-18.1L40.1-14l21.6-7.5L11.3-18.1z"/>
		<path class="st245" d="M80.9-22l-19.2,0.4l20.8,31.8L80.9-22z"/>
		<path class="st239" d="M76,52.7l-6.9,23l18.9,0.1L76,52.7z"/>
		<path class="st246" d="M69.2,75.7l4.5,17.7l14.5-17.5L69.2,75.7z"/>
		<path class="st247" d="M81.6,158.8l-9.8,22l16.7-1.2L81.6,158.8z"/>
		<path class="st248" d="M71.8,180.8l4.5,17.2l12.2-18.4L71.8,180.8z"/>
		<path class="st249" d="M46.7,120.5l24.7,21.9l9.8-25.9L46.7,120.5z"/>
		<path class="st250" d="M55.2,157.7l16.7,23.2l9.8-22L55.2,157.7z"/>
		<path class="st251" d="M51.9,7l22,20.6l8.6-17.2L51.9,7z"/>
		<path class="st252" d="M61.7-21.6L51.9,7l30.6,3.3L61.7-21.6z"/>
		<path class="st253" d="M73.6,93.4l-26.9,27.1l34.5-4.1L73.6,93.4z"/>
		<path class="st254" d="M71.4,142.3l-16.2,15.3l26.5,1.2L71.4,142.3z"/>
		<path class="st255" d="M47.7,96.6l-1,23.9l27-27.1L47.7,96.6z"/>
		<path class="st256" d="M73.9,27.5L58.5,54L76,52.7L73.9,27.5z"/>
		<path class="st257" d="M52.7,24.5L58.5,54l15.4-26.5L52.7,24.5z"/>
		<path class="st258" d="M51.9,7l0.8,17.5l21.2,3L51.9,7z"/>
		<path class="st259" d="M58.5,54l10.7,21.7l6.9-23L58.5,54z"/>
		<path class="st260" d="M71.8,180.8l-11.1,6.1L76.3,198L71.8,180.8z"/>
		<path class="st261" d="M60.7,186.9v11l15.6,0.1L60.7,186.9z"/>
		<path class="st262" d="M46.7,120.5l3.2,24.2l21.5-2.3L46.7,120.5z"/>
		<path class="st263" d="M55.2,157.7l5.6,29.2l11.1-6.1L55.2,157.7z"/>
		<path class="st264" d="M69.2,75.7L47.7,96.6l26-3.2L69.2,75.7z"/>
		<path class="st265" d="M58.5,54L47,65.7l22.2,10L58.5,54z"/>
		<path class="st266" d="M49.9,144.6l5.2,13l16.3-15.4L49.9,144.6z"/>
		<path class="st267" d="M47,65.7l0.7,30.8l21.5-20.9L47,65.7z"/>
		<path class="st268" d="M15,196.5l-18.4,5.8l33.6-4.8L15,196.5z"/>
		<path class="st269" d="M47,65.7L36.6,78.6l11.1,18L47,65.7z"/>
		<path class="st270" d="M40.5,25.9l-6.9,18l19.1-19.4L40.5,25.9z"/>
		<path class="st271" d="M52.7,24.5L33.6,43.9L58.5,54L52.7,24.5z"/>
		<path class="st272" d="M35,183.9l25.7,14v-11L35,183.9z"/>
		<path class="st273" d="M55.2,157.7l-20.1,26.2l25.7,3L55.2,157.7z"/>
		<path class="st274" d="M40.1-14L51.9,7l9.8-28.5L40.1-14z"/>
		<path class="st275" d="M35,183.9l-4.9,13.6l30.6,0.4L35,183.9z"/>
		<path class="st276" d="M36.6,152.9l-1.5,31l20.1-26.2L36.6,152.9z"/>
		<path class="st277" d="M33.6,43.9L47,65.7L58.5,54L33.6,43.9z"/>
		<path class="st278" d="M32.5,115.7l14.2,4.8l1-23.9L32.5,115.7z"/>
		<path class="st279" d="M46.7,120.5l-10.5,22.4l13.8,1.7L46.7,120.5z"/>
		<path class="st280" d="M51.9,7L40,13.5l12.8,11L51.9,7z"/>
		<path class="st281" d="M49.9,144.6l-13.3,8.2l18.6,4.8L49.9,144.6z"/>
		<path class="st282" d="M40.1-14L40,13.5L51.9,7L40.1-14z"/>
		<path class="st283" d="M40,13.5l0.6,12.4l12.2-1.5L40,13.5z"/>
		<path class="st284" d="M36.6,78.6l-6.4,16.1l17.5,1.9L36.6,78.6z"/>
		<path class="st285" d="M30.1,94.7l2.4,21l15.1-19.1L30.1,94.7z"/>
		<path class="st286" d="M36.2,142.9l0.4,10l13.3-8.2L36.2,142.9z"/>
		<path class="st287" d="M32.5,115.7l3.6,27.2l10.5-22.4L32.5,115.7z"/>
		<path class="st288" d="M19.5,178.2l15.6,5.6l1.5-31L19.5,178.2z"/>
		<path class="st289" d="M33.6,43.9l3,34.7L47,65.7L33.6,43.9z"/>
		<path class="st290" d="M32.5,115.7l-14,22.7l17.6,4.5L32.5,115.7z"/>
		<path class="st291" d="M33.6,43.9l-28.8,12l31.7,22.7L33.6,43.9z"/>
		<path class="st292" d="M4.9,55.9l1.7,17.7l30,5.1L4.9,55.9z"/>
		<path class="st293" d="M13.7,161.4l5.8,16.8l17.1-25.3L13.7,161.4z"/>
		<path class="st294" d="M12.1,3L4.4,21.9L40,13.5L12.1,3z"/>
		<path class="st295" d="M12.1,3L40,13.5L40.1-14L12.1,3z"/>
		<path class="st296" d="M11.3-18.1L12.1,3l27.9-17L11.3-18.1z"/>
		<path class="st297" d="M40,13.5L4.4,21.9l36.1,4L40,13.5z"/>
		<path class="st280" d="M4.4,21.9l29.2,22l6.9-18L4.4,21.9z"/>
		<path class="st298" d="M30.1,94.7l-18.3,14.8l20.6,6.2L30.1,94.7z"/>
		<path class="st299" d="M6.5,73.6l23.6,21.1l6.5-16.1L6.5,73.6z"/>
		<path class="st300" d="M36.2,142.9l-17.7-4.5l18.1,14.5L36.2,142.9z"/>
		<path class="st301" d="M18.5,138.4l-4.8,23l22.9-8.5L18.5,138.4z"/>
		<path class="st302" d="M19.5,178.2l10.7,19.2l4.9-13.6L19.5,178.2z"/>
		<path class="st303" d="M19.5,178.2L15,196.5l15.2,1L19.5,178.2z"/>
		<path class="st304" d="M6.5,73.6L5.8,93l24.3,1.7L6.5,73.6z"/>
		<path class="st305" d="M11.9,109.5l6.6,29l14-22.7L11.9,109.5z"/>
		<path class="st306" d="M4.4,21.9l0.4,34l28.8-12L4.4,21.9z"/>
		<path class="st307" d="M5.8,93l6,16.5l18.3-14.8L5.8,93z"/>
		<path class="st308" d="M-2.6,159l16.3,2.5l4.8-23L-2.6,159z"/>
		<path class="st309" d="M-7.3,135.2l4.8,23.8l21-20.6L-7.3,135.2z"/>
		<path class="st310" d="M11.9,109.5l-14.9,12l21.5,16.9L11.9,109.5z"/>
		<path class="st311" d="M-3,121.5l-4.3,13.7l25.8,3.2L-3,121.5z"/>
		<path class="st312" d="M-1.7,185.5l16.7,11l4.5-18.2L-1.7,185.5z"/>
		<path class="st313" d="M13.7,161.4l-15.4,24l21.2-7.2L13.7,161.4z"/>
		<path class="st314" d="M11.3-18.1l-14.9-1.2L12.1,3L11.3-18.1z"/>
		<path class="st315" d="M-3.6-19.2L-9.2,0.3L12.1,3L-3.6-19.2z"/>
		<path class="st316" d="M-2.6,159l0.8,26.5l15.4-24L-2.6,159z"/>
		<path class="st317" d="M-1.7,185.5l-1.7,16.8l18.4-5.8L-1.7,185.5z"/>
		<path class="st318" d="M4.4,21.9l-16.1-0.4L4.9,55.9L4.4,21.9z"/>
		<path class="st319" d="M-11.7,21.4l-3.6,33l20.2,1.4L-11.7,21.4z"/>
		<path class="st320" d="M-3.9,86.9L5.8,93l0.7-19.4L-3.9,86.9z"/>
		<path class="st321" d="M5.8,93L-3,121.5l14.9-12L5.8,93z"/>
		<path class="st322" d="M-9.2,0.3L4.4,21.9L12.1,3L-9.2,0.3z"/>
		<path class="st323" d="M-9.2,0.3l-2.5,21.1l16.1,0.4L-9.2,0.3z"/>
		<path class="st324" d="M-15.3,54.4l-0.3,15.8L4.9,55.9L-15.3,54.4z"/>
		<path class="st325" d="M-3.9,86.9l0.8,34.6L5.8,93L-3.9,86.9z"/>
		<path class="st326" d="M4.9,55.9l-20.5,14.3l22.2,3.3L4.9,55.9z"/>
		<path class="st327" d="M-15.6,70.2l11.8,16.7L6.5,73.6L-15.6,70.2z"/>
		<path class="st328" d="M-3.9,86.9l-11.8-16.7L-3,121.5L-3.9,86.9z"/>
		<path class="st329" d="M-2.6,159l-4.8-23.7l5.6,50.2L-2.6,159z"/>
		<path class="st330" d="M-7.3,135.2l3.9,67l1.7-16.8L-7.3,135.2z"/>
		<path class="st331" d="M-15.6,70.2l8.3,65l4.3-13.7L-15.6,70.2z"/>
		<path class="st332" d="M-7.3,135.2l-8.3-65l12.2,132L-7.3,135.2z"/>
	</g>
</g>
<polygon class="st333" points="35.2,42.3 34.7,41 33.6,43.9 "/>
<polygon class="st334" points="36.2,44.9 35.2,42.3 33.6,43.9 "/>
<polygon class="st335" points="37.2,49.7 38,49.7 36.2,44.9 33.6,43.9 "/>
<polygon class="st336" points="34.1,49.6 37.2,49.7 33.6,43.9 "/>
<polygon class="st337" points="20,49.6 34.1,49.6 33.6,43.9 "/>
<polygon class="st338" points="22,6.7 17.5,5 11.5,20.2 25.7,16.8 "/>
<polygon class="st339" points="19.4,0 17.5,5 22,6.7 "/>
<polygon class="st340" points="25.7,16.8 11.5,20.2 10.6,22.6 28.6,24.6 "/>
<polygon class="st341" points="34.7,41 28.6,24.6 10.6,22.6 9.4,25.6 33.6,43.9 "/>
<polygon class="st342" points="20,49.6 33.6,43.9 9.4,25.6 4.6,37.7 4.8,49.5 "/>
<polygon class="st343" points="4.8,49.5 4.6,37.7 0.8,47.5 1.8,49.5 "/>
<polygon class="st344" points="0.8,47.5 0,49.5 1.8,49.5 "/>
<g>
	<defs>
		<path id="SVGID_3_" d="M190.8,30.9l-10.2-1.1c0.3-1.5,0.8-2.9,1.7-4.2c0.8-1.1,1.9-2,3.1-2.7c1.3-0.6,2.6-1.1,4.1-1.3
			c1.8-0.3,3.7-0.5,5.6-0.5c2.6,0,5.2,0.1,7.8,0.5c1.8,0.3,3.5,1.1,4.9,2.3c1,0.9,1.7,2.1,2.2,3.4c0.5,1.3,0.8,2.7,0.8,4.2v12.3
			c0,1,0.1,2.1,0.2,3.1c0.3,1,0.6,1.9,1.1,2.9h-10.1c-0.3-0.5-0.6-1.1-0.8-1.7c-0.2-0.6-0.3-1.2-0.4-1.8c-1.2,1.2-2.6,2.2-4.2,2.9
			c-2.1,0.8-4.4,1.2-6.6,1.2c-3.3,0-5.9-0.8-7.6-2.3c-1.7-1.4-2.6-3.5-2.6-5.7c-0.1-1.9,0.6-3.8,1.9-5.2c1.2-1.4,3.5-2.4,6.9-3.1
			c4-0.8,6.6-1.4,7.8-1.7c1.3-0.4,2.6-0.8,3.8-1.3c0.1-1-0.2-2-0.8-2.8c-0.8-0.6-1.8-0.9-2.9-0.8c-1.4-0.1-2.8,0.2-4,0.8
			C191.6,29,191.1,29.9,190.8,30.9z M200.1,36.5c-1.5,0.5-3,1-4.6,1.4c-1.5,0.3-2.9,0.9-4.1,1.7c-1.1,1-1.2,2.8-0.1,3.9
			c0,0,0.1,0.1,0.1,0.1c0.7,0.6,1.7,0.9,2.6,0.8c1.2,0,2.3-0.3,3.3-0.9c0.9-0.5,1.7-1.2,2.2-2.1c0.5-1,0.7-2.1,0.6-3.3L200.1,36.5z
			 M217.1,21.8h10v4.6c0.7-1.6,1.7-3,3-4.1c1.1-0.8,2.5-1.2,3.8-1.1c1.8,0.1,3.6,0.6,5.2,1.5l-3.3,7.6c-0.9-0.4-2-0.7-3-0.8
			c-1.3,0-2.6,0.6-3.3,1.7c-1.1,1.6-1.7,4.7-1.7,9.2v9.4h-10.7V21.8z M240.6,35.9c-0.1-4,1.4-7.8,4.3-10.6c2.9-2.8,6.8-4.1,11.7-4.1
			c5.6,0,9.8,1.6,12.7,4.9c2.3,2.7,3.6,6.1,3.5,9.7c0.1,4-1.4,7.8-4.3,10.6c-2.9,2.8-6.8,4.1-11.9,4.1c-4.5,0-8.1-1.1-10.9-3.4
			C242.3,44.3,240.4,40.2,240.6,35.9L240.6,35.9z M251.3,35.9c0,2.5,0.5,4.3,1.5,5.5c1.8,2.1,4.9,2.4,7,0.6c0.2-0.2,0.4-0.4,0.6-0.6
			c1-1.2,1.5-3.1,1.5-5.7c0-2.4-0.5-4.2-1.5-5.4c-0.9-1.1-2.3-1.8-3.7-1.8c-1.5,0-2.9,0.6-3.9,1.8C251.8,31.6,251.3,33.4,251.3,35.9
			L251.3,35.9z M277.9,21.9h10v4.6c1.2-1.6,2.8-3,4.5-4c1.7-0.8,3.7-1.3,5.6-1.2c2.6-0.2,5.2,0.8,7,2.6c1.7,1.8,2.5,4.5,2.5,8.2
			v17.8h-10.8V34.4c0.1-1.3-0.2-2.6-1-3.7c-0.7-0.8-1.7-1.1-2.7-1.1c-1.2,0-2.4,0.5-3.2,1.5c-0.8,1-1.2,2.8-1.2,5.3v13.4h-10.7
			L277.9,21.9z"/>
	</defs>
	<clipPath id="SVGID_4_">
		<use xlink:href="#SVGID_3_"  style="overflow:visible;"/>
	</clipPath>
	<g class="st345">
		<path class="st1" d="M93,202l-96.4,0.3l158.3,4.1L93,202z"/>
		<path class="st2" d="M80.9-22l29.2,2l62.3,1.7L80.9-22z"/>
		<path class="st3" d="M80.9-22l91.5,3.8l87.3-0.6L80.9-22z"/>
		<path class="st4" d="M236.4,201.1l-34.5,0.9l60.2,7.5L236.4,201.1z"/>
		<path class="st5" d="M201.9,202l-47,4.3l107.2,3.1L201.9,202z"/>
		<path class="st6" d="M259.8-18.8L284.3-8l22.8-1.8L259.8-18.8z"/>
		<path class="st7" d="M284.3-8l-3.8,20.3l26.6-22.1L284.3-8z"/>
		<path class="st8" d="M307.6,76.9l-6.2,18.2l7.2,13.5L307.6,76.9z"/>
		<path class="st9" d="M283.6,71.5l24,5.4l1-30.8L283.6,71.5z"/>
		<path class="st10" d="M291.5,203.3l9,5.2l9.3-25.2L291.5,203.3z"/>
		<path class="st11" d="M301,151.4l-23,22.4l31.7,9.4L301,151.4z"/>
		<path class="st12" d="M303.5,134.5l-2.5,16.9l8.7,31.9L303.5,134.5z"/>
		<path class="st13" d="M308.6,108.6l-5,25.9l6.2,48.8L308.6,108.6z"/>
		<path class="st14" d="M280.5,12.3l30.3,10.3l3.6-10.7L280.5,12.3z"/>
		<path class="st15" d="M307.1-9.8l-26.6,22.2l34-0.4L307.1-9.8z"/>
		<path class="st16" d="M310.8,22.6L308.6,46l5.9-34.2L310.8,22.6z"/>
		<path class="st17" d="M308.6,46l-1,30.8l6.9-65L308.6,46z"/>
		<path class="st18" d="M307.6,76.9l1,31.7l5.9-96.7L307.6,76.9z"/>
		<path class="st19" d="M308.6,108.6l1.1,74.7l4.8-171.4L308.6,108.6z"/>
		<path class="st20" d="M291.5,203.3l-29.3,6.2l38.3-1L291.5,203.3z"/>
		<path class="st21" d="M278.1,122.9l25.4,11.6l5-25.9L278.1,122.9z"/>
		<path class="st22" d="M279.3,56.9l4.4,14.6l25-25.5L279.3,56.9z"/>
		<path class="st23" d="M280.5,12.3l3.5,12.9l26.8-2.6L280.5,12.3z"/>
		<path class="st24" d="M284,25.2L308.6,46l2.2-23.5L284,25.2z"/>
		<path class="st25" d="M172.4-18.2l57.7,9.6l29.6-10.1L172.4-18.2z"/>
		<path class="st26" d="M281.6,155l-3.6,18.8l23-22.4L281.6,155z"/>
		<path class="st27" d="M278,173.9l13.5,29.4l18.2-20L278,173.9z"/>
		<path class="st28" d="M301.4,95.1l-20.6-0.3l27.8,13.8L301.4,95.1z"/>
		<path class="st29" d="M280.8,94.8l-2.6,28.1l30.5-14.3L280.8,94.8z"/>
		<path class="st30" d="M284,25.2l-4.8,31.7L308.6,46L284,25.2z"/>
		<path class="st31" d="M283.6,71.5l17.8,23.6l6.2-18.2L283.6,71.5z"/>
		<path class="st32" d="M60.7,197.9l-64.1,4.3L93,202L60.7,197.9z"/>
		<path class="st33" d="M230.1-8.7l18.5-4.9l11.1-5.2L230.1-8.7z"/>
		<path class="st34" d="M283.6,71.5l-2.8,23.3l20.6,0.3L283.6,71.5z"/>
		<path class="st35" d="M280.5,137.2l20.5,14.2l2.5-16.9L280.5,137.2z"/>
		<path class="st36" d="M278.1,122.9l2.4,14.3l23-2.8L278.1,122.9z"/>
		<path class="st37" d="M280.5,137.2l1.1,17.8l19.4-3.6L280.5,137.2z"/>
		<path class="st38" d="M110.2-20l30.2,4.2l32.1-2.5L110.2-20z"/>
		<path class="st39" d="M259.8,42.3l19.5,14.6l4.8-31.7L259.8,42.3z"/>
		<path class="st40" d="M262.1,30.4l-2.4,11.9L284,25.2L262.1,30.4z"/>
		<path class="st41" d="M272,4.9l8.6,7.4L284.3-8L272,4.9z"/>
		<path class="st42" d="M278,173.9l-15.8,35.6l29.3-6.2L278,173.9z"/>
		<path class="st43" d="M172.4-18.2l22,9.7l35.7-0.1L172.4-18.2z"/>
		<path class="st44" d="M266.3,173l-4.2,36.5l15.9-35.6L266.3,173z"/>
		<path class="st45" d="M265.9,98.7l-2.1,18.3l14.3,5.9L265.9,98.7z"/>
		<path class="st46" d="M265.9,98.7l12.2,24.2l2.7-28.1L265.9,98.7z"/>
		<path class="st47" d="M265.1,67.8l0.8,31l14.9-3.9L265.1,67.8z"/>
		<path class="st48" d="M266.3,173l11.6,0.9l3.6-18.9L266.3,173z"/>
		<path class="st49" d="M261,164l5.3,9l15.3-18L261,164z"/>
		<path class="st50" d="M265.1,67.8l15.7,27.1l2.8-23.3L265.1,67.8z"/>
		<path class="st51" d="M279.3,56.9l-14.2,10.8l18.5,3.8L279.3,56.9z"/>
		<path class="st52" d="M280.5,12.3l-18.4,18.1l21.9-5.2L280.5,12.3z"/>
		<path class="st53" d="M259.8-18.8L272,4.9L284.3-8L259.8-18.8z"/>
		<path class="st54" d="M272,4.9l-9.8,25.5l18.4-18.1L272,4.9z"/>
		<path class="st55" d="M267.5,129.4L261,164l19.5-26.8L267.5,129.4z"/>
		<path class="st56" d="M278.1,122.9l-10.7,6.5l13,7.8L278.1,122.9z"/>
		<path class="st57" d="M280.5,137.2L261,164l20.6-9L280.5,137.2z"/>
		<path class="st58" d="M259.8,42.3l5.3,25.5l14.2-10.8L259.8,42.3z"/>
		<path class="st59" d="M263.8,117l3.6,12.4l10.7-6.5L263.8,117z"/>
		<path class="st60" d="M241.4,142l4.8,16.8L261,164L241.4,142z"/>
		<path class="st61" d="M265.1,67.8l-15,4.2l15.9,26.8L265.1,67.8z"/>
		<path class="st62" d="M236.4,201.1l25.7,8.4l4.2-36.5L236.4,201.1z"/>
		<path class="st63" d="M240,174l-3.5,27.1l29.9-28.1L240,174z"/>
		<path class="st64" d="M241.4,142l19.7,22l6.5-34.6L241.4,142z"/>
		<path class="st65" d="M259.8-18.8l-11.1,5.2L272,4.9L259.8-18.8z"/>
		<path class="st66" d="M248.7-13.6l-8.6,15.5l31.9,3L248.7-13.6z"/>
		<path class="st67" d="M240.1,1.9l22.1,28.5L272,4.9L240.1,1.9z"/>
		<path class="st68" d="M225.4,198.6l-23.4,3.4l34.5-0.9L225.4,198.6z"/>
		<path class="st69" d="M259.8,42.3L250.1,72l15-4.2L259.8,42.3z"/>
		<path class="st70" d="M250.9,116.3l12.9,0.7l2.1-18.2L250.9,116.3z"/>
		<path class="st71" d="M250.1,72l-6.6,24l22.5,2.8L250.1,72z"/>
		<path class="st72" d="M263.8,117l-12.9-0.7l16.6,13.2L263.8,117z"/>
		<path class="st73" d="M250.9,116.3l-9.5,25.7l26.1-12.6L250.9,116.3z"/>
		<path class="st74" d="M243.5,96l7.4,20.3l15-17.5L243.5,96z"/>
		<path class="st75" d="M261,164L240,174l26.4-1L261,164z"/>
		<path class="st76" d="M235.8,44l14.3,28l9.7-29.7L235.8,44z"/>
		<path class="st77" d="M240.1,1.9l-3.5,33.4l25.6-4.9L240.1,1.9z"/>
		<path class="st78" d="M246.1,158.8L240,174l21-10L246.1,158.8z"/>
		<path class="st79" d="M236.6,35.3l23.2,6.9l2.4-11.9L236.6,35.3z"/>
		<path class="st80" d="M236.6,35.3l-0.8,8.7l24-1.7L236.6,35.3z"/>
		<path class="st81" d="M30.1,197.5l-33.5,4.8l64.1-4.3L30.1,197.5z"/>
		<path class="st82" d="M-3.6-19.2l14.9,1.2l50.4-3.5L-3.6-19.2z"/>
		<path class="st83" d="M228,5.8l8.6,29.5l3.5-33.4L228,5.8z"/>
		<path class="st84" d="M235.8,44l-16.3,12.5L250.1,72L235.8,44z"/>
		<path class="st85" d="M219.5,56.5l0.7,16.5l29.9-1L219.5,56.5z"/>
		<path class="st86" d="M220.1,73l23.3,23l6.6-24L220.1,73z"/>
		<path class="st87" d="M243.5,96l-16.4,17.2l23.9,3L243.5,96z"/>
		<path class="st88" d="M227,113.2l14.3,28.8l9.5-25.8L227,113.2z"/>
		<path class="st89" d="M227,113.2v27.9l14.3,0.9L227,113.2z"/>
		<path class="st90" d="M230.1-8.7l10,10.6l8.6-15.5L230.1-8.7z"/>
		<path class="st91" d="M225.4,198.6l11.1,2.5L240,174L225.4,198.6z"/>
		<path class="st92" d="M227,141.2l-6.2,13.8l20.5-12.9L227,141.2z"/>
		<path class="st93" d="M220.1,73l5.2,25.9l18.1-2.9L220.1,73z"/>
		<path class="st94" d="M225.4,98.9l1.7,14.3L243.5,96L225.4,98.9z"/>
		<path class="st95" d="M241.4,142l-20.5,12.9l25.3,3.9L241.4,142z"/>
		<path class="st96" d="M220.9,154.9L240,174l6.2-15.2L220.9,154.9z"/>
		<path class="st97" d="M216,183.7l9.4,14.9L240,174L216,183.7z"/>
		<path class="st98" d="M228,5.8l-11.9,29l20.5,0.6L228,5.8z"/>
		<path class="st99" d="M220.9,154.9l-4.9,28.8l24-9.7L220.9,154.9z"/>
		<path class="st100" d="M230.1-8.7L228,5.8l12.1-3.9L230.1-8.7z"/>
		<path class="st101" d="M185.1,198.6l-30.2,7.7l47-4.3L185.1,198.6z"/>
		<path class="st102" d="M216.1,34.8l19.7,9.2l0.8-8.7L216.1,34.8z"/>
		<path class="st103" d="M216.1,34.8l3.4,21.7L235.8,44L216.1,34.8z"/>
		<path class="st104" d="M193.6,113.4l7.9,30.8l25.5-31L193.6,113.4z"/>
		<path class="st105" d="M227,113.2l-25.5,31l25.5-3L227,113.2z"/>
		<path class="st106" d="M203,5.7l13.1,29.1l11.9-29L203,5.7z"/>
		<path class="st107" d="M203,5.7l25,0.1l2.1-14.5L203,5.7z"/>
		<path class="st108" d="M194.5-8.5L203,5.7l27.1-14.3L194.5-8.5z"/>
		<path class="st109" d="M200.4,173.4l15.6,10.3l4.9-28.8L200.4,173.4z"/>
		<path class="st110" d="M220.1,73l-21.6,19.4l26.8,6.5L220.1,73z"/>
		<path class="st111" d="M225.4,98.9l-31.7,14.5l33.4-0.1L225.4,98.9z"/>
		<path class="st112" d="M201.5,144.2l19.4,10.7l6.2-13.8L201.5,144.2z"/>
		<path class="st113" d="M203,5.7l4.2,29.8l8.8-0.7L203,5.7z"/>
		<path class="st114" d="M216,183.7L202,202l23.4-3.3L216,183.7z"/>
		<path class="st115" d="M198.5,92.4l-4.9,21l31.7-14.5L198.5,92.4z"/>
		<path class="st116" d="M140.3-15.8l23.6-0.3l8.6-2.2L140.3-15.8z"/>
		<path class="st117" d="M216.1,34.8l-8.8,0.7l12.2,21L216.1,34.8z"/>
		<path class="st118" d="M207.3,35.5l-0.7,22.6l12.9-1.6L207.3,35.5z"/>
		<path class="st119" d="M219.5,56.5l-12.9,1.6l13.6,15L219.5,56.5z"/>
		<path class="st120" d="M197.8,69.9l0.7,22.4L220.1,73L197.8,69.9z"/>
		<path class="st121" d="M201.5,144.2l-3.1,7.2l22.5,3.5L201.5,144.2z"/>
		<path class="st122" d="M198.4,151.4l2,22l20.5-18.5L198.4,151.4z"/>
		<path class="st123" d="M206.5,58.1l-8.7,11.9l22.3,3.1L206.5,58.1z"/>
		<path class="st124" d="M200.4,173.4l1.5,28.6l14-18.2L200.4,173.4z"/>
		<path class="st125" d="M198.4,151.4l-10.5,9l12.5,13L198.4,151.4z"/>
		<path class="st126" d="M193.6,113.4l-5.8,28.1l13.6,2.8L193.6,113.4z"/>
		<path class="st127" d="M200.4,173.4l-15.3,25.2l16.8,3.4L200.4,173.4z"/>
		<path class="st128" d="M172.3,12.2l1.5,14.8L203,5.7L172.3,12.2z"/>
		<path class="st129" d="M203,5.7l-29.2,21.3l33.4,8.5L203,5.7z"/>
		<path class="st130" d="M183.7,54.9l22.9,3.2l0.7-22.6L183.7,54.9z"/>
		<path class="st131" d="M173.8,26.9l9.8,27.9l23.6-19.4L173.8,26.9z"/>
		<path class="st132" d="M183.7,54.9l14.2,15.1l8.7-11.9L183.7,54.9z"/>
		<path class="st133" d="M186.5,107.4l7.2,5.9l4.9-21L186.5,107.4z"/>
		<path class="st134" d="M173.1,184.9l11.9,13.8l15.3-25.2L173.1,184.9z"/>
		<path class="st135" d="M194.5-8.5l-22.2,20.7L203,5.7L194.5-8.5z"/>
		<path class="st136" d="M197.8,69.9l-23.3,2l24,20.4L197.8,69.9z"/>
		<path class="st137" d="M187.9,141.4l10.5,10l3.1-7.2L187.9,141.4z"/>
		<path class="st72" d="M187.9,160.4l-14.7,24.5l27.2-11.4L187.9,160.4z"/>
		<path class="st138" d="M174.5,98.3l11.9,9.1l12.1-15.1L174.5,98.3z"/>
		<path class="st139" d="M174.5,72v26.3l24-5.9L174.5,72z"/>
		<path class="st140" d="M187.9,141.4v19l10.5-9L187.9,141.4z"/>
		<path class="st141" d="M183.7,54.9L174.5,72l23.3-2L183.7,54.9z"/>
		<path class="st142" d="M186.5,107.4l-23.4,1.2l24.8,32.9L186.5,107.4z"/>
		<path class="st143" d="M186.5,107.4l1.4,34l5.8-28.1L186.5,107.4z"/>
		<path class="st144" d="M172.4-18.2l-0.1,30.4l22.2-20.7L172.4-18.2z"/>
		<path class="st145" d="M158.8,0l13.5,12.2l0.1-30.4L158.8,0z"/>
		<path class="st146" d="M173.8,26.9l-9.5,26.4l19.4,1.6L173.8,26.9z"/>
		<path class="st147" d="M158.8,144.3l6,8l23-10.9L158.8,144.3z"/>
		<path class="st148" d="M163,108.6l-4.2,35.8l29.1-2.9L163,108.6z"/>
		<path class="st149" d="M187.9,141.4l-23,10.9l23,8.1V141.4z"/>
		<path class="st150" d="M164.9,152.3l8.3,32.6l14.7-24.5L164.9,152.3z"/>
		<path class="st151" d="M109.2,197L93,202l61.9,4.3L109.2,197z"/>
		<path class="st152" d="M174.5,98.3L163,108.6l23.4-1.2L174.5,98.3z"/>
		<path class="st153" d="M173.1,184.9l-18.2,21.4l30.2-7.7L173.1,184.9z"/>
		<path class="st154" d="M163.9-16.1L158.8,0l13.6-18.2L163.9-16.1z"/>
		<path class="st155" d="M159,32.9l5.3,20.4l9.5-26.3L159,32.9z"/>
		<path class="st156" d="M164.3,53.3L174.5,72l9.1-17.1L164.3,53.3z"/>
		<path class="st157" d="M140.1,198l-31-1l45.7,9.3L140.1,198z"/>
		<path class="st158" d="M143.7,134.6l15.2,9.7l4.2-35.8L143.7,134.6z"/>
		<path class="st159" d="M164.9,152.3l-11.5,29.1l19.8,3.5L164.9,152.3z"/>
		<path class="st160" d="M153.4,181.4l1.5,24.9l18.2-21.4L153.4,181.4z"/>
		<path class="st161" d="M172.3,12.2L159,32.9l14.9-5.9L172.3,12.2z"/>
		<path class="st162" d="M164.3,53.3l-5.5,22.9l15.7-4.2L164.3,53.3z"/>
		<path class="st163" d="M155.5,91.8l7.6,16.8l11.5-10.3L155.5,91.8z"/>
		<path class="st164" d="M174.5,72l-15.7,4.2l15.7,22.1V72z"/>
		<path class="st165" d="M158.8,76.2l-3.4,15.6l19.1,6.5L158.8,76.2z"/>
		<path class="st166" d="M158.8,0l0.1,32.9l13.3-20.7L158.8,0z"/>
		<path class="st167" d="M158.8,0l-14.2,1.2L159,32.9L158.8,0z"/>
		<path class="st168" d="M145.2,109.2l-1.5,25.5l19.4-26.1L145.2,109.2z"/>
		<path class="st169" d="M159,32.9l-20.6,12.6l26,7.8L159,32.9z"/>
		<path class="st170" d="M138.3,45.5l20.5,30.7l5.5-22.9L138.3,45.5z"/>
		<path class="st171" d="M158.8,144.3L136.1,162l28.8-9.7L158.8,144.3z"/>
		<path class="st172" d="M136.1,162l17.3,19.4l11.5-29.1L136.1,162z"/>
		<path class="st173" d="M155.5,91.8l-10.2,17.4l17.8-0.6L155.5,91.8z"/>
		<path class="st174" d="M140.3-15.8L158.8,0l5.1-16.1L140.3-15.8z"/>
		<path class="st175" d="M153.4,181.4L140.1,198l14.7,8.2L153.4,181.4z"/>
		<path class="st176" d="M138.3,45.5l-4.1,33.9l24.6-3.2L138.3,45.5z"/>
		<path class="st177" d="M140.3-15.8l4.4,16.9L158.8,0L140.3-15.8z"/>
		<path class="st178" d="M144.7,1.2l-9.1,34.7l23.4-3L144.7,1.2z"/>
		<path class="st179" d="M143.7,134.6l-7.6,27.4l22.7-17.7L143.7,134.6z"/>
		<path class="st180" d="M134.3,79.3l21.2,12.4l3.4-15.6L134.3,79.3z"/>
		<path class="st181" d="M135.5,35.9l2.8,9.5L159,32.9L135.5,35.9z"/>
		<path class="st182" d="M136.1,162l-2.2,14.3l19.5,5.1L136.1,162z"/>
		<path class="st183" d="M132.9,94.5l12.4,14.6l10.2-17.4L132.9,94.5z"/>
		<path class="st184" d="M134.3,79.3l-1.4,15.2l22.6-2.8L134.3,79.3z"/>
		<path class="st185" d="M133.8,176.3l6.3,21.7l13.2-16.6L133.8,176.3z"/>
		<path class="st186" d="M121.8,1.6l0.6,34.6l13.2-0.3L121.8,1.6z"/>
		<path class="st187" d="M114.8,52.3l19.5,27.1l4.1-33.9L114.8,52.3z"/>
		<path class="st188" d="M133.8,176.3L123.5,187l16.7,11L133.8,176.3z"/>
		<path class="st189" d="M115,115.8l5.6,20.1l23-1.3L115,115.8z"/>
		<path class="st190" d="M120.7,135.9l15.4,26.1l7.6-27.4L120.7,135.9z"/>
		<path class="st191" d="M140.3-15.8L121.8,1.6l22.9-0.4L140.3-15.8z"/>
		<path class="st192" d="M121.8,1.6l13.8,34.3l9.1-34.7L121.8,1.6z"/>
		<path class="st193" d="M115,115.8l28.6,18.8l1.5-25.5L115,115.8z"/>
		<path class="st194" d="M132.9,94.5l-17.8,21.3l30.2-6.7L132.9,94.5z"/>
		<path class="st195" d="M76.3,198l-15.6-0.1L93,202L76.3,198z"/>
		<path class="st196" d="M120.7,135.9l-4.9,22.3l20.3,3.8L120.7,135.9z"/>
		<path class="st197" d="M123.5,187l-14.3,10l31,1L123.5,187z"/>
		<path class="st198" d="M110.2-20l11.6,21.6l18.5-17.4L110.2-20z"/>
		<path class="st199" d="M114.8,52.3l-3.9,27.2l23.4-0.1L114.8,52.3z"/>
		<path class="st200" d="M135.5,35.9l-13.2,0.3l16,9.3L135.5,35.9z"/>
		<path class="st201" d="M122.3,36.2l-7.6,16.1l23.6-6.8L122.3,36.2z"/>
		<path class="st202" d="M115.8,158.2l18.1,18.1l2.2-14.3L115.8,158.2z"/>
		<path class="st203" d="M109.4,86.2l23.4,8.4l1.4-15.2L109.4,86.2z"/>
		<path class="st204" d="M110.8,79.5l-1.4,6.7l24.8-6.8L110.8,79.5z"/>
		<path class="st205" d="M115.8,158.2l7.7,28.8l10.4-10.7L115.8,158.2z"/>
		<path class="st206" d="M109.4,86.2l-7.3,15.1l12.9,14.6L109.4,86.2z"/>
		<path class="st207" d="M121.8,1.6l-20.5,29.5l21.1,5.1L121.8,1.6z"/>
		<path class="st208" d="M109.4,86.2l5.6,29.7l17.8-21.3L109.4,86.2z"/>
		<path class="st209" d="M99.6,134.2l16.1,24l4.9-22.3L99.6,134.2z"/>
		<path class="st210" d="M110.2-20L98.9,2.6l22.9-1L110.2-20z"/>
		<path class="st211" d="M98.9,2.6l2.4,28.5l20.5-29.5L98.9,2.6z"/>
		<path class="st212" d="M115.8,158.2l-27.2,21.4l34.9,7.3L115.8,158.2z"/>
		<path class="st213" d="M88.5,179.7l20.6,17.3l14.3-10L88.5,179.7z"/>
		<path class="st214" d="M115,115.8l-15.4,18.4l21,1.7L115,115.8z"/>
		<path class="st215" d="M101.3,31.1l13.5,21.1l7.6-16.1L101.3,31.1z"/>
		<path class="st216" d="M95.4-9.2l3.5,11.9L110.2-20L95.4-9.2z"/>
		<path class="st217" d="M92.2,52.7l-4.1,23.2l22.7,3.6L92.2,52.7z"/>
		<path class="st218" d="M92.2,52.7l18.7,26.8l3.9-27.2L92.2,52.7z"/>
		<path class="st219" d="M101.3,31.1l-9.1,21.6l22.6-0.4L101.3,31.1z"/>
		<path class="st220" d="M94.3,109.6l5.3,24.6l15.4-18.4L94.3,109.6z"/>
		<path class="st221" d="M99.6,134.2L88.5,160l27.2-1.7L99.6,134.2z"/>
		<path class="st222" d="M88.5,160v19.7l27.2-21.4L88.5,160z"/>
		<path class="st223" d="M102.2,101.2l-7.9,8.4l20.8,6.2L102.2,101.2z"/>
		<path class="st224" d="M88.5,179.7L93,202l16.1-5L88.5,179.7z"/>
		<path class="st225" d="M80.9-22L95.4-9.2L110.2-20L80.9-22z"/>
		<path class="st226" d="M88.1,75.9l21.3,10.3l1.4-6.7L88.1,75.9z"/>
		<path class="st227" d="M98.9,2.6l-16.4,7.7l18.8,20.9L98.9,2.6z"/>
		<path class="st228" d="M88.1,75.9l14,25.3l7.3-15.1L88.1,75.9z"/>
		<path class="st229" d="M81.6,158.8l6.9,1.2l11.1-25.8L81.6,158.8z"/>
		<path class="st230" d="M71.4,142.3l10.2,16.5l18-24.6L71.4,142.3z"/>
		<path class="st231" d="M94.3,109.6l-13.1,6.8l18.4,17.8L94.3,109.6z"/>
		<path class="st232" d="M73.9,27.5l18.2,25.2l9.1-21.6L73.9,27.5z"/>
		<path class="st233" d="M82.5,10.3l-8.6,17.2l27.4,3.6L82.5,10.3z"/>
		<path class="st234" d="M73.6,93.4l20.6,16.2l7.9-8.4L73.6,93.4z"/>
		<path class="st235" d="M88.1,75.9L73.6,93.4l28.5,7.8L88.1,75.9z"/>
		<path class="st236" d="M81.2,116.4l-9.8,25.9l28.2-8.1L81.2,116.4z"/>
		<path class="st237" d="M73.9,27.5L76,52.7h16.1L73.9,27.5z"/>
		<path class="st238" d="M95.4-9.2L82.5,10.3l16.4-7.7L95.4-9.2z"/>
		<path class="st239" d="M76,52.7l12.1,23.2l4.1-23.2H76z"/>
		<path class="st240" d="M88.5,179.7L76.3,198l16.7,4L88.5,179.7z"/>
		<path class="st241" d="M73.6,93.4l7.6,23l13.1-6.8L73.6,93.4z"/>
		<path class="st242" d="M80.9-22l1.5,32.3L95.4-9.2L80.9-22z"/>
		<path class="st243" d="M88.5,160l-6.9-1.2l6.9,20.9V160z"/>
		<path class="st244" d="M11.3-18.1L40.1-14l21.6-7.5L11.3-18.1z"/>
		<path class="st245" d="M80.9-22l-19.2,0.4l20.8,31.8L80.9-22z"/>
		<path class="st239" d="M76,52.7l-6.9,23l18.9,0.1L76,52.7z"/>
		<path class="st246" d="M69.2,75.7l4.5,17.7l14.5-17.5L69.2,75.7z"/>
		<path class="st247" d="M81.6,158.8l-9.8,22l16.7-1.2L81.6,158.8z"/>
		<path class="st248" d="M71.8,180.8l4.5,17.2l12.2-18.4L71.8,180.8z"/>
		<path class="st249" d="M46.7,120.5l24.7,21.9l9.8-25.9L46.7,120.5z"/>
		<path class="st250" d="M55.2,157.7l16.7,23.2l9.8-22L55.2,157.7z"/>
		<path class="st251" d="M51.9,7l22,20.6l8.6-17.2L51.9,7z"/>
		<path class="st252" d="M61.7-21.6L51.9,7l30.6,3.3L61.7-21.6z"/>
		<path class="st253" d="M73.6,93.4l-26.9,27.1l34.5-4.1L73.6,93.4z"/>
		<path class="st254" d="M71.4,142.3l-16.2,15.3l26.5,1.2L71.4,142.3z"/>
		<path class="st255" d="M47.7,96.6l-1,23.9l27-27.1L47.7,96.6z"/>
		<path class="st256" d="M73.9,27.5L58.5,54L76,52.7L73.9,27.5z"/>
		<path class="st257" d="M52.7,24.5L58.5,54l15.4-26.5L52.7,24.5z"/>
		<path class="st258" d="M51.9,7l0.8,17.5l21.2,3L51.9,7z"/>
		<path class="st259" d="M58.5,54l10.7,21.7l6.9-23L58.5,54z"/>
		<path class="st260" d="M71.8,180.8l-11.1,6.1L76.3,198L71.8,180.8z"/>
		<path class="st261" d="M60.7,186.9v11l15.6,0.1L60.7,186.9z"/>
		<path class="st262" d="M46.7,120.5l3.2,24.2l21.5-2.3L46.7,120.5z"/>
		<path class="st263" d="M55.2,157.7l5.6,29.2l11.1-6.1L55.2,157.7z"/>
		<path class="st264" d="M69.2,75.7L47.7,96.6l26-3.2L69.2,75.7z"/>
		<path class="st265" d="M58.5,54L47,65.7l22.2,10L58.5,54z"/>
		<path class="st266" d="M49.9,144.6l5.2,13l16.3-15.4L49.9,144.6z"/>
		<path class="st267" d="M47,65.7l0.7,30.8l21.5-20.9L47,65.7z"/>
		<path class="st268" d="M15,196.5l-18.4,5.8l33.6-4.8L15,196.5z"/>
		<path class="st269" d="M47,65.7L36.6,78.6l11.1,18L47,65.7z"/>
		<path class="st270" d="M40.5,25.9l-6.9,18l19.1-19.4L40.5,25.9z"/>
		<path class="st271" d="M52.7,24.5L33.6,43.9L58.5,54L52.7,24.5z"/>
		<path class="st272" d="M35,183.9l25.7,14v-11L35,183.9z"/>
		<path class="st273" d="M55.2,157.7l-20.1,26.2l25.7,3L55.2,157.7z"/>
		<path class="st274" d="M40.1-14L51.9,7l9.8-28.5L40.1-14z"/>
		<path class="st275" d="M35,183.9l-4.9,13.6l30.6,0.4L35,183.9z"/>
		<path class="st276" d="M36.6,152.9l-1.5,31l20.1-26.2L36.6,152.9z"/>
		<path class="st277" d="M33.6,43.9L47,65.7L58.5,54L33.6,43.9z"/>
		<path class="st278" d="M32.5,115.7l14.2,4.8l1-23.9L32.5,115.7z"/>
		<path class="st279" d="M46.7,120.5l-10.5,22.4l13.8,1.7L46.7,120.5z"/>
		<path class="st280" d="M51.9,7L40,13.5l12.8,11L51.9,7z"/>
		<path class="st281" d="M49.9,144.6l-13.3,8.2l18.6,4.8L49.9,144.6z"/>
		<path class="st282" d="M40.1-14L40,13.5L51.9,7L40.1-14z"/>
		<path class="st283" d="M40,13.5l0.6,12.4l12.2-1.5L40,13.5z"/>
		<path class="st284" d="M36.6,78.6l-6.4,16.1l17.5,1.9L36.6,78.6z"/>
		<path class="st285" d="M30.1,94.7l2.4,21l15.1-19.1L30.1,94.7z"/>
		<path class="st286" d="M36.2,142.9l0.4,10l13.3-8.2L36.2,142.9z"/>
		<path class="st287" d="M32.5,115.7l3.6,27.2l10.5-22.4L32.5,115.7z"/>
		<path class="st288" d="M19.5,178.2l15.6,5.6l1.5-31L19.5,178.2z"/>
		<path class="st289" d="M33.6,43.9l3,34.7L47,65.7L33.6,43.9z"/>
		<path class="st290" d="M32.5,115.7l-14,22.7l17.6,4.5L32.5,115.7z"/>
		<path class="st291" d="M33.6,43.9l-28.8,12l31.7,22.7L33.6,43.9z"/>
		<path class="st292" d="M4.9,55.9l1.7,17.7l30,5.1L4.9,55.9z"/>
		<path class="st293" d="M13.7,161.4l5.8,16.8l17.1-25.3L13.7,161.4z"/>
		<path class="st294" d="M12.1,3L4.4,21.9L40,13.5L12.1,3z"/>
		<path class="st295" d="M12.1,3L40,13.5L40.1-14L12.1,3z"/>
		<path class="st296" d="M11.3-18.1L12.1,3l27.9-17L11.3-18.1z"/>
		<path class="st297" d="M40,13.5L4.4,21.9l36.1,4L40,13.5z"/>
		<path class="st280" d="M4.4,21.9l29.2,22l6.9-18L4.4,21.9z"/>
		<path class="st298" d="M30.1,94.7l-18.3,14.8l20.6,6.2L30.1,94.7z"/>
		<path class="st299" d="M6.5,73.6l23.6,21.1l6.5-16.1L6.5,73.6z"/>
		<path class="st300" d="M36.2,142.9l-17.7-4.5l18.1,14.5L36.2,142.9z"/>
		<path class="st301" d="M18.5,138.4l-4.8,23l22.9-8.5L18.5,138.4z"/>
		<path class="st302" d="M19.5,178.2l10.7,19.2l4.9-13.6L19.5,178.2z"/>
		<path class="st303" d="M19.5,178.2L15,196.5l15.2,1L19.5,178.2z"/>
		<path class="st304" d="M6.5,73.6L5.8,93l24.3,1.7L6.5,73.6z"/>
		<path class="st305" d="M11.9,109.5l6.6,29l14-22.7L11.9,109.5z"/>
		<path class="st306" d="M4.4,21.9l0.4,34l28.8-12L4.4,21.9z"/>
		<path class="st307" d="M5.8,93l6,16.5l18.3-14.8L5.8,93z"/>
		<path class="st308" d="M-2.6,159l16.3,2.5l4.8-23L-2.6,159z"/>
		<path class="st309" d="M-7.3,135.2l4.8,23.8l21-20.6L-7.3,135.2z"/>
		<path class="st310" d="M11.9,109.5l-14.9,12l21.5,16.9L11.9,109.5z"/>
		<path class="st311" d="M-3,121.5l-4.3,13.7l25.8,3.2L-3,121.5z"/>
		<path class="st312" d="M-1.7,185.5l16.7,11l4.5-18.2L-1.7,185.5z"/>
		<path class="st313" d="M13.7,161.4l-15.4,24l21.2-7.2L13.7,161.4z"/>
		<path class="st314" d="M11.3-18.1l-14.9-1.2L12.1,3L11.3-18.1z"/>
		<path class="st315" d="M-3.6-19.2L-9.2,0.3L12.1,3L-3.6-19.2z"/>
		<path class="st316" d="M-2.6,159l0.8,26.5l15.4-24L-2.6,159z"/>
		<path class="st317" d="M-1.7,185.5l-1.7,16.8l18.4-5.8L-1.7,185.5z"/>
		<path class="st318" d="M4.4,21.9l-16.1-0.4L4.9,55.9L4.4,21.9z"/>
		<path class="st319" d="M-11.7,21.4l-3.6,33l20.2,1.4L-11.7,21.4z"/>
		<path class="st320" d="M-3.9,86.9L5.8,93l0.7-19.4L-3.9,86.9z"/>
		<path class="st321" d="M5.8,93L-3,121.5l14.9-12L5.8,93z"/>
		<path class="st322" d="M-9.2,0.3L4.4,21.9L12.1,3L-9.2,0.3z"/>
		<path class="st323" d="M-9.2,0.3l-2.5,21.1l16.1,0.4L-9.2,0.3z"/>
		<path class="st324" d="M-15.3,54.4l-0.3,15.8L4.9,55.9L-15.3,54.4z"/>
		<path class="st325" d="M-3.9,86.9l0.8,34.6L5.8,93L-3.9,86.9z"/>
		<path class="st326" d="M4.9,55.9l-20.5,14.3l22.2,3.3L4.9,55.9z"/>
		<path class="st327" d="M-15.6,70.2l11.8,16.7L6.5,73.6L-15.6,70.2z"/>
		<path class="st328" d="M-3.9,86.9l-11.8-16.7L-3,121.5L-3.9,86.9z"/>
		<path class="st329" d="M-2.6,159l-4.8-23.7l5.6,50.2L-2.6,159z"/>
		<path class="st330" d="M-7.3,135.2l3.9,67l1.7-16.8L-7.3,135.2z"/>
		<path class="st331" d="M-15.6,70.2l8.3,65l4.3-13.7L-15.6,70.2z"/>
		<path class="st332" d="M-7.3,135.2l-8.3-65l12.2,132L-7.3,135.2z"/>
	</g>
</g>
<path class="st346" d="M173.8,26.5c1.3-1.8,2-4.1,1.9-6.4c0.1-2.6-1.2-5-3.3-6.5L173.8,26.5z"/>
<path class="st347" d="M176.5,34.5l0.5,1.4C176.9,35.5,176.7,35,176.5,34.5z"/>
<path class="st348" d="M177.5,39.8c0-1.3-0.1-2.6-0.5-3.9l-0.5-1.4c-0.8-1.8-2.2-3.3-3.9-4.2l-6.9,19.2
	C167.2,49.4,177.3,48.8,177.5,39.8z"/>
<path class="st349" d="M163.3,49.5h2.4l6.9-19.2c-0.9-0.5-1.9-0.8-2.9-1c1.3-0.4,2.5-1.1,3.4-2.1L159,32.9L163.3,49.5z"/>
<path class="st350" d="M171.7,13.1L159,32.9l14.2-5.6c0.2-0.2,0.5-0.5,0.7-0.8l-1.4-12.9C172.2,13.4,172,13.2,171.7,13.1z"/>
<path class="st351" d="M171.7,13.1c-1.5-0.8-3.1-1.4-4.7-1.6h-8.1l0.1,21.4L171.7,13.1z"/>
<polygon class="st352" points="158.9,11.5 149.3,11.5 159,32.9 "/>
<polygon class="st353" points="142.5,42.9 142.5,46.7 151.7,49.5 163.3,49.5 159,32.9 "/>
<polygon class="st354" points="142.5,49.5 151.7,49.5 142.5,46.7 "/>
<polygon class="st355" points="149.3,11.5 142.5,11.5 142.5,35 159,32.9 "/>
<polygon class="st356" points="142.5,35 142.5,42.9 159,32.9 "/>
</svg>
