<?xml version="1.0" encoding="utf-8"?>
<!-- Generator: Adobe Illustrator 20.1.0, SVG Export Plug-In . SVG Version: 6.00 Build 0)  -->
<svg version="1.1" id="Calque_1" xmlns="http://www.w3.org/2000/svg" xmlns:xlink="http://www.w3.org/1999/xlink" x="0px" y="0px"
	 viewBox="0 0 1658 61.5" style="enable-background:new 0 0 1658 61.5;" xml:space="preserve">
<style type="text/css">
	.st0{fill:#697B92;stroke:#697B92;stroke-width:1.51;}
	.st1{fill:#B9E1C8;stroke:#B9E1C8;stroke-width:1.51;}
	.st2{fill:#A6CFCA;stroke:#A6CFCA;stroke-width:1.51;}
	.st3{fill:#1B4088;stroke:#1B4088;stroke-width:1.51;}
	.st4{fill:#1E4F8E;stroke:#1E4F8E;stroke-width:1.51;}
	.st5{fill:#968FA9;stroke:#968FA9;stroke-width:1.51;}
	.st6{fill:#918B9E;stroke:#918B9E;stroke-width:1.51;}
	.st7{fill:#326995;stroke:#326995;stroke-width:1.51;}
	.st8{fill:#527596;stroke:#527596;stroke-width:1.51;}
	.st9{fill:#162772;stroke:#162772;stroke-width:1.51;}
	.st10{fill:#1F3789;stroke:#1F3789;stroke-width:1.51;}
	.st11{fill:#1B3E87;stroke:#1B3E87;stroke-width:1.51;}
	.st12{fill:#1C488B;stroke:#1C488B;stroke-width:1.51;}
	.st13{fill:#838492;stroke:#838492;stroke-width:1.51;}
	.st14{fill:#8A8793;stroke:#8A8793;stroke-width:1.51;}
	.st15{fill:#777F8B;stroke:#777F8B;stroke-width:1.51;}
	.st16{fill:#66798D;stroke:#66798D;stroke-width:1.51;}
	.st17{fill:#4D718E;stroke:#4D718E;stroke-width:1.51;}
	.st18{fill:#2C6391;stroke:#2C6391;stroke-width:1.51;}
	.st19{fill:#162875;stroke:#162875;stroke-width:1.51;}
	.st20{fill:#245C99;stroke:#245C99;stroke-width:1.51;}
	.st21{fill:#5F7A9D;stroke:#5F7A9D;stroke-width:1.51;}
	.st22{fill:#858799;stroke:#858799;stroke-width:1.51;}
	.st23{fill:#798193;stroke:#798193;stroke-width:1.51;}
	.st24{fill:#9EB2BF;stroke:#9EB2BF;stroke-width:1.51;}
	.st25{fill:#224193;stroke:#224193;stroke-width:1.51;}
	.st26{fill:#1E2D83;stroke:#1E2D83;stroke-width:1.51;}
	.st27{fill:#33699B;stroke:#33699B;stroke-width:1.51;}
	.st28{fill:#3066A0;stroke:#3066A0;stroke-width:1.51;}
	.st29{fill:#72819B;stroke:#72819B;stroke-width:1.51;}
	.st30{fill:#44709A;stroke:#44709A;stroke-width:1.51;}
	.st31{fill:#7F8394;stroke:#7F8394;stroke-width:1.51;}
	.st32{fill:#9CA2B8;stroke:#9CA2B8;stroke-width:1.51;}
	.st33{fill:#4171A1;stroke:#4171A1;stroke-width:1.51;}
	.st34{fill:#214D94;stroke:#214D94;stroke-width:1.51;}
	.st35{fill:#26579E;stroke:#26579E;stroke-width:1.51;}
	.st36{fill:#224A96;stroke:#224A96;stroke-width:1.51;}
	.st37{fill:#AFDBC9;stroke:#AFDBC9;stroke-width:1.51;}
	.st38{fill:#7A87A7;stroke:#7A87A7;stroke-width:1.51;}
	.st39{fill:#858EA8;stroke:#858EA8;stroke-width:1.51;}
	.st40{fill:#958FA3;stroke:#958FA3;stroke-width:1.51;}
	.st41{fill:#1F2E86;stroke:#1F2E86;stroke-width:1.51;}
	.st42{fill:#A0BFC2;stroke:#A0BFC2;stroke-width:1.51;}
	.st43{fill:#253693;stroke:#253693;stroke-width:1.51;}
	.st44{fill:#336BAD;stroke:#336BAD;stroke-width:1.51;}
	.st45{fill:#386DAC;stroke:#386DAC;stroke-width:1.51;}
	.st46{fill:#4678AD;stroke:#4678AD;stroke-width:1.51;}
	.st47{fill:#26409A;stroke:#26409A;stroke-width:1.51;}
	.st48{fill:#26459C;stroke:#26459C;stroke-width:1.51;}
	.st49{fill:#5078A9;stroke:#5078A9;stroke-width:1.51;}
	.st50{fill:#5C7DA9;stroke:#5C7DA9;stroke-width:1.51;}
	.st51{fill:#8B8CA6;stroke:#8B8CA6;stroke-width:1.51;}
	.st52{fill:#9993AD;stroke:#9993AD;stroke-width:1.51;}
	.st53{fill:#8F8FA7;stroke:#8F8FA7;stroke-width:1.51;}
	.st54{fill:#2855A4;stroke:#2855A4;stroke-width:1.51;}
	.st55{fill:#2B5DA8;stroke:#2B5DA8;stroke-width:1.51;}
	.st56{fill:#264B9F;stroke:#264B9F;stroke-width:1.51;}
	.st57{fill:#6985AA;stroke:#6985AA;stroke-width:1.51;}
	.st58{fill:#2C65AB;stroke:#2C65AB;stroke-width:1.51;}
	.st59{fill:#2455A4;stroke:#2455A4;stroke-width:1.51;}
	.st60{fill:#4E80AE;stroke:#4E80AE;stroke-width:1.51;}
	.st61{fill:#20398D;stroke:#20398D;stroke-width:1.51;}
	.st62{fill:#26439B;stroke:#26439B;stroke-width:1.51;}
	.st63{fill:#2659A6;stroke:#2659A6;stroke-width:1.51;}
	.st64{fill:#9A99B2;stroke:#9A99B2;stroke-width:1.51;}
	.st65{fill:#999CAF;stroke:#999CAF;stroke-width:1.51;}
	.st66{fill:#9297AA;stroke:#9297AA;stroke-width:1.51;}
	.st67{fill:#1F488F;stroke:#1F488F;stroke-width:1.51;}
	.st68{fill:#6288AC;stroke:#6288AC;stroke-width:1.51;}
	.st69{fill:#3371AF;stroke:#3371AF;stroke-width:1.51;}
	.st70{fill:#4281B1;stroke:#4281B1;stroke-width:1.51;}
	.st71{fill:#2C6BAE;stroke:#2C6BAE;stroke-width:1.51;}
	.st72{fill:#2868AD;stroke:#2868AD;stroke-width:1.51;}
	.st73{fill:#3679B1;stroke:#3679B1;stroke-width:1.51;}
	.st74{fill:#26479D;stroke:#26479D;stroke-width:1.51;}
	.st75{fill:#6C90AE;stroke:#6C90AE;stroke-width:1.51;}
	.st76{fill:#8C9CAD;stroke:#8C9CAD;stroke-width:1.51;}
	.st77{fill:#264EA0;stroke:#264EA0;stroke-width:1.51;}
	.st78{fill:#8194AC;stroke:#8194AC;stroke-width:1.51;}
	.st79{fill:#7C98AE;stroke:#7C98AE;stroke-width:1.51;}
	.st80{fill:#898795;stroke:#898795;stroke-width:1.51;}
	.st81{fill:#F4FBC1;stroke:#F4FBC1;stroke-width:1.51;}
	.st82{fill:#91A4AF;stroke:#91A4AF;stroke-width:1.51;}
	.st83{fill:#6595B2;stroke:#6595B2;stroke-width:1.51;}
	.st84{fill:#5894B4;stroke:#5894B4;stroke-width:1.51;}
	.st85{fill:#4A8BB4;stroke:#4A8BB4;stroke-width:1.51;}
	.st86{fill:#307CB3;stroke:#307CB3;stroke-width:1.51;}
	.st87{fill:#2573B3;stroke:#2573B3;stroke-width:1.51;}
	.st88{fill:#2470B1;stroke:#2470B1;stroke-width:1.51;}
	.st89{fill:#9BA4B5;stroke:#9BA4B5;stroke-width:1.51;}
	.st90{fill:#214595;stroke:#214595;stroke-width:1.51;}
	.st91{fill:#2366AC;stroke:#2366AC;stroke-width:1.51;}
	.st92{fill:#3E8CB7;stroke:#3E8CB7;stroke-width:1.51;}
	.st93{fill:#3284B6;stroke:#3284B6;stroke-width:1.51;}
	.st94{fill:#235DA7;stroke:#235DA7;stroke-width:1.51;}
	.st95{fill:#2456A5;stroke:#2456A5;stroke-width:1.51;}
	.st96{fill:#264C9D;stroke:#264C9D;stroke-width:1.51;}
	.st97{fill:#8AA6B1;stroke:#8AA6B1;stroke-width:1.51;}
	.st98{fill:#2656A4;stroke:#2656A4;stroke-width:1.51;}
	.st99{fill:#99A7B2;stroke:#99A7B2;stroke-width:1.51;}
	.st100{fill:#265D96;stroke:#265D96;stroke-width:1.51;}
	.st101{fill:#7FA1B1;stroke:#7FA1B1;stroke-width:1.51;}
	.st102{fill:#76A2B3;stroke:#76A2B3;stroke-width:1.51;}
	.st103{fill:#2187BC;stroke:#2187BC;stroke-width:1.51;}
	.st104{fill:#2378B5;stroke:#2378B5;stroke-width:1.51;}
	.st105{fill:#93B0B4;stroke:#93B0B4;stroke-width:1.51;}
	.st106{fill:#9AB0B4;stroke:#9AB0B4;stroke-width:1.51;}
	.st107{fill:#9DB7BB;stroke:#9DB7BB;stroke-width:1.51;}
	.st108{fill:#285EA8;stroke:#285EA8;stroke-width:1.51;}
	.st109{fill:#3E96BA;stroke:#3E96BA;stroke-width:1.51;}
	.st110{fill:#2D8BBA;stroke:#2D8BBA;stroke-width:1.51;}
	.st111{fill:#236DAF;stroke:#236DAF;stroke-width:1.51;}
	.st112{fill:#8CB2B6;stroke:#8CB2B6;stroke-width:1.51;}
	.st113{fill:#234F97;stroke:#234F97;stroke-width:1.51;}
	.st114{fill:#3095BD;stroke:#3095BD;stroke-width:1.51;}
	.st115{fill:#A9D4C9;stroke:#A9D4C9;stroke-width:1.51;}
	.st116{fill:#7BA8B6;stroke:#7BA8B6;stroke-width:1.51;}
	.st117{fill:#70A7B7;stroke:#70A7B7;stroke-width:1.51;}
	.st118{fill:#5D9FB7;stroke:#5D9FB7;stroke-width:1.51;}
	.st119{fill:#4BA0BC;stroke:#4BA0BC;stroke-width:1.51;}
	.st120{fill:#2370B1;stroke:#2370B1;stroke-width:1.51;}
	.st121{fill:#2569AE;stroke:#2569AE;stroke-width:1.51;}
	.st122{fill:#58A2BA;stroke:#58A2BA;stroke-width:1.51;}
	.st123{fill:#2858A2;stroke:#2858A2;stroke-width:1.51;}
	.st124{fill:#266EB0;stroke:#266EB0;stroke-width:1.51;}
	.st125{fill:#2187BB;stroke:#2187BB;stroke-width:1.51;}
	.st126{fill:#275CA0;stroke:#275CA0;stroke-width:1.51;}
	.st127{fill:#96C4BB;stroke:#96C4BB;stroke-width:1.51;}
	.st128{fill:#8FBCBA;stroke:#8FBCBA;stroke-width:1.51;}
	.st129{fill:#71AFBA;stroke:#71AFBA;stroke-width:1.51;}
	.st130{fill:#81BABC;stroke:#81BABC;stroke-width:1.51;}
	.st131{fill:#60ADBC;stroke:#60ADBC;stroke-width:1.51;}
	.st132{fill:#2D9BC1;stroke:#2D9BC1;stroke-width:1.51;}
	.st133{fill:#2D63A8;stroke:#2D63A8;stroke-width:1.51;}
	.st134{fill:#9DC3BB;stroke:#9DC3BB;stroke-width:1.51;}
	.st135{fill:#4BA9C0;stroke:#4BA9C0;stroke-width:1.51;}
	.st136{fill:#227BB6;stroke:#227BB6;stroke-width:1.51;}
	.st137{fill:#31A2C2;stroke:#31A2C2;stroke-width:1.51;}
	.st138{fill:#40A9C2;stroke:#40A9C2;stroke-width:1.51;}
	.st139{fill:#2379B5;stroke:#2379B5;stroke-width:1.51;}
	.st140{fill:#5AB0BF;stroke:#5AB0BF;stroke-width:1.51;}
	.st141{fill:#2898C1;stroke:#2898C1;stroke-width:1.51;}
	.st142{fill:#2193C0;stroke:#2193C0;stroke-width:1.51;}
	.st143{fill:#A2C9C0;stroke:#A2C9C0;stroke-width:1.51;}
	.st144{fill:#A3CEBF;stroke:#A3CEBF;stroke-width:1.51;}
	.st145{fill:#7BBFBD;stroke:#7BBFBD;stroke-width:1.51;}
	.st146{fill:#2D86B8;stroke:#2D86B8;stroke-width:1.51;}
	.st147{fill:#2B93BE;stroke:#2B93BE;stroke-width:1.51;}
	.st148{fill:#297DB6;stroke:#297DB6;stroke-width:1.51;}
	.st149{fill:#3075B1;stroke:#3075B1;stroke-width:1.51;}
	.st150{fill:#4B7296;stroke:#4B7296;stroke-width:1.51;}
	.st151{fill:#33A3C3;stroke:#33A3C3;stroke-width:1.51;}
	.st152{fill:#2E649D;stroke:#2E649D;stroke-width:1.51;}
	.st153{fill:#A6D1C5;stroke:#A6D1C5;stroke-width:1.51;}
	.st154{fill:#87C5BC;stroke:#87C5BC;stroke-width:1.51;}
	.st155{fill:#65B8BE;stroke:#65B8BE;stroke-width:1.51;}
	.st156{fill:#406F99;stroke:#406F99;stroke-width:1.51;}
	.st157{fill:#319BBF;stroke:#319BBF;stroke-width:1.51;}
	.st158{fill:#3775AF;stroke:#3775AF;stroke-width:1.51;}
	.st159{fill:#366BA4;stroke:#366BA4;stroke-width:1.51;}
	.st160{fill:#93C9BC;stroke:#93C9BC;stroke-width:1.51;}
	.st161{fill:#5EB8BF;stroke:#5EB8BF;stroke-width:1.51;}
	.st162{fill:#3AABC3;stroke:#3AABC3;stroke-width:1.51;}
	.st163{fill:#4BB1C2;stroke:#4BB1C2;stroke-width:1.51;}
	.st164{fill:#44B1C3;stroke:#44B1C3;stroke-width:1.51;}
	.st165{fill:#9ACDBC;stroke:#9ACDBC;stroke-width:1.51;}
	.st166{fill:#9FD2BC;stroke:#9FD2BC;stroke-width:1.51;}
	.st167{fill:#35A6C3;stroke:#35A6C3;stroke-width:1.51;}
	.st168{fill:#81C8BE;stroke:#81C8BE;stroke-width:1.51;}
	.st169{fill:#6CC1BF;stroke:#6CC1BF;stroke-width:1.51;}
	.st170{fill:#3588B6;stroke:#3588B6;stroke-width:1.51;}
	.st171{fill:#3A80B2;stroke:#3A80B2;stroke-width:1.51;}
	.st172{fill:#3BADC3;stroke:#3BADC3;stroke-width:1.51;}
	.st173{fill:#A8D6C5;stroke:#A8D6C5;stroke-width:1.51;}
	.st174{fill:#386E9F;stroke:#386E9F;stroke-width:1.51;}
	.st175{fill:#65C2C0;stroke:#65C2C0;stroke-width:1.51;}
	.st176{fill:#A9D8C1;stroke:#A9D8C1;stroke-width:1.51;}
	.st177{fill:#99D2BC;stroke:#99D2BC;stroke-width:1.51;}
	.st178{fill:#3A8FB8;stroke:#3A8FB8;stroke-width:1.51;}
	.st179{fill:#50BAC3;stroke:#50BAC3;stroke-width:1.51;}
	.st180{fill:#8DCEBC;stroke:#8DCEBC;stroke-width:1.51;}
	.st181{fill:#447CAF;stroke:#447CAF;stroke-width:1.51;}
	.st182{fill:#43B4C3;stroke:#43B4C3;stroke-width:1.51;}
	.st183{fill:#50BAC2;stroke:#50BAC2;stroke-width:1.51;}
	.st184{fill:#4374AA;stroke:#4374AA;stroke-width:1.51;}
	.st185{fill:#A2D8B9;stroke:#A2D8B9;stroke-width:1.51;}
	.st186{fill:#78C9BD;stroke:#78C9BD;stroke-width:1.51;}
	.st187{fill:#4976A7;stroke:#4976A7;stroke-width:1.51;}
	.st188{fill:#4BA4BE;stroke:#4BA4BE;stroke-width:1.51;}
	.st189{fill:#4695B8;stroke:#4695B8;stroke-width:1.51;}
	.st190{fill:#AEDBBF;stroke:#AEDBBF;stroke-width:1.51;}
	.st191{fill:#A7D9BA;stroke:#A7D9BA;stroke-width:1.51;}
	.st192{fill:#44A9C1;stroke:#44A9C1;stroke-width:1.51;}
	.st193{fill:#4DB3C1;stroke:#4DB3C1;stroke-width:1.51;}
	.st194{fill:#6F7E96;stroke:#6F7E96;stroke-width:1.51;}
	.st195{fill:#4E90B5;stroke:#4E90B5;stroke-width:1.51;}
	.st196{fill:#4C749F;stroke:#4C749F;stroke-width:1.51;}
	.st197{fill:#B6DFC3;stroke:#B6DFC3;stroke-width:1.51;}
	.st198{fill:#72C7BE;stroke:#72C7BE;stroke-width:1.51;}
	.st199{fill:#92D1BB;stroke:#92D1BB;stroke-width:1.51;}
	.st200{fill:#8ED1BB;stroke:#8ED1BB;stroke-width:1.51;}
	.st201{fill:#4D85B1;stroke:#4D85B1;stroke-width:1.51;}
	.st202{fill:#5DBFC1;stroke:#5DBFC1;stroke-width:1.51;}
	.st203{fill:#68C3BF;stroke:#68C3BF;stroke-width:1.51;}
	.st204{fill:#5180AD;stroke:#5180AD;stroke-width:1.51;}
	.st205{fill:#60BCC0;stroke:#60BCC0;stroke-width:1.51;}
	.st206{fill:#A9DBB8;stroke:#A9DBB8;stroke-width:1.51;}
	.st207{fill:#59BAC1;stroke:#59BAC1;stroke-width:1.51;}
	.st208{fill:#579CB7;stroke:#579CB7;stroke-width:1.51;}
	.st209{fill:#BBE2BD;stroke:#BBE2BD;stroke-width:1.51;}
	.st210{fill:#B4E0B7;stroke:#B4E0B7;stroke-width:1.51;}
	.st211{fill:#5B83AC;stroke:#5B83AC;stroke-width:1.51;}
	.st212{fill:#5B7BA4;stroke:#5B7BA4;stroke-width:1.51;}
	.st213{fill:#57A8BD;stroke:#57A8BD;stroke-width:1.51;}
	.st214{fill:#9BD6B9;stroke:#9BD6B9;stroke-width:1.51;}
	.st215{fill:#C1E5BE;stroke:#C1E5BE;stroke-width:1.51;}
	.st216{fill:#84CEBC;stroke:#84CEBC;stroke-width:1.51;}
	.st217{fill:#83CEBB;stroke:#83CEBB;stroke-width:1.51;}
	.st218{fill:#9BD7B9;stroke:#9BD7B9;stroke-width:1.51;}
	.st219{fill:#60B1BE;stroke:#60B1BE;stroke-width:1.51;}
	.st220{fill:#6198B3;stroke:#6198B3;stroke-width:1.51;}
	.st221{fill:#668DAE;stroke:#668DAE;stroke-width:1.51;}
	.st222{fill:#62B9BF;stroke:#62B9BF;stroke-width:1.51;}
	.st223{fill:#617B9E;stroke:#617B9E;stroke-width:1.51;}
	.st224{fill:#C9E9C3;stroke:#C9E9C3;stroke-width:1.51;}
	.st225{fill:#75C8BD;stroke:#75C8BD;stroke-width:1.51;}
	.st226{fill:#BDE4B6;stroke:#BDE4B6;stroke-width:1.51;}
	.st227{fill:#72C6BE;stroke:#72C6BE;stroke-width:1.51;}
	.st228{fill:#6D9BB2;stroke:#6D9BB2;stroke-width:1.51;}
	.st229{fill:#72A2B4;stroke:#72A2B4;stroke-width:1.51;}
	.st230{fill:#6DB5BE;stroke:#6DB5BE;stroke-width:1.51;}
	.st231{fill:#B0DFB7;stroke:#B0DFB7;stroke-width:1.51;}
	.st232{fill:#BEE5B6;stroke:#BEE5B6;stroke-width:1.51;}
	.st233{fill:#75C2BE;stroke:#75C2BE;stroke-width:1.51;}
	.st234{fill:#7CC9BE;stroke:#7CC9BE;stroke-width:1.51;}
	.st235{fill:#74AFBA;stroke:#74AFBA;stroke-width:1.51;}
	.st236{fill:#AFDFB7;stroke:#AFDFB7;stroke-width:1.51;}
	.st237{fill:#C6E8B7;stroke:#C6E8B7;stroke-width:1.51;}
	.st238{fill:#97D5B9;stroke:#97D5B9;stroke-width:1.51;}
	.st239{fill:#6B7F9D;stroke:#6B7F9D;stroke-width:1.51;}
	.st240{fill:#7AC1BD;stroke:#7AC1BD;stroke-width:1.51;}
	.st241{fill:#CDEBBC;stroke:#CDEBBC;stroke-width:1.51;}
	.st242{fill:#7190AD;stroke:#7190AD;stroke-width:1.51;}
	.st243{fill:#EDF8C0;stroke:#EDF8C0;stroke-width:1.51;}
	.st244{fill:#D6EFBD;stroke:#D6EFBD;stroke-width:1.51;}
	.st245{fill:#8DD0BB;stroke:#8DD0BB;stroke-width:1.51;}
	.st246{fill:#768CAB;stroke:#768CAB;stroke-width:1.51;}
	.st247{fill:#7584A5;stroke:#7584A5;stroke-width:1.51;}
	.st248{fill:#85B9BA;stroke:#85B9BA;stroke-width:1.51;}
	.st249{fill:#7F96AD;stroke:#7F96AD;stroke-width:1.51;}
	.st250{fill:#CFECB4;stroke:#CFECB4;stroke-width:1.51;}
	.st251{fill:#DBF1B6;stroke:#DBF1B6;stroke-width:1.51;}
	.st252{fill:#88C3BC;stroke:#88C3BC;stroke-width:1.51;}
	.st253{fill:#7F9FB0;stroke:#7F9FB0;stroke-width:1.51;}
	.st254{fill:#91CABC;stroke:#91CABC;stroke-width:1.51;}
	.st255{fill:#B7E2B6;stroke:#B7E2B6;stroke-width:1.51;}
	.st256{fill:#C7E9B4;stroke:#C7E9B4;stroke-width:1.51;}
	.st257{fill:#D3EEB4;stroke:#D3EEB4;stroke-width:1.51;}
	.st258{fill:#A6DBB8;stroke:#A6DBB8;stroke-width:1.51;}
	.st259{fill:#7C86A1;stroke:#7C86A1;stroke-width:1.51;}
	.st260{fill:#7B849B;stroke:#7B849B;stroke-width:1.51;}
	.st261{fill:#8AB2B6;stroke:#8AB2B6;stroke-width:1.51;}
	.st262{fill:#8490A9;stroke:#8490A9;stroke-width:1.51;}
	.st263{fill:#94D1BC;stroke:#94D1BC;stroke-width:1.51;}
	.st264{fill:#A7DBB8;stroke:#A7DBB8;stroke-width:1.51;}
	.st265{fill:#87A6B2;stroke:#87A6B2;stroke-width:1.51;}
	.st266{fill:#9FD7BA;stroke:#9FD7BA;stroke-width:1.51;}
	.st267{fill:#8E8999;stroke:#8E8999;stroke-width:1.51;}
	.st268{fill:#A4D8BA;stroke:#A4D8BA;stroke-width:1.51;}
	.st269{fill:#D3EDB3;stroke:#D3EDB3;stroke-width:1.51;}
	.st270{fill:#C7E9B5;stroke:#C7E9B5;stroke-width:1.51;}
	.st271{fill:#8588A0;stroke:#8588A0;stroke-width:1.51;}
	.st272{fill:#8A91A9;stroke:#8A91A9;stroke-width:1.51;}
	.st273{fill:#E4F5BB;stroke:#E4F5BB;stroke-width:1.51;}
	.st274{fill:#88889C;stroke:#88889C;stroke-width:1.51;}
	.st275{fill:#8E9BAC;stroke:#8E9BAC;stroke-width:1.51;}
	.st276{fill:#B9E2B6;stroke:#B9E2B6;stroke-width:1.51;}
	.st277{fill:#96C7BB;stroke:#96C7BB;stroke-width:1.51;}
	.st278{fill:#90B3B6;stroke:#90B3B6;stroke-width:1.51;}
	.st279{fill:#DBF1B3;stroke:#DBF1B3;stroke-width:1.51;}
	.st280{fill:#8CA4B0;stroke:#8CA4B0;stroke-width:1.51;}
	.st281{fill:#E4F4B4;stroke:#E4F4B4;stroke-width:1.51;}
	.st282{fill:#D8EFB3;stroke:#D8EFB3;stroke-width:1.51;}
	.st283{fill:#A0D5BB;stroke:#A0D5BB;stroke-width:1.51;}
	.st284{fill:#9CCEBC;stroke:#9CCEBC;stroke-width:1.51;}
	.st285{fill:#91AAB2;stroke:#91AAB2;stroke-width:1.51;}
	.st286{fill:#94BDBA;stroke:#94BDBA;stroke-width:1.51;}
	.st287{fill:#9498AA;stroke:#9498AA;stroke-width:1.51;}
	.st288{fill:#B3E0B7;stroke:#B3E0B7;stroke-width:1.51;}
	.st289{fill:#98BAB8;stroke:#98BAB8;stroke-width:1.51;}
	.st290{fill:#BEE4B6;stroke:#BEE4B6;stroke-width:1.51;}
	.st291{fill:#B8E1BA;stroke:#B8E1BA;stroke-width:1.51;}
	.st292{fill:#979FAC;stroke:#979FAC;stroke-width:1.51;}
	.st293{fill:#E9F7B3;stroke:#E9F7B3;stroke-width:1.51;}
	.st294{fill:#EBF7B3;stroke:#EBF7B3;stroke-width:1.51;}
	.st295{fill:#F2FABB;stroke:#F2FABB;stroke-width:1.51;}
	.st296{fill:#E0F3B2;stroke:#E0F3B2;stroke-width:1.51;}
	.st297{fill:#A1CEBB;stroke:#A1CEBB;stroke-width:1.51;}
	.st298{fill:#ACDBBA;stroke:#ACDBBA;stroke-width:1.51;}
	.st299{fill:#96AEB3;stroke:#96AEB3;stroke-width:1.51;}
	.st300{fill:#99A9B0;stroke:#99A9B0;stroke-width:1.51;}
	.st301{fill:#928DA2;stroke:#928DA2;stroke-width:1.51;}
	.st302{fill:#928C9E;stroke:#928C9E;stroke-width:1.51;}
	.st303{fill:#ACDABE;stroke:#ACDABE;stroke-width:1.51;}
	.st304{fill:#9EC4BB;stroke:#9EC4BB;stroke-width:1.51;}
	.st305{fill:#D5EEB8;stroke:#D5EEB8;stroke-width:1.51;}
	.st306{fill:#A5D3BE;stroke:#A5D3BE;stroke-width:1.51;}
	.st307{fill:#9AA8B5;stroke:#9AA8B5;stroke-width:1.51;}
	.st308{fill:#9DB1BB;stroke:#9DB1BB;stroke-width:1.51;}
	.st309{fill:#9FC4C1;stroke:#9FC4C1;stroke-width:1.51;}
	.st310{fill:#9FBDC0;stroke:#9FBDC0;stroke-width:1.51;}
	.st311{fill:#968FA7;stroke:#968FA7;stroke-width:1.51;}
	.st312{fill:#9997AE;stroke:#9997AE;stroke-width:1.51;}
	.st313{fill:#F6FCC3;stroke:#F6FCC3;stroke-width:1.51;}
	.st314{fill:#F5FBC2;stroke:#F5FBC2;stroke-width:1.51;}
	.st315{fill:#9B9DB3;stroke:#9B9DB3;stroke-width:1.51;}
	.st316{fill:#928CA2;stroke:#928CA2;stroke-width:1.51;}
	.st317{fill:#E0F3BD;stroke:#E0F3BD;stroke-width:1.51;}
	.st318{fill:#D6EFC2;stroke:#D6EFC2;stroke-width:1.51;}
	.st319{fill:#B0DCC3;stroke:#B0DCC3;stroke-width:1.51;}
	.st320{fill:#A4CFC3;stroke:#A4CFC3;stroke-width:1.51;}
	.st321{fill:#EFF9BA;stroke:#EFF9BA;stroke-width:1.51;}
	.st322{fill:#EDF8BE;stroke:#EDF8BE;stroke-width:1.51;}
	.st323{fill:#C4E7C5;stroke:#C4E7C5;stroke-width:1.51;}
	.st324{fill:#A8D4C6;stroke:#A8D4C6;stroke-width:1.51;}
	.st325{fill:#BCE3C2;stroke:#BCE3C2;stroke-width:1.51;}
	.st326{fill:#B6DFC5;stroke:#B6DFC5;stroke-width:1.51;}
	.st327{fill:#ABDAC9;stroke:#ABDAC9;stroke-width:1.51;}
	.st328{fill:#9CA4B9;stroke:#9CA4B9;stroke-width:1.51;}
	.st329{fill:#9C99B4;stroke:#9C99B4;stroke-width:1.51;}
	.st330{fill:#A6CFC9;stroke:#A6CFC9;stroke-width:1.51;}
	.st331{fill:#A0BAC4;stroke:#A0BAC4;stroke-width:1.51;}
</style>
<path class="st0" d="M681,447l-687,2l1128,28L681,447z"/>
<path class="st1" d="M595-1100l208,14l444,12L595-1100z"/>
<path class="st2" d="M595-1100l652,26l622-4L595-1100z"/>
<path class="st3" d="M1703,441l-246,6l429,52L1703,441z"/>
<path class="st4" d="M1457,447l-335,30l764,22L1457,447z"/>
<path class="st5" d="M1869-1078l175,75l163-13L1869-1078z"/>
<path class="st6" d="M2044-1003l-27,140l190-153L2044-1003z"/>
<path class="st7" d="M2210-417l-44,126l51,93L2210-417z"/>
<path class="st8" d="M2039-454l171,37l7-213L2039-454z"/>
<path class="st9" d="M2095,456l64,36l66-174L2095,456z"/>
<path class="st10" d="M2163,98l-164,155l226,65L2163,98z"/>
<path class="st11" d="M2181-19l-18,117l62,220L2181-19z"/>
<path class="st12" d="M2217-198l-36,179l44,337L2217-198z"/>
<path class="st13" d="M2017-863l216,71l26-74L2017-863z"/>
<path class="st14" d="M2207-1016l-190,153l242-3L2207-1016z"/>
<path class="st15" d="M2233-792l-16,162l42-236L2233-792z"/>
<path class="st16" d="M2217-630l-7,213l49-449L2217-630z"/>
<path class="st17" d="M2210-417l7,219l42-668L2210-417z"/>
<path class="st18" d="M2217-198l8,516l34-1184L2217-198z"/>
<path class="st19" d="M2095,456l-209,43l273-7L2095,456z"/>
<path class="st20" d="M2000-99l181,80l36-179L2000-99z"/>
<path class="st21" d="M2008-555l31,101l178-176L2008-555z"/>
<path class="st22" d="M2017-863l25,89l191-18L2017-863z"/>
<path class="st23" d="M2042-774l175,144l16-162L2042-774z"/>
<path class="st24" d="M1247-1074l411,66l211-70L1247-1074z"/>
<path class="st25" d="M2025,123l-26,130l164-155L2025,123z"/>
<path class="st26" d="M1999,253l96,203l130-138L1999,253z"/>
<path class="st27" d="M2166-291l-147-2l198,95L2166-291z"/>
<path class="st28" d="M2019-293l-19,194l217-99L2019-293z"/>
<path class="st29" d="M2042-774l-34,219l209-75L2042-774z"/>
<path class="st30" d="M2039-454l127,163l44-126L2039-454z"/>
<path class="st31" d="M451,419L-6,449l687-2L451,419z"/>
<path class="st32" d="M1658-1008l132-34l79-36L1658-1008z"/>
<path class="st33" d="M2039-454l-20,161l147,2L2039-454z"/>
<path class="st34" d="M2017,0l146,98l18-117L2017,0z"/>
<path class="st35" d="M2000-99l17,99l164-19L2000-99z"/>
<path class="st36" d="M2017,0l8,123l138-25L2017,0z"/>
<path class="st37" d="M803-1086l215,29l229-17L803-1086z"/>
<path class="st38" d="M1869-656l139,101l34-219L1869-656z"/>
<path class="st39" d="M1886-738l-17,82l173-118L1886-738z"/>
<path class="st40" d="M1956-914l61,51l27-140L1956-914z"/>
<path class="st41" d="M1999,253l-113,246l209-43L1999,253z"/>
<path class="st42" d="M1247-1074l157,67l254-1L1247-1074z"/>
<path class="st43" d="M1916,247l-30,252l113-246L1916,247z"/>
<path class="st44" d="M1913-266l-15,126l102,41L1913-266z"/>
<path class="st45" d="M1913-266l87,167l19-194L1913-266z"/>
<path class="st46" d="M1907-480l6,214l106-27L1907-480z"/>
<path class="st47" d="M1916,247l83,6l26-130L1916,247z"/>
<path class="st48" d="M1878,185l38,62l109-124L1878,185z"/>
<path class="st49" d="M1907-480l112,187l20-161L1907-480z"/>
<path class="st50" d="M2008-555l-101,75l132,26L2008-555z"/>
<path class="st51" d="M2017-863l-131,125l156-36L2017-863z"/>
<path class="st52" d="M1869-1078l87,164l88-89L1869-1078z"/>
<path class="st53" d="M1956-914l-70,176l131-125L1956-914z"/>
<path class="st54" d="M1923-54l-46,239L2016,0L1923-54z"/>
<path class="st55" d="M2000-99l-76,45l93,54L2000-99z"/>
<path class="st56" d="M2016,0l-139,185l147-62L2016,0z"/>
<path class="st57" d="M1869-656l38,176l101-75L1869-656z"/>
<path class="st58" d="M1898-140l26,86l76-45L1898-140z"/>
<path class="st59" d="M1737,33l34,116l106,36L1737,33z"/>
<path class="st60" d="M1907-480l-107,29l113,185L1907-480z"/>
<path class="st61" d="M1703,441l183,58l30-252L1703,441z"/>
<path class="st62" d="M1728,254l-25,187l213-194L1728,254z"/>
<path class="st63" d="M1737,33l140,152l46-239L1737,33z"/>
<path class="st64" d="M1869-1078l-79,36l166,128L1869-1078z"/>
<path class="st65" d="M1790-1042l-61,107l227,21L1790-1042z"/>
<path class="st66" d="M1729-935l157,197l70-176L1729-935z"/>
<path class="st67" d="M1624,424l-167,23l246-6L1624,424z"/>
<path class="st68" d="M1869-656l-69,205l107-29L1869-656z"/>
<path class="st69" d="M1806-145l92,5l15-126L1806-145z"/>
<path class="st70" d="M1800-451l-47,166l160,19L1800-451z"/>
<path class="st71" d="M1898-140l-92-5l118,91L1898-140z"/>
<path class="st72" d="M1805-145l-68,178l186-87L1805-145z"/>
<path class="st73" d="M1753-285l53,140l107-121L1753-285z"/>
<path class="st74" d="M1878,185l-150,69l188-7L1878,185z"/>
<path class="st75" d="M1698-644l102,193l69-205L1698-644z"/>
<path class="st76" d="M1729-935l-25,231l182-34L1729-935z"/>
<path class="st77" d="M1772,149l-44,105l150-69L1772,149z"/>
<path class="st78" d="M1704-704l165,48l17-82L1704-704z"/>
<path class="st79" d="M1704-704l-6,60l171-12L1704-704z"/>
<path class="st80" d="M233,416L-6,449l457-30L233,416z"/>
<path class="st81" d="M-7-1081l106,8l359-24L-7-1081z"/>
<path class="st82" d="M1643-908l61,204l25-231L1643-908z"/>
<path class="st83" d="M1698-644l-116,86l218,107L1698-644z"/>
<path class="st84" d="M1582-558l5,114l213-7L1582-558z"/>
<path class="st85" d="M1587-444l166,159l47-166L1587-444z"/>
<path class="st86" d="M1753-285l-117,119l170,21L1753-285z"/>
<path class="st87" d="M1635-166l102,199l68-178L1635-166z"/>
<path class="st88" d="M1635-166V27l102,6L1635-166z"/>
<path class="st89" d="M1658-1008l71,73l61-107L1658-1008z"/>
<path class="st90" d="M1624,424l79,17l25-187L1624,424z"/>
<path class="st91" d="M1635,27l-44,95l146-89L1635,27z"/>
<path class="st92" d="M1587-444l37,179l129-20L1587-444z"/>
<path class="st93" d="M1624-265l12,99l117-119L1624-265z"/>
<path class="st94" d="M1737,33l-146,89l180,27L1737,33z"/>
<path class="st95" d="M1592,122l136,132l44-105L1592,122z"/>
<path class="st96" d="M1557,321l67,103l104-170L1557,321z"/>
<path class="st97" d="M1643-908l-85,200l146,4L1643-908z"/>
<path class="st98" d="M1592,122l-35,199l171-67L1592,122z"/>
<path class="st99" d="M1658-1008l-15,100l86-27L1658-1008z"/>
<path class="st100" d="M1337,424l-215,53l335-30L1337,424z"/>
<path class="st101" d="M1558-708l140,64l6-60L1558-708z"/>
<path class="st102" d="M1558-708l24,150l116-86L1558-708z"/>
<path class="st103" d="M1397-165l56,213l182-214L1397-165z"/>
<path class="st104" d="M1635-166L1453,48l182-21V-166z"/>
<path class="st105" d="M1465-909l93,201l85-200L1465-909z"/>
<path class="st106" d="M1465-909l178,1l15-100L1465-909z"/>
<path class="st107" d="M1404-1007l61,98l193-99L1404-1007z"/>
<path class="st108" d="M1446,250l111,71l35-199L1446,250z"/>
<path class="st109" d="M1587-444l-154,134l191,45L1587-444z"/>
<path class="st110" d="M1624-265l-226,100l238-1L1624-265z"/>
<path class="st111" d="M1453,48l138,74l44-95L1453,48z"/>
<path class="st112" d="M1465-909l30,206l63-5L1465-909z"/>
<path class="st113" d="M1557,321l-100,126l167-23L1557,321z"/>
<path class="st114" d="M1433-310l-35,145l226-100L1433-310z"/>
<path class="st115" d="M1018-1057l168-2l61-15L1018-1057z"/>
<path class="st116" d="M1558-708l-63,5l87,145L1558-708z"/>
<path class="st117" d="M1495-703l-5,156l92-11L1495-703z"/>
<path class="st118" d="M1582-558l-92,11l97,103L1582-558z"/>
<path class="st119" d="M1428-465l5,155l154-134L1428-465z"/>
<path class="st120" d="M1453,48l-22,50l160,24L1453,48z"/>
<path class="st121" d="M1432,98l14,152l146-128L1432,98z"/>
<path class="st122" d="M1490-547l-62,82l159,21L1490-547z"/>
<path class="st123" d="M1446,250l11,197l100-126L1446,250z"/>
<path class="st124" d="M1432,98l-75,62l89,90L1432,98z"/>
<path class="st125" d="M1397-165l-41,194l97,19L1397-165z"/>
<path class="st126" d="M1446,250l-109,174l120,23L1446,250z"/>
<path class="st127" d="M1246-864l11,102l208-147L1246-864z"/>
<path class="st128" d="M1465-909l-208,147l238,59L1465-909z"/>
<path class="st129" d="M1327-569l163,22l5-156L1327-569z"/>
<path class="st130" d="M1257-762l70,193l168-134L1257-762z"/>
<path class="st131" d="M1327-569l101,104l62-82L1327-569z"/>
<path class="st132" d="M1347-206l51,41l35-145L1347-206z"/>
<path class="st133" d="M1252,329l85,95l109-174L1252,329z"/>
<path class="st134" d="M1404-1007l-158,143l219-45L1404-1007z"/>
<path class="st135" d="M1428-465l-166,14l171,141L1428-465z"/>
<path class="st136" d="M1356,29l75,69l22-50L1356,29z"/>
<path class="st71" d="M1357,160l-105,169l194-79L1357,160z"/>
<path class="st137" d="M1262-269l85,63l86-104L1262-269z"/>
<path class="st138" d="M1262-451v182l171-41L1262-451z"/>
<path class="st139" d="M1356,29v131l75-62L1356,29z"/>
<path class="st140" d="M1327-569l-65,118l166-14L1327-569z"/>
<path class="st141" d="M1346-206l-167,8l177,227L1346-206z"/>
<path class="st142" d="M1346-206l10,235l41-194L1346-206z"/>
<path class="st143" d="M1247-1074l-1,210l158-143L1247-1074z"/>
<path class="st144" d="M1150-948l96,84l1-210L1150-948z"/>
<path class="st145" d="M1257-762l-68,182l138,11L1257-762z"/>
<path class="st146" d="M1149,49l43,55l164-75L1149,49z"/>
<path class="st147" d="M1179-198l-30,247l207-20L1179-198z"/>
<path class="st148" d="M1356,29l-164,75l164,56V29z"/>
<path class="st149" d="M1193,104l59,225l105-169L1193,104z"/>
<path class="st150" d="M796,413l-115,34l441,30L796,413z"/>
<path class="st151" d="M1262-269l-82,71l167-8L1262-269z"/>
<path class="st152" d="M1252,329l-130,148l215-53L1252,329z"/>
<path class="st153" d="M1186-1059l-36,111l97-126L1186-1059z"/>
<path class="st154" d="M1151-721l38,141l68-182L1151-721z"/>
<path class="st155" d="M1189-580l73,129l65-118L1189-580z"/>
<path class="st156" d="M1017,420l-221-7l326,64L1017,420z"/>
<path class="st157" d="M1041-18l108,67l30-247L1041-18z"/>
<path class="st158" d="M1193,104l-82,201l141,24L1193,104z"/>
<path class="st159" d="M1111,305l11,172l130-148L1111,305z"/>
<path class="st160" d="M1246-864l-95,143l106-41L1246-864z"/>
<path class="st161" d="M1189-580l-39,158l112-29L1189-580z"/>
<path class="st162" d="M1126-314l54,116l82-71L1126-314z"/>
<path class="st163" d="M1262-451l-112,29l112,153V-451z"/>
<path class="st164" d="M1150-422l-24,108l136,45L1150-422z"/>
<path class="st165" d="M1150-948l1,227l95-143L1150-948z"/>
<path class="st166" d="M1150-948l-101,8l102,219L1150-948z"/>
<path class="st167" d="M1053-194l-11,176l138-180L1053-194z"/>
<path class="st168" d="M1151-721l-147,87l185,54L1151-721z"/>
<path class="st169" d="M1004-634l146,212l39-158L1004-634z"/>
<path class="st170" d="M1149,49L987,171l205-67L1149,49z"/>
<path class="st171" d="M988,171l123,134l82-201L988,171z"/>
<path class="st172" d="M1126-314l-73,120l127-4L1126-314z"/>
<path class="st173" d="M1018-1057l132,109l36-111L1018-1057z"/>
<path class="st174" d="M1111,305l-94,115l105,57L1111,305z"/>
<path class="st175" d="M1004-634l-29,234l175-22L1004-634z"/>
<path class="st176" d="M1018-1057l31,117l101-8L1018-1057z"/>
<path class="st177" d="M1049-940l-65,240l167-21L1049-940z"/>
<path class="st178" d="M1041-18l-54,189l162-122L1041-18z"/>
<path class="st179" d="M975-400l151,86l24-108L975-400z"/>
<path class="st180" d="M984-700l20,66l147-87L984-700z"/>
<path class="st181" d="M988,171l-16,99l139,35L988,171z"/>
<path class="st182" d="M965-295l88,101l73-120L965-295z"/>
<path class="st183" d="M975-400l-10,105l161-19L975-400z"/>
<path class="st184" d="M972,270l45,150l94-115L972,270z"/>
<path class="st185" d="M886-937l4,239l94-2L886-937z"/>
<path class="st186" d="M836-587l139,187l29-234L836-587z"/>
<path class="st187" d="M972,270l-74,74l119,76L972,270z"/>
<path class="st188" d="M838-148L878-9l164-9L838-148z"/>
<path class="st189" d="M877-9l110,180l54-189L877-9z"/>
<path class="st190" d="M1018-1057L886-937l163-3L1018-1057z"/>
<path class="st191" d="M886-937l98,237l65-240L886-937z"/>
<path class="st192" d="M838-148l204,130l11-176L838-148z"/>
<path class="st193" d="M965-295L838-148l215-46L965-295z"/>
<path class="st194" d="M562,420l-111-1l230,28L562,420z"/>
<path class="st195" d="M877-9l-35,154l145,26L877-9z"/>
<path class="st196" d="M898,344l-102,69l221,7L898,344z"/>
<path class="st197" d="M803-1086l83,149l132-120L803-1086z"/>
<path class="st198" d="M836-587l-28,188l167-1L836-587z"/>
<path class="st199" d="M984-700l-94,2l114,64L984-700z"/>
<path class="st200" d="M890-698l-54,111l168-47L890-698z"/>
<path class="st201" d="M843,145l129,125l16-99L843,145z"/>
<path class="st202" d="M798-353l167,58l10-105L798-353z"/>
<path class="st203" d="M808-399l-10,46l177-47L808-399z"/>
<path class="st204" d="M843,145l55,199l74-74L843,145z"/>
<path class="st205" d="M798-353l-52,104l92,101L798-353z"/>
<path class="st206" d="M886-937L740-733l150,35L886-937z"/>
<path class="st207" d="M798-353l40,205l127-147L798-353z"/>
<path class="st208" d="M727-21l115,166L877-9L727-21z"/>
<path class="st209" d="M803-1086l-80,156l163-7L803-1086z"/>
<path class="st210" d="M723-930l17,197l146-204L723-930z"/>
<path class="st211" d="M843,145L649,293l249,51L843,145z"/>
<path class="st212" d="M649,293l147,120l102-69L649,293z"/>
<path class="st213" d="M838-148L728-21L878-9L838-148z"/>
<path class="st214" d="M740-733l96,146l54-111L740-733z"/>
<path class="st215" d="M698-1012l25,82l80-156L698-1012z"/>
<path class="st216" d="M675-584l-29,160l162,25L675-584z"/>
<path class="st217" d="M675-584l133,185l28-188L675-584z"/>
<path class="st218" d="M740-733l-65,149l161-3L740-733z"/>
<path class="st219" d="M690-191l38,170l110-127L690-191z"/>
<path class="st220" d="M727-21l-79,178l194-12L727-21z"/>
<path class="st221" d="M649,157v136l194-148L649,157z"/>
<path class="st222" d="M746-249l-56,58l148,43L746-249z"/>
<path class="st223" d="M649,293l32,154l115-34L649,293z"/>
<path class="st224" d="M595-1100l103,88l105-74L595-1100z"/>
<path class="st225" d="M646-424l152,71l10-46L646-424z"/>
<path class="st226" d="M723-930l-117,53l134,144L723-930z"/>
<path class="st227" d="M646-424l100,175l52-104L646-424z"/>
<path class="st228" d="M599,149l49,8l79-178L599,149z"/>
<path class="st229" d="M526,35l73,114L727-21L526,35z"/>
<path class="st230" d="M690-191l-93,47L728-21L690-191z"/>
<path class="st231" d="M545-758l130,174l65-149L545-758z"/>
<path class="st232" d="M606-877l-61,119l195,25L606-877z"/>
<path class="st233" d="M543-303l147,112l56-58L543-303z"/>
<path class="st234" d="M646-424L543-303l203,54L646-424z"/>
<path class="st235" d="M596-144L526,35l201-56L596-144z"/>
<path class="st236" d="M545-758l15,174h115L545-758z"/>
<path class="st237" d="M698-1012l-92,135l117-53L698-1012z"/>
<path class="st238" d="M560-584l86,160l29-160H560z"/>
<path class="st239" d="M649,293l-87,127l119,27L649,293z"/>
<path class="st240" d="M543-303l54,159l93-47L543-303z"/>
<path class="st241" d="M595-1100l11,223l92-135L595-1100z"/>
<path class="st242" d="M649,157l-49-8l49,144V157z"/>
<path class="st243" d="M99-1073l205,28l154-52L99-1073z"/>
<path class="st244" d="M595-1100l-137,3l148,220L595-1100z"/>
<path class="st238" d="M560-584l-49,159l135,1L560-584z"/>
<path class="st245" d="M511-425l32,122l103-121L511-425z"/>
<path class="st246" d="M600,149l-70,152l119-8L600,149z"/>
<path class="st247" d="M530,301l32,119l87-127L530,301z"/>
<path class="st248" d="M350-116L526,35l70-179L350-116z"/>
<path class="st249" d="M411,141l119,160l70-152L411,141z"/>
<path class="st250" d="M388-900l157,142l61-119L388-900z"/>
<path class="st251" d="M458-1097l-70,197l218,23L458-1097z"/>
<path class="st252" d="M543-303L351-116l246-28L543-303z"/>
<path class="st253" d="M526,35L410,141l189,8L526,35z"/>
<path class="st254" d="M358-281l-7,165l192-187L358-281z"/>
<path class="st255" d="M545-758L435-575l125-9L545-758z"/>
<path class="st256" d="M394-779l41,204l110-183L394-779z"/>
<path class="st257" d="M388-900l6,121l151,21L388-900z"/>
<path class="st258" d="M435-575l76,150l49-159L435-575z"/>
<path class="st259" d="M530,301l-79,42l111,77L530,301z"/>
<path class="st260" d="M451,343v76l111,1L451,343z"/>
<path class="st261" d="M350-116l23,167l153-16L350-116z"/>
<path class="st262" d="M411,141l40,202l79-42L411,141z"/>
<path class="st263" d="M511-425L358-281l185-22L511-425z"/>
<path class="st264" d="M435-575l-82,81l158,69L435-575z"/>
<path class="st265" d="M373,51l37,90L526,35L373,51z"/>
<path class="st266" d="M353-494l5,213l153-144L353-494z"/>
<path class="st267" d="M125,409L-6,449l239-33L125,409z"/>
<path class="st268" d="M353-494l-74,89l79,124L353-494z"/>
<path class="st269" d="M307-769l-49,124l136-134L307-769z"/>
<path class="st270" d="M394-779L258-645l177,70L394-779z"/>
<path class="st271" d="M268,322l183,97v-76L268,322z"/>
<path class="st272" d="M411,141L268,322l183,21L411,141z"/>
<path class="st273" d="M304-1045l84,145l70-197L304-1045z"/>
<path class="st274" d="M268,322l-35,94l218,3L268,322z"/>
<path class="st275" d="M279,108l-11,214l143-181L279,108z"/>
<path class="st276" d="M258-645l95,151l82-81L258-645z"/>
<path class="st277" d="M250-149l101,33l7-165L250-149z"/>
<path class="st278" d="M350-116L275,39l98,12L350-116z"/>
<path class="st279" d="M388-900l-85,45l91,76L388-900z"/>
<path class="st280" d="M373,51l-95,57l132,33L373,51z"/>
<path class="st281" d="M304-1045l-1,190l85-45L304-1045z"/>
<path class="st282" d="M303-855l4,86l87-10L303-855z"/>
<path class="st283" d="M279-405l-46,111l125,13L279-405z"/>
<path class="st284" d="M233-294l17,145l108-132L233-294z"/>
<path class="st285" d="M275,39l3,69l95-57L275,39z"/>
<path class="st286" d="M249-149l26,188l75-155L249-149z"/>
<path class="st287" d="M157,283l111,39l11-214L157,283z"/>
<path class="st288" d="M258-645l21,240l74-89L258-645z"/>
<path class="st289" d="M249-149L149,8l126,31L249-149z"/>
<path class="st290" d="M258-645L53-562l226,157L258-645z"/>
<path class="st291" d="M53-562l12,122l214,35L53-562z"/>
<path class="st292" d="M116,167l41,116l122-175L116,167z"/>
<path class="st293" d="M105-927L50-797l253-58L105-927z"/>
<path class="st294" d="M105-927l198,72l1-190L105-927z"/>
<path class="st295" d="M99-1073l6,146l199-118L99-1073z"/>
<path class="st296" d="M303-855L50-797l257,28L303-855z"/>
<path class="st279" d="M50-797l208,152l49-124L50-797z"/>
<path class="st297" d="M233-294L103-192l147,43L233-294z"/>
<path class="st298" d="M65-440l168,146l46-111L65-440z"/>
<path class="st299" d="M275,39L149,8l129,100L275,39z"/>
<path class="st300" d="M149,8l-34,159l163-59L149,8z"/>
<path class="st301" d="M157,283l76,133l35-94L157,283z"/>
<path class="st302" d="M157,283l-32,126l108,7L157,283z"/>
<path class="st303" d="M65-440l-5,134l173,12L65-440z"/>
<path class="st304" d="M102-192L149,8l100-157L102-192z"/>
<path class="st305" d="M50-797l3,235l205-83L50-797z"/>
<path class="st306" d="M60-306l43,114l130-102L60-306z"/>
<path class="st307" d="M-1,150l116,17L149,8L-1,150z"/>
<path class="st308" d="M-35-14l34,164L149,8L-35-14z"/>
<path class="st309" d="M102-192L-4-109L149,8L102-192z"/>
<path class="st310" d="M-4-109l-31,95L149,8L-4-109z"/>
<path class="st311" d="M6,333l119,76l32-126L6,333z"/>
<path class="st312" d="M116,167L6,333l151-50L116,167z"/>
<path class="st313" d="M99-1073l-106-8l112,154L99-1073z"/>
<path class="st314" d="M-7-1081l-40,135l152,19L-7-1081z"/>
<path class="st315" d="M0,150l6,183l110-166L0,150z"/>
<path class="st316" d="M6,333L-6,449l131-40L6,333z"/>
<path class="st317" d="M50-797l-115-3L53-562L50-797z"/>
<path class="st318" d="M-65-800l-26,228l144,10L-65-800z"/>
<path class="st319" d="M-9-348l69,42l5-134L-9-348z"/>
<path class="st320" d="M60-306L-3-109l106-83L60-306z"/>
<path class="st321" d="M-47-946l97,149l55-130L-47-946z"/>
<path class="st322" d="M-47-946l-18,146l115,3L-47-946z"/>
<path class="st323" d="M-91-572l-2,109l146-99L-91-572z"/>
<path class="st324" d="M-9-348l6,239l63-197L-9-348z"/>
<path class="st325" d="M53-562l-146,99l158,23L53-562z"/>
<path class="st326" d="M-93-463l84,115l74-92L-93-463z"/>
<path class="st327" d="M-9-348l-84-115l90,354L-9-348z"/>
<path class="st328" d="M0,150L-34-14L6,333L0,150z"/>
<path class="st329" d="M-34-14l28,463L6,333L-34-14z"/>
<path class="st330" d="M-93-463l59,449l31-95L-93-463z"/>
<path class="st331" d="M-34-14l-59-449l87,912L-34-14z"/>
</svg>
