<svg xmlns="http://www.w3.org/2000/svg" viewBox="0 0 14.67 14.67"><defs><style>.cls-1{fill:#98cbbc;}</style></defs><title>Fichier 1</title><g id="Calque_2" data-name="Calque 2"><g id="Calque_1-2" data-name="Calque 1"><g id="Layer_5" data-name="Layer 5"><path class="cls-1" d="M7.33,2.78a1,1,0,0,0,.84-1.66L7.33,0,6.5,1.12a1,1,0,0,0,.84,1.66Z"/><path class="cls-1" d="M3.31,7.44A.94.94,0,0,0,4,7.13a1.88,1.88,0,0,1,2.64,0A.94.94,0,0,0,8,7.13a1.88,1.88,0,0,1,2.64,0,.94.94,0,0,0,1.39,0,1.88,1.88,0,0,1,1.32-.54V6.11a1.29,1.29,0,0,0-1.29-1.29H7.82V3.69a2.07,2.07,0,0,1-.48.06,1.93,1.93,0,0,1-.48-.06V4.82H2.58A1.29,1.29,0,0,0,1.29,6.11v.48a1.87,1.87,0,0,1,1.32.54A.94.94,0,0,0,3.31,7.44Z"/><path class="cls-1" d="M13.37,7.56a.94.94,0,0,0-.7.31,1.88,1.88,0,0,1-2.64,0,.94.94,0,0,0-1.39,0A1.88,1.88,0,0,1,6,7.87a.94.94,0,0,0-1.39,0A1.88,1.88,0,0,1,2,7.87a.94.94,0,0,0-.7-.31v2.92H13.37V7.56Z"/><polygon class="cls-1" points="0 11.45 0 12.41 1.26 12.41 1.91 14.67 12.71 14.67 13.34 12.41 14.67 12.41 14.67 11.45 0 11.45"/></g></g></g></svg>