<?xml version="1.0" encoding="utf-8"?>
<!-- Generator: Adobe Illustrator 20.1.0, SVG Export Plug-In . SVG Version: 6.00 Build 0)  -->
<svg version="1.1" id="Calque_1" xmlns="http://www.w3.org/2000/svg" xmlns:xlink="http://www.w3.org/1999/xlink" x="0px" y="0px"
	 viewBox="0 0 14.7 14.8" style="enable-background:new 0 0 14.7 14.8;" xml:space="preserve">
<style type="text/css">
	.st0{fill:#0493AA;}
</style>
<title>Fichier 1</title>
<g id="Calque_2">
	<g id="Calque_1-2">
		<g id="Layer_5">
			<path class="st0" d="M7.3,2.8c0.5,0.1,1-0.4,1.1-0.9c0-0.3-0.1-0.5-0.2-0.8L7.3,0L6.5,1.1c-0.4,0.4-0.3,1,0.1,1.4
				C6.8,2.7,7.1,2.8,7.3,2.8L7.3,2.8z"/>
			<path class="st0" d="M3.3,7.4c0.3,0,0.5-0.1,0.7-0.3c0.7-0.7,1.9-0.7,2.6,0c0.4,0.4,1,0.4,1.3,0c0,0,0,0,0,0
				c0.7-0.7,1.9-0.7,2.6,0C11,7.5,11.6,7.5,12,7.2c0,0,0,0,0.1-0.1c0.4-0.3,0.8-0.5,1.3-0.5V6.1c0-0.7-0.6-1.3-1.3-1.3H7.8V3.7
				c-0.2,0-0.3,0.1-0.5,0.1c-0.2,0-0.3,0-0.5-0.1v1.1H2.6c-0.7,0-1.3,0.6-1.3,1.3v0.5c0.5,0,1,0.2,1.3,0.5C2.8,7.3,3,7.4,3.3,7.4z"
				/>
			<path class="st0" d="M13.4,7.6c-0.3,0-0.5,0.1-0.7,0.3c-0.7,0.7-1.9,0.7-2.6,0C9.7,7.5,9.1,7.5,8.7,7.8c0,0,0,0-0.1,0.1
				C7.9,8.6,6.7,8.6,6,7.9C5.7,7.5,5.1,7.5,4.7,7.8c0,0,0,0-0.1,0.1C3.9,8.6,2.7,8.6,2,7.9C1.8,7.7,1.6,7.6,1.3,7.6v2.9h12.1V7.6z"
				/>
			<polygon class="st0" points="0,11.4 0,12.4 1.3,12.4 1.9,14.7 12.7,14.7 13.3,12.4 14.7,12.4 14.7,11.4 			"/>
		</g>
	</g>
</g>
</svg>
