<svg xmlns="http://www.w3.org/2000/svg" viewBox="0 0 221.92 37.45"><defs><style>.cls-1{fill:#99cabb;}.cls-2{fill:none;}</style></defs><title>Fichier 3</title><g id="Calque_2" data-name="Calque 2"><g id="Calque_1-2" data-name="Calque 1"><path class="cls-1" d="M102.72,30.17c0-2.77,0-5.36,0-7.94,0-1.58,0-3.16,0-4.74-.1-4-1.57-6-4.36-5.93s-4.17,2-4.18,6,0,8.31,0,12.62H87.45V6.05H94L94.27,8c2.49-.88,5-2.46,7.38-2.4s4.77,1.78,7.53,2.92a10,10,0,0,1,8.33-3.06c4,.39,6.66,2.42,6.91,6.37.38,6.07.1,12.17.1,18.41H118c0-3,0-6,0-9.05,0-1.76,0-3.53-.07-5.29-.1-2.48-1.34-4-3.87-4.28-2.31-.23-4.2,1.34-4.48,4-.25,2.39-.11,4.82-.14,7.23,0,2.23,0,4.45-.07,6.68a2.76,2.76,0,0,1-.26.68Z"/><path class="cls-1" d="M71.66,30.91c-7.57,0-13.39-5.49-13.38-12.71A13.11,13.11,0,0,1,71.67,5.35,12.84,12.84,0,0,1,84.86,18C84.92,25.28,79.2,30.87,71.66,30.91Zm-.17-19.59c-3.85,0-6.35,2.71-6.33,6.85,0,4,2.68,6.85,6.43,6.91s6.53-2.81,6.59-6.76A6.69,6.69,0,0,0,71.49,11.32Z"/><path class="cls-1" d="M202.1,27.17l2.5-3.82a81,81,0,0,0,8.26,2.16c.84.13,1.89-1,2.84-1.58-.68-.76-1.23-1.79-2.08-2.23a29.42,29.42,0,0,0-4.2-1.42c-4.59-1.58-6.47-4-6.1-7.77s3-6.22,7.53-6.92a14.74,14.74,0,0,1,10.34,2.92l-2.19,4a68.61,68.61,0,0,0-7-1.65c-.74-.1-1.63.83-2.45,1.29.54.75.93,1.82,1.66,2.19,1.9.94,4,1.47,5.94,2.33,3.54,1.57,5,3.87,4.72,7.08-.32,3.53-2.29,5.82-6,6.7C210.83,31.61,206.36,30.28,202.1,27.17Z"/><path class="cls-1" d="M197.64,12.52a67.52,67.52,0,0,0-7-1.67c-.76-.11-1.66.82-2.49,1.28.55.75.93,1.83,1.67,2.19,1.9.94,4,1.47,5.95,2.33,3.67,1.61,5,3.77,4.63,7.36-.32,3.42-2.24,5.51-5.93,6.45A15.66,15.66,0,0,1,180.87,27l2.37-3.7a82.47,82.47,0,0,0,8.3,2.14c.83.13,1.86-1,2.79-1.59-.68-.76-1.23-1.81-2.08-2.21-1.84-.85-3.88-1.26-5.76-2-3.22-1.35-4.58-3.46-4.5-6.64a7.11,7.11,0,0,1,4.86-6.78,13.88,13.88,0,0,1,13,2.31Z"/><path class="cls-1" d="M58.3,26.5C52.38,32.27,44,32.31,39,27A13.14,13.14,0,0,1,39.69,8.7a13.18,13.18,0,0,1,18.38.89L54.8,13.1c-2.88-.63-5.29-1.46-7.72-1.55-1.1,0-2.49,1.19-3.33,2.2a7.58,7.58,0,0,0,.49,9.48c2.49,2.53,5.71,2.39,9.93-.38Z"/><path class="cls-1" d="M17.92,2.25A51.38,51.38,0,0,0,9.17,4.89C2.64,7.44-.76,13.43.14,20.41a14.48,14.48,0,0,0,12.13,12.1,14.16,14.16,0,0,0,15.46-8.75A48,48,0,0,0,30.48,15c1-4.76,1.55-9.6,2.39-15C27.23.83,22.54,1.35,17.92,2.25Zm4.39,16.22-5.41.77,2.66,3.71-.34.42L15.5,20.68l-.81,5.53-.62,0-.78-5.46L9.5,23.36,9.18,23l2.63-3.77L6.67,18.5l-.08-.61L12,17.12,9.14,13.36l.36-.47,3.75,2.82.83-5.55.62,0,.71,5.62L19.13,13l.42.34-2.8,3.78,5.59.71Z"/><path class="cls-1" d="M151.3,9.68a16.17,16.17,0,0,0-6.71-4c-3.56-1.18-6.57,1-9.34,3.51-.16-1.21-.27-1.71-.39-2.71h-6.4v31h6V27.71c7,4.26,12.16,4,16.16-.49S155.29,14.06,151.3,9.68ZM141.21,25.06c-3.5.06-6.12-2.78-6.21-6.75s2.53-7.11,6.13-7.09,6,2.85,6.09,6.86S144.66,25,141.21,25.06Z"/><path class="cls-2" d="M71.49,11.32a6.69,6.69,0,0,1,6.68,7c-.06,4-2.85,6.82-6.59,6.76s-6.41-2.94-6.43-6.91C65.15,14,67.64,11.33,71.49,11.32Z"/><path class="cls-1" d="M178.39,14.63C178.27,11.45,177.1,8.47,174,7c-5.31-2.45-10.58-1.6-16,.47l1.74,5c9-2,11.79-1.1,11.93,3.47-3.4,0-6.66-.34-9.81.09-3.77.51-6,3.56-6,7.26s2.1,6.22,5.78,7.21,6.76,0,9.68-2.13c1,2.21,2.86,2.6,7.09,1.52C178.44,24.82,178.58,19.72,178.39,14.63ZM170,25.14c-.7.76-2.16.81-2.72,1-2.62-.06-4.47-.5-4.62-2.88s1.5-3.38,3.66-3.61a6.37,6.37,0,0,1,2.47,0c1.11.35,3.07,1.16,3,1.51A7.9,7.9,0,0,1,170,25.14Z"/></g></g></svg>