<svg xmlns="http://www.w3.org/2000/svg" viewBox="0 0 118.35 134.57"><defs><style>.cls-1{fill:#99cabb;}</style></defs><title>Fichier 2</title><g id="Calque_2" data-name="Calque 2"><g id="Calque_1-2" data-name="Calque 1"><path class="cls-1" d="M114,0H4.38A4.38,4.38,0,0,0,0,4.85L10,117a7.49,7.49,0,0,0,5,6.08l39.46,11a20.53,20.53,0,0,0,9.24,0l39.51-10.94a7.45,7.45,0,0,0,5-6.05l10-112.21A4.38,4.38,0,0,0,114,0ZM95,40.49a0,0,0,0,1-.07,0L64,53.17a1,1,0,0,0,.38,1.92h24a4.51,4.51,0,0,1,4.48,5L89.12,95.32a4.51,4.51,0,0,1-3,3.78l-25.52,9a4.51,4.51,0,0,1-3,0l-25.4-8.8a4.51,4.51,0,0,1-3-3.78l-1.7-16a3,3,0,0,1,3-3.29h7.07a3,3,0,0,1,3,2.66l1,9.81,17.59,6.11,17.67-6.17L79,68.31H29a3,3,0,0,1-3-2.64L25.1,57A3,3,0,0,1,26.92,54l32-13.18a.82.82,0,0,0-.31-1.58H24.92a2,2,0,0,1-2-1.77l-1-9.27a2,2,0,0,1,2-2.19H94.39a2,2,0,0,1,2,2.2Z"/></g></g></svg>