<?xml version="1.0" encoding="utf-8"?>
<!-- Generator: Adobe Illustrator 20.1.0, SVG Export Plug-In . SVG Version: 6.00 Build 0)  -->
<svg version="1.1" id="Calque_1" xmlns="http://www.w3.org/2000/svg" xmlns:xlink="http://www.w3.org/1999/xlink" x="0px" y="0px"
	 viewBox="0 0 121 138.7" style="enable-background:new 0 0 121 138.7;" xml:space="preserve">
<style type="text/css">
	.st0{fill:#0493AA;}
</style>
<path class="st0" d="M115.3,1.5H5.8c-2.6,0-4.6,2.2-4.4,4.8l10,112.2c0.2,2.6,2.5,5.4,5,6.1l39.5,11c2.5,0.7,6.7,0.7,9.2,0
	l39.5-10.9c2.5-0.7,4.8-3.4,5-6.1l10-112.2C119.9,3.7,118,1.5,115.3,1.5z M96.3,42L96.3,42L96.3,42l-31,12.7
	c-0.4,0.2-0.7,0.6-0.6,1.1s0.5,0.8,1,0.8h24c1.3,0,2.5,0.5,3.4,1.5s1.3,2.2,1.1,3.5l-3.8,35.2c-0.2,1.7-1.3,3.2-3,3.8l-25.5,9
	c-1,0.3-2,0.3-3,0l-25.4-8.8c-1.7-0.6-2.8-2-3-3.8l-1.7-16c-0.1-0.8,0.2-1.7,0.7-2.3c0.6-0.6,1.4-1,2.2-1h7.1c1.5,0,2.8,1.1,3,2.7
	l1,9.8l17.6,6.1l17.7-6.2l2.2-20.3h-50c-1.5,0-2.8-1.1-3-2.6l-1-8.6c-0.1-1.3,0.6-2.6,1.8-3.1l32.2-13.2c0.4-0.1,0.6-0.5,0.5-0.9
	s-0.4-0.7-0.8-0.7H26.3c-1,0-1.9-0.8-2-1.8l-1-9.3c-0.1-0.6,0.1-1.1,0.5-1.5s0.9-0.7,1.5-0.7h70.4c0.6,0,1.1,0.2,1.5,0.7
	c0.4,0.4,0.6,1,0.5,1.5L96.3,42z"/>
</svg>
