<?xml version="1.0" encoding="utf-8"?>
<!-- Generator: Adobe Illustrator 20.1.0, SVG Export Plug-In . SVG Version: 6.00 Build 0)  -->
<svg version="1.1" id="Capa_1" xmlns="http://www.w3.org/2000/svg" xmlns:xlink="http://www.w3.org/1999/xlink" x="0px" y="0px"
	 viewBox="0 0 512 318" style="enable-background:new 0 0 512 318;" xml:space="preserve">
<style type="text/css">
	.st0{fill:#FFFFFF;}
</style>
<g>
	<g id="_x35_8_24_">
		<g>
			<path class="st0" d="M169.1,218.3c-2.1,5.4-4.8,10.1-8.1,14c-3.3,4-7.4,7-12.2,9.3c-4.8,2.2-10.7,3.3-17.5,3.3
				c-9.6,0-17.6-2.1-24-6.2c-6.4-4.2-11.5-9.7-15.3-16.6c-3.8-6.9-6.6-14.7-8.3-23.2c-1.8-8.6-2.6-17.3-2.6-26.2
				c0-8.9,0.8-17.6,2.6-26.2c1.7-8.6,4.5-16.4,8.3-23.2c3.8-6.9,8.9-12.4,15.3-16.6c6.4-4.2,14.4-6.2,24-6.2
				c8.3,0,15.2,1.6,20.5,4.7c5.3,3.2,9.5,6.9,12.7,11.1c3.2,4.2,5.4,8.4,6.6,12.7c1.2,4.3,2.1,7.7,2.6,10.1h78.9
				c-3.4-33.2-15.1-58.8-34.9-76.9c-19.8-18.1-47.9-27.3-84.2-27.5c-20.4,0-38.8,3.3-55.1,10c-16.4,6.6-30.4,16-42,28
				S15.7,99,9.4,116C3.2,132.9,0,151.8,0,172.4c0,19.4,3,37.6,8.9,54.4c5.9,16.9,14.6,31.4,26,43.7s25.4,22,41.8,29.2
				c16.5,7.1,35.4,10.7,56.8,10.7c19.2,0,36.3-3.2,51.3-9.6c15-6.4,27.6-14.8,37.8-25.3c10.2-10.5,17.9-22.2,23.2-35.2
				c5.3-13,8-26.2,8-39.4h-79.7C172.9,207,171.3,212.9,169.1,218.3z"/>
			<polygon class="st0" points="386.2,200.5 385.5,200.5 342.3,40.8 260.4,40.8 339,304.2 429.7,304.2 512,40.8 428.6,40.8 			"/>
		</g>
	</g>
</g>
</svg>
