<svg xmlns="http://www.w3.org/2000/svg" viewBox="0 0 175.32 73.23"><defs><style>.cls-1{fill:#99cabb;}</style></defs><title>Fichier 1</title><g id="Calque_2" data-name="Calque 2"><g id="Calque_1-2" data-name="Calque 1"><path class="cls-1" d="M105.07,24.92c-3.84,0-6.71,1.89-6.71,6.43,0,3.42,1.89,5.8,6.5,5.8,3.91,0,6.57-2.3,6.57-5.94,0-4.12-2.38-6.29-6.36-6.29ZM97.39,57a6.19,6.19,0,0,0-1.82,3.7c0,2.79,3.56,3.63,8.45,3.63,4.05,0,9.57-.28,9.57-4.05,0-2.24-2.66-2.38-6-2.59L97.39,57Zm20.68-31.86a11.08,11.08,0,0,1,2.59,7.06c0,7.76-6.08,12.3-14.88,12.3a22.21,22.21,0,0,1-5.52-.63l-2.31,3.7,6.85.42C116.88,48.75,124,49.1,124,58.39c0,8-7.06,12.58-19.21,12.58-12.65,0-17.47-3.21-17.47-8.73,0-3.14,1.4-4.82,3.84-7.13a4.66,4.66,0,0,1-3.07-4.61,6.27,6.27,0,0,1,2-4.26c1.26-1.33,2.65-2.66,4.33-4.19-3.42-1.68-6-5.31-6-10.48,0-8,5.31-13.55,16-13.55a24,24,0,0,1,6.43.7H124.5v5.94l-6.43.49Z"/><path class="cls-1" d="M136.79,12.44c-4,0-6.29-2.31-6.29-6.29S132.81,0,136.79,0s6.36,2.17,6.36,6.15-2.31,6.29-6.36,6.29Zm-9,42V48.91l3.56-.49c1-.14,1.12-.35,1.12-1.4V26.48c0-.77-.21-1.26-.91-1.47l-3.77-1.33.77-5.66H143V47c0,1.12.07,1.26,1.12,1.4l3.56.49v5.52Z"/><path class="cls-1" d="M175.32,51.72a28,28,0,0,1-11.39,2.79c-8.31,0-11.46-3.35-11.46-11.25V25c0-.42,0-.7-.56-.7H147V18c6.15-.7,8.59-3.77,9.36-11.39H163v9.92c0,.49,0,.7.56.7h9.85v7H163V41c0,4.12,1,5.73,4.75,5.73a16.65,16.65,0,0,0,5.66-1.12l1.89,6.15"/><path class="cls-1" d="M71.79,33.38,39.84,1.44a4.71,4.71,0,0,0-6.66,0L26.55,8.07,35,16.49A5.6,5.6,0,0,1,42,23.62l8.11,8.11a5.6,5.6,0,1,1-3.36,3.16l-7.56-7.56v19.9a5.67,5.67,0,0,1,1.48,1.06,5.6,5.6,0,1,1-6.09-1.22V27a5.54,5.54,0,0,1-1.84-1.22,5.61,5.61,0,0,1-1.21-6.13l-8.3-8.3L1.38,33.24a4.71,4.71,0,0,0,0,6.67L33.33,71.85a4.71,4.71,0,0,0,6.66,0l31.8-31.8a4.72,4.72,0,0,0,0-6.67"/></g></g></svg>