<?xml version="1.0" encoding="utf-8"?>
<!-- Generator: Adobe Illustrator 20.1.0, SVG Export Plug-In . SVG Version: 6.00 Build 0)  -->
<svg version="1.1" id="Calque_1" xmlns="http://www.w3.org/2000/svg" xmlns:xlink="http://www.w3.org/1999/xlink" x="0px" y="0px"
	 viewBox="0 0 203 75.5" style="enable-background:new 0 0 203 75.5;" xml:space="preserve">
<style type="text/css">
	.st0{fill:#0493AA;}
</style>
<g>
	<path class="st0" d="M115,26c-3.8,0-6.7,1.9-6.7,6.4c0,3.4,1.9,5.8,6.5,5.8c3.9,0,6.6-2.3,6.6-5.9C121.3,28.2,119,26,115,26L115,26
		L115,26z M107.3,58.1c-0.9,1.1-1.8,2.3-1.8,3.7c0,2.8,3.6,3.6,8.5,3.6c4.1,0,9.6-0.3,9.6-4.1c0-2.2-2.7-2.4-6-2.6L107.3,58.1
		L107.3,58.1z M128,26.2c1.3,1.6,2.6,3.8,2.6,7.1c0,7.8-6.1,12.3-14.9,12.3c-2.2,0-4.3-0.3-5.5-0.6l-2.3,3.7l6.8,0.4
		c12.1,0.8,19.2,1.1,19.2,10.4c0,8-7.1,12.6-19.2,12.6c-12.6,0-17.5-3.2-17.5-8.7c0-3.1,1.4-4.8,3.8-7.1c-2.3-1-3.1-2.7-3.1-4.6
		c0-1.5,0.8-2.9,2-4.3c1.3-1.3,2.7-2.7,4.3-4.2c-3.4-1.7-6-5.3-6-10.5c0-8,5.3-13.6,16-13.6c3,0,4.8,0.3,6.4,0.7h13.6v5.9L128,26.2
		L128,26.2z"/>
	<path class="st0" d="M146.7,13.5c-4,0-6.3-2.3-6.3-6.3s2.3-6.1,6.3-6.1c4.1,0,6.4,2.2,6.4,6.1C153.1,11.1,150.8,13.5,146.7,13.5
		L146.7,13.5L146.7,13.5z M137.7,55.5V50l3.6-0.5c1-0.1,1.1-0.4,1.1-1.4V27.5c0-0.8-0.2-1.3-0.9-1.5l-3.8-1.3l0.8-5.7H153v29
		c0,1.1,0.1,1.3,1.1,1.4l3.6,0.5v5.5L137.7,55.5L137.7,55.5z"/>
	<path class="st0" d="M185.2,52.8c-3,1.5-7.4,2.8-11.4,2.8c-8.3,0-11.5-3.4-11.5-11.2V26c0-0.4,0-0.7-0.6-0.7h-4.9V19
		c6.2-0.7,8.6-3.8,9.4-11.4h6.6v9.9c0,0.5,0,0.7,0.6,0.7h9.9v7h-10.4V42c0,4.1,1,5.7,4.8,5.7c2,0,4-0.5,5.7-1.1L185.2,52.8"/>
	<path class="st0" d="M81.7,34.3L49.8,2.4c-1.8-1.8-4.8-1.8-6.7,0L36.5,9l8.4,8.4c2-0.7,4.2-0.2,5.8,1.3c1.6,1.6,2,3.8,1.3,5.8
		l8.1,8.1c2-0.7,4.2-0.2,5.8,1.3c2.2,2.2,2.2,5.7,0,7.9c-2.2,2.2-5.7,2.2-7.9,0c-1.6-1.6-2.1-4.1-1.2-6.1l-7.6-7.6v19.9
		c0.5,0.3,1,0.6,1.5,1.1c2.2,2.2,2.2,5.7,0,7.9c-2.2,2.2-5.7,2.2-7.9,0c-2.2-2.2-2.2-5.7,0-7.9c0.5-0.5,1.2-0.9,1.8-1.2V28
		c-0.7-0.3-1.3-0.7-1.8-1.2c-1.7-1.7-2.1-4.1-1.2-6.1l-8.3-8.3l-22,21.9C9.5,36,9.5,39,11.3,41l31.9,31.9c1.8,1.8,4.8,1.8,6.7,0
		L81.7,41C83.5,39.2,83.5,36.2,81.7,34.3"/>
</g>
</svg>
