<svg xmlns="http://www.w3.org/2000/svg" viewBox="0 0 73.88 99.61"><defs><style>.cls-1{fill:#99cabb;}</style></defs><title>Fichier 5</title><g id="Calque_2" data-name="Calque 2"><g id="Calque_1-2" data-name="Calque 1"><path class="cls-1" d="M27,60.49s-4.83,7.38-8.37,12.62c-.55.81,3.54.87,3.54.87L27,60.49Z"/><path class="cls-1" d="M26.38,37a11.88,11.88,0,0,0-8.72-4.71c-4.93-.39-7.28,1.36-7.28,1.36S18.46,34,20.79,37c4.34,5.69,10.66,6.16,11.67,4.91a5.4,5.4,0,0,1-3.83-1.82A21.18,21.18,0,0,1,26.38,37Z"/><path class="cls-1" d="M12.73,48s-9-3.08-7.26-6.2S5.82,37,5.82,37s-5,3.74-3.73,7.71c.78,2.44,2.1,4.2,9.32,7.59,3.46,6.44.72,18,.88,18.07s4.86-2.27,4.55-13.11c-.1-3.33-.36-7.87-4.11-9.24Z"/><path class="cls-1" d="M24.48,14.89c-3.76,1.91-8.91,4.57-8.91,4.57l2,1c-.19.31-.29.5-.29.5l2.08.95s5.08,3.68,8.19,6a52.8,52.8,0,0,0-4.08-8.22,5.46,5.46,0,0,1,1-4.86Z"/><path class="cls-1" d="M37,92.75c-11.56,0-15.47-5.87-15.47-5.87l1.81,4.4c.68,1.9,8,7.82,13.65,7.82"/><path class="cls-1" d="M15.68,73.12A46.89,46.89,0,0,0,17.81,64a102.23,102.23,0,0,0,.32-11.3S17,57.14,16,57.85s-2.84,5.53-2.84,5.53-1,7.18-1.46,9.6c1.3.26,2.4-.51,4,.14Z"/><path class="cls-1" d="M5.4,44.65s2.41-.85,3.12-6.1a23.7,23.7,0,0,0-.85-9.79S7.81,36,7,37.41,5.4,39.26,4.41,41.1s.43,3,1,3.55Z"/><path class="cls-1" d="M8.28,10.58l-.49-.31c-1.45,0,.49.31.49.31Z"/><path class="cls-1" d="M10.11,20c-1.87-1.55-.48-3-.63-4.76A5.9,5.9,0,0,0,9,12.88C7.3,10.15,3.23,9.33,3.19,9.32L1.28,8.94,2.54,7.47A13.46,13.46,0,0,1,15.93,4.91c5.62,1.81,9.78,8,9.93,8.21L23,14.45c0-.05-3.32-5.83-8.14-7.38a12.34,12.34,0,0,0-9,.72,10.56,10.56,0,0,1,5.06,3.88A7.34,7.34,0,0,1,11.75,15c.13,1.55.25,3,1.39,4l-3,1Z"/><path class="cls-1" d="M5.11,42.65S7.47,39.73,8.17,34a21.49,21.49,0,0,0-1-8.37A34.24,34.24,0,0,1,6.25,34s-.72,7.77-1.14,8.63Z"/><path class="cls-1" d="M17.56,17s-.76-3.31-2.85-5A7.42,7.42,0,0,0,8.1,10.93L7.57,9.31a9.72,9.72,0,0,1,8.11,1.32C19.51,13.32,20,15.75,20,16l-2.45,1Z"/><path class="cls-1" d="M10.11,20c-1.87-1.55-.48-3-.63-4.76A5.9,5.9,0,0,0,9,12.88C7.3,10.15,3.23,9.33,3.19,9.32L1.28,8.94,2.54,7.47A13.46,13.46,0,0,1,15.93,4.91c5.62,1.81,9.78,8,9.93,8.21L23,14.45c0-.05-3.32-5.83-8.14-7.38a12.34,12.34,0,0,0-9,.72,10.56,10.56,0,0,1,5.06,3.88A7.34,7.34,0,0,1,11.75,15c.13,1.55.25,3,1.39,4l-3,1Z"/><path class="cls-1" d="M17.56,17s-.76-3.31-2.85-5A7.42,7.42,0,0,0,8.1,10.93L7.57,9.31a9.72,9.72,0,0,1,8.11,1.32C19.51,13.32,20,15.75,20,16l-2.45,1Z"/><path class="cls-1" d="M25,95.86c-10.78-.83-14.57-11-14.57-13.13h2.81c0,.92,2.88,9.63,12,10.33L25,95.86Z"/><path class="cls-1" d="M22,77.61a7.07,7.07,0,0,1,0-2.8,12.81,12.81,0,0,0-3.39-1.2c-.9-.57-5.52.58-8.86-3.47C5.56,65.07,6.44,62,6.44,62c-1.08,1.19-2.12.74-3.76,6.31s.77,9.46,5.27,13.36a14.3,14.3,0,0,0,7.71,2.89c-.86-.87,1.48-1,3.09-1.56a4.32,4.32,0,0,1,1.06-3.59,5.49,5.49,0,0,1,2.12-1.27l.12-.29a2.49,2.49,0,0,1-.07-.27Z"/><path class="cls-1" d="M18.72,83c-.09-.27-.16-.55-.23-.83S18,81,18.5,82a3.67,3.67,0,0,1-.25-.78c-7.28,0-13.61-5-12.39-15.52-1-1.27-2.29,2.55-2.29,2.55S-.07,78.83,9.34,82.93c3.14,1.37,5.91,2.35,6.56,2A3.29,3.29,0,0,0,19,83.58c-.09-.19-.17-.38-.23-.58Z"/><path class="cls-1" d="M46.85,60.49s4.82,7.38,8.37,12.62c.55.81-3.54.87-3.54.87L46.85,60.49Z"/><path class="cls-1" d="M44.55,45.19S46,48.82,46.8,50.75c.86,2.09,4.16,3.13,4.16,3.13s-1.71-1.79-1.71-6.34c0-1.91-2.46-2.66-2.46-2.66l-2.24.31Z"/><path class="cls-1" d="M47.51,37a11.87,11.87,0,0,1,8.72-4.71c4.94-.39,7.28,1.36,7.28,1.36S55.42,34,53.09,37C48.75,42.74,42.43,43.21,41.42,42a5.39,5.39,0,0,0,3.83-1.82A21.21,21.21,0,0,0,47.51,37Z"/><path class="cls-1" d="M61.15,48s9-3.08,7.26-6.2S68.07,37,68.07,37s5,3.74,3.73,7.71c-.78,2.44-2.1,4.2-9.32,7.59-3.46,6.44-.72,18-.88,18.07S56.73,68.12,57,57.28c.1-3.33.36-7.87,4.11-9.24Z"/><path class="cls-1" d="M49.4,14.89c3.76,1.91,8.91,4.57,8.91,4.57l-2,1c.19.31.29.5.29.5l-2.08.95s-5.08,3.68-8.19,6a52.73,52.73,0,0,1,4.08-8.22,5.46,5.46,0,0,0-1-4.86Z"/><path class="cls-1" d="M36.91,92.75c11.55,0,15.47-5.87,15.47-5.87l-1.8,4.4c-.68,1.9-8,7.82-13.65,7.82"/><path class="cls-1" d="M68.48,44.65s-2.41-.85-3.12-6.1a23.71,23.71,0,0,1,.85-9.79s-.14,7.24.71,8.66,1.56,1.84,2.55,3.69-.43,3-1,3.55Z"/><path class="cls-1" d="M65.6,10.58l.49-.31c1.45,0-.49.31-.49.31Z"/><path class="cls-1" d="M63.77,20c1.87-1.55.48-3,.63-4.76a5.87,5.87,0,0,1,.46-2.32c1.72-2.72,5.79-3.55,5.84-3.56l1.91-.37L71.34,7.47A13.46,13.46,0,0,0,58,4.91c-5.62,1.81-9.78,8-9.93,8.21l2.82,1.32c0-.05,3.32-5.83,8.14-7.38a12.33,12.33,0,0,1,9,.72,10.57,10.57,0,0,0-5.06,3.88A7.34,7.34,0,0,0,62.13,15c-.13,1.55-.25,3-1.4,4l3,1Z"/><path class="cls-1" d="M68.77,42.65S66.41,39.73,65.72,34a21.5,21.5,0,0,1,1-8.37A34.21,34.21,0,0,0,67.63,34s.72,7.77,1.14,8.63Z"/><path class="cls-1" d="M56.32,17s.76-3.31,2.86-5a7.42,7.42,0,0,1,6.6-1.09l.53-1.62a9.72,9.72,0,0,0-8.11,1.32c-3.83,2.69-4.29,5.13-4.33,5.4l2.45,1Z"/><path class="cls-1" d="M63.77,20c1.87-1.55.48-3,.63-4.76a5.87,5.87,0,0,1,.46-2.32c1.72-2.72,5.79-3.55,5.84-3.56l1.91-.37L71.34,7.47A13.46,13.46,0,0,0,58,4.91c-5.62,1.81-9.78,8-9.93,8.21l2.82,1.32c0-.05,3.32-5.83,8.14-7.38a12.33,12.33,0,0,1,9,.72,10.57,10.57,0,0,0-5.06,3.88A7.34,7.34,0,0,0,62.13,15c-.13,1.55-.25,3-1.4,4l3,1Z"/><path class="cls-1" d="M56.32,17s.76-3.31,2.86-5a7.42,7.42,0,0,1,6.6-1.09l.53-1.62a9.72,9.72,0,0,0-8.11,1.32c-3.83,2.69-4.29,5.13-4.33,5.4l2.45,1Z"/><path class="cls-1" d="M36.94,33.07c-1.93,0-4.45-.05-6.33-1.41,0,0,2.47,4.33,6.33,4.33v0c3.86,0,6.33-4.33,6.33-4.33-1.89,1.36-4.41,1.41-6.33,1.41Z"/><path class="cls-1" d="M42.25,33a10.37,10.37,0,0,1-5.31,1.61A10.37,10.37,0,0,1,31.63,33s2.82,3.44,5.3,3.47h0c2.48,0,5.3-3.47,5.3-3.47Z"/><path class="cls-1" d="M51.9,77.61a7.06,7.06,0,0,0,0-2.8,12.82,12.82,0,0,1,3.39-1.2c.9-.57,5.52.58,8.86-3.47,4.19-5.07,3.31-8.1,3.31-8.1,1.08,1.19,2.12.74,3.76,6.31s-.77,9.46-5.27,13.36a14.3,14.3,0,0,1-7.71,2.89c.86-.87-1.48-1-3.09-1.56a4.32,4.32,0,0,0-1.06-3.59A5.48,5.48,0,0,0,52,78.18l-.12-.29a2.49,2.49,0,0,0,.07-.27Z"/><path class="cls-1" d="M67.53,61.73a14.14,14.14,0,0,1-4.78,8.5A114.79,114.79,0,0,1,62,58.1,6.52,6.52,0,0,1,64.4,53c.49-.29,1-.58,1.62-.89,3.5-1.88,7.86-4.21,7.86-8.51a6.24,6.24,0,0,0-3-5.41l-.42-.32a2.93,2.93,0,0,1-.84-.85,15.41,15.41,0,0,1-.32-7.32c.11-.13,3.26-4.07,2.29-7.62a5.2,5.2,0,0,0-2.75-3.31,9.1,9.1,0,0,0-3.8-.86,6.82,6.82,0,0,0-.18-1.15,5.31,5.31,0,0,1-.18-1.57A5.82,5.82,0,0,1,65.1,13c1.64-2.59,5.61-3.42,5.65-3.43l2.39-.47L71.56,7.28a13.3,13.3,0,0,0-9-3.4,15.24,15.24,0,0,0-4.69.76c-4.73,1.52-8.36,6-9.61,7.65q-.91-.28-1.84-.51c-.83-3.07,1.73-7.5,1.73-7.5s-2.64-.59-6.55,3A9.6,9.6,0,0,1,41.25,0c-5.73,2-7.18,5.11-7.61,7.92-1.47-1.05-1.31-4.49-1.39-5.37-1.46.17-5.67,4.26-5.48,9.4-.38.1-.76.23-1.14.34C24.38,10.6,20.74,6.17,16,4.64a15.24,15.24,0,0,0-4.68-.76,13.3,13.3,0,0,0-9,3.4L.75,9.13l2.39.47s4,.84,5.65,3.43a5.8,5.8,0,0,1,.42,2.19A5.31,5.31,0,0,1,9,16.79a6.81,6.81,0,0,0-.18,1.16,9.09,9.09,0,0,0-3.8.86A5.19,5.19,0,0,0,2.3,22.11c-1,3.54,2.18,7.49,2.29,7.62A15.4,15.4,0,0,1,4.26,37a2.93,2.93,0,0,1-.84.85L3,38.22a6.24,6.24,0,0,0-3,5.41c0,4.3,4.36,6.63,7.86,8.51.57.31,1.12.6,1.62.89a6.53,6.53,0,0,1,2.37,5.07,115.32,115.32,0,0,1-.72,12.13,14.13,14.13,0,0,1-4.78-8.51s-5.69,4.39-4,13.78C3.85,84,10.88,87,18.95,87.63c2.7,6.31,7.29,12,18.13,12,5.56,0,9.44-1.51,12.26-3.81A16.21,16.21,0,0,0,62.4,86.17c4.65-1.68,8.15-4.89,9.18-10.66C73.25,66.12,67.53,61.73,67.53,61.73ZM36.94,96.92C25.16,96.9,21.71,88,20.43,84.32c-.71-2-.66-3.55.17-4.49.56-.64,1.85-1.41,4.79-1.41H48.5c2.94,0,4.23.76,4.79,1.41.82.94.88,2.45.17,4.49C52.17,88,48.72,96.9,36.94,96.92Zm15.74-4.82a26.75,26.75,0,0,0,2.39-4.47,34.25,34.25,0,0,0,3.56-.46A13.39,13.39,0,0,1,52.68,92.09Zm4-10.93a4.8,4.8,0,0,0-1.27-2.86c-1-1.09-2.85-2.43-7.12-2.43,0,0-8.08-.06-11.36-.06h0c-3.27,0-11.36.06-11.36.06-4.26,0-6.11,1.32-7.12,2.41-1.4,1.52-1.66,3.62-.79,6.21-4.39-.07-9-2-11.32-5.8s-1.7-10.5-.73-11.48c2.37,7.47,8.92,9,14.26,8.87a5.83,5.83,0,0,1,.62-2.6l.1-.17A15.33,15.33,0,0,1,13.94,72a127.33,127.33,0,0,0,.67-14.75,8.14,8.14,0,0,0-3.71-6.65c-.53-.3-1.08-.6-1.64-.9-2.89-1.56-5.88-3.18-5.88-5.94a3.81,3.81,0,0,1,1.73-3.55l.1-.08a5.15,5.15,0,0,0,1.65-1.9c1.08-2.42,1.25-8.6,0-10.17-.63-.78-2.3-3.41-1.82-5.17a2.36,2.36,0,0,1,1.3-1.53,6.5,6.5,0,0,1,2.93-.56,23.07,23.07,0,0,1,6.4,1.16c4.88,1.55,10.77,6,12.46,7.34l.08.06,1.08.75L28.62,29a25.49,25.49,0,0,0-10.34-9c.39-.56,1.42-1.58,4.2-2.94A32.77,32.77,0,0,1,36.94,13.9,32.76,32.76,0,0,1,51.4,17c2.78,1.36,3.82,2.38,4.2,2.94a25.5,25.5,0,0,0-10.34,9l-.68,1.13,1.08-.75.08-.06c1.69-1.33,7.58-5.79,12.46-7.34a23.06,23.06,0,0,1,6.4-1.16,6.5,6.5,0,0,1,2.93.56,2.37,2.37,0,0,1,1.3,1.53c.48,1.77-1.2,4.39-1.82,5.17-1.25,1.57-1.08,7.74,0,10.17a5.14,5.14,0,0,0,1.65,1.9l.09.08a3.81,3.81,0,0,1,1.73,3.55c0,2.76-3,4.37-5.88,5.94-.56.3-1.11.6-1.64.9a8.14,8.14,0,0,0-3.71,6.65c0,.7-.05,1.65,0,2.75a6.89,6.89,0,0,0-1.36-2.12c-1-.71-2.13-5.11-2.13-5.11A102.1,102.1,0,0,0,56.07,64,47,47,0,0,0,58,72.58c-2.22.55,2.31.71.19.73,0,.06-3.87.11-3.84.17.43.86,1.59,1.72,1.6,2.6,5.27.13,9.69-1.36,12.18-8.58C68.46,76.29,63.09,80.71,56.7,81.16Z"/><path class="cls-1" d="M73,43.46c-.73-2.44-4.63-5.85-4.63-5.85s-1-6.09-.24-7.55,5.12-5.12,2.68-7.8S64,19.58,64,19.58l-5.6.49s-9.5-8.53-21.93-8a33,33,0,0,0-20.23,8s-4.14-1.46-7.8,0-4.38,0-3.65,4.14c0,0,1.71,6.58,1.95,8.77S2.33,40,2.33,42.49a9.51,9.51,0,0,0,6.34,9c5.36,2.19,6.09,7.8,6.09,11.21s-1.95,10-1.95,10S11.59,89,18.17,92s5.12,2.92,6.58,2.92,12.18,4.39,18.52,2.68,8-3.66,8-3.66,6.34.49,8.29-5.12S62.77,71.49,62,66.12,60.33,53.7,64.71,51.26,73.73,45.9,73,43.46ZM18.12,78.78a27.74,27.74,0,0,0,4.61-8c.13-.38,3.81-9.93,5.13-12.11a87.84,87.84,0,0,1-5.25,19.21C22.38,78.59,18.12,78.78,18.12,78.78Zm14.47,4.45A14.17,14.17,0,0,1,30.06,87a2.89,2.89,0,0,1-2.15.87A3.58,3.58,0,0,1,25.62,87,10.09,10.09,0,0,1,23,83.51,1.34,1.34,0,0,1,23.13,82,2.39,2.39,0,0,1,25,81.11l.76-.31h5a2.44,2.44,0,0,1,1.72.82A1.72,1.72,0,0,1,32.59,83.23ZM29.21,45.4c.23,3-2.69,6.33-2.69,6.33s1.08-2.92.52-4.91a15.38,15.38,0,0,0-.58-1.65c-3.75,3.36-9.33.3-10.67-1.18-2.89-3.2-2.58-7.62-2.36-9.24a20,20,0,0,0-3.18-1c8.22-2,14.28,4,16.17,6.18a5.6,5.6,0,0,0,6.91,1.7C33.39,43.76,31.32,45.31,29.21,45.4ZM50.93,83.51A10.08,10.08,0,0,1,48.26,87a3.58,3.58,0,0,1-2.29.82A2.88,2.88,0,0,1,43.83,87a14.19,14.19,0,0,1-2.54-3.76,1.72,1.72,0,0,1,.17-1.6,2.44,2.44,0,0,1,1.72-.82h5l.76.31a2.4,2.4,0,0,1,1.84.71A1.6,1.6,0,0,1,50.93,83.51Zm.34-5.68A87.94,87.94,0,0,1,46,58.63c1.32,2.18,5,11.73,5.13,12.11a27.75,27.75,0,0,0,4.61,8S51.5,78.59,51.27,77.84ZM40.55,41.6a5.6,5.6,0,0,0,6.91-1.7c1.89-2.18,8-8.17,16.17-6.18a20.05,20.05,0,0,0-3.18,1c.23,1.62.53,6-2.36,9.24-1.34,1.48-6.92,4.54-10.67,1.18a15.43,15.43,0,0,0-.58,1.65c-.57,2,.52,4.91.52,4.91"/></g></g></svg>