<?xml version="1.0" encoding="utf-8"?>
<!-- Generator: Adobe Illustrator 20.1.0, SVG Export Plug-In . SVG Version: 6.00 Build 0)  -->
<svg version="1.1" id="Calque_1" xmlns="http://www.w3.org/2000/svg" xmlns:xlink="http://www.w3.org/1999/xlink" x="0px" y="0px"
	 viewBox="0 0 75.5 101.8" style="enable-background:new 0 0 75.5 101.8;" xml:space="preserve">
<style type="text/css">
	.st0{fill:#0493AA;}
</style>
<g id="Calque_2">
</g>
<g id="Calque_1_1_">
	<g>
		<path class="st0" d="M27.7,61.6c0,0-4.8,7.4-8.4,12.6c-0.5,0.8,3.5,0.9,3.5,0.9L27.7,61.6L27.7,61.6z"/>
		<path class="st0" d="M27,38.1c-2.2-3.1-5.8-4.5-8.7-4.7C13.4,33,11,34.8,11,34.8s8.1,0.3,10.4,3.4c4.3,5.7,10.7,6.2,11.7,4.9
			c-1.2,0.1-2.5-0.5-3.8-1.8C28.4,40.4,27.7,39.1,27,38.1L27,38.1L27,38.1z"/>
		<path class="st0" d="M13.4,49.2c0,0-9-3.1-7.3-6.2c1.7-3.1,0.3-4.8,0.3-4.8s-5,3.7-3.7,7.7c0.8,2.4,2.1,4.2,9.3,7.6
			c3.5,6.4,0.7,18,0.9,18.1c0.3,0.1,4.9-2.3,4.6-13.1C17.4,55.1,17.1,50.5,13.4,49.2L13.4,49.2L13.4,49.2z"/>
		<path class="st0" d="M25.1,16c-3.8,1.9-8.9,4.6-8.9,4.6l2,1c-0.2,0.3-0.3,0.5-0.3,0.5L20,23c0,0,5.1,3.7,8.2,6
			c-1-3.2-4.1-8.2-4.1-8.2S23.3,18.6,25.1,16L25.1,16L25.1,16z"/>
		<path class="st0" d="M37.6,93.9C26,93.9,22.1,88,22.1,88l1.8,4.4c0.7,1.9,8,7.8,13.6,7.8"/>
		<path class="st0" d="M16.3,74.3c0.4-1,1.7-5.3,2.1-9.1c0.5-4.6,0.3-11.3,0.3-11.3s-1.1,4.4-2.1,5.1c-1,0.7-2.8,5.5-2.8,5.5
			s-1,7.2-1.5,9.6C13.6,74.4,14.7,73.6,16.3,74.3L16.3,74.3L16.3,74.3z"/>
		<path class="st0" d="M6,45.8c0,0,2.4-0.9,3.1-6.1c0.7-5.3-0.9-9.8-0.9-9.8s0.1,7.2-0.7,8.7c-0.9,1.4-1.6,1.8-2.6,3.7
			C4,44.1,5.5,45.2,6,45.8L6,45.8L6,45.8z"/>
		<path class="st0" d="M8.9,11.7l-0.5-0.3C7,11.4,8.9,11.7,8.9,11.7L8.9,11.7L8.9,11.7z"/>
		<path class="st0" d="M10.7,21.1c-1.9-1.6-0.5-3-0.6-4.8C10,15.4,9.9,14.5,9.6,14c-1.7-2.7-5.8-3.5-5.8-3.6L1.9,10l1.3-1.5
			c0.2-0.2,5.4-5.1,13.4-2.6c5.6,1.8,9.8,8,9.9,8.2l-2.8,1.3c0-0.1-3.3-5.8-8.1-7.4c-3.9-1.3-7.5-0.1-9,0.7c1.6,0.7,3.8,1.8,5.1,3.9
			c0.6,1,0.7,2.2,0.8,3.3c0.1,1.6,0.3,3,1.4,4L10.7,21.1L10.7,21.1z"/>
		<path class="st0" d="M5.7,43.8c0,0,2.4-2.9,3.1-8.6c0.3-2.2-0.2-6.7-1-8.4c0.1,4.2-0.9,8.4-0.9,8.4S6.2,42.9,5.7,43.8L5.7,43.8
			L5.7,43.8z"/>
		<path class="st0" d="M18.2,18.1c0,0-0.8-3.3-2.9-5c-3-2.4-6.6-1.1-6.6-1.1l-0.5-1.6c0.2-0.1,4.3-1.4,8.1,1.3s4.3,5.1,4.3,5.4
			L18.2,18.1L18.2,18.1z"/>
		<path class="st0" d="M10.7,21.1c-1.9-1.6-0.5-3-0.6-4.8C10,15.4,9.9,14.5,9.6,14c-1.7-2.7-5.8-3.5-5.8-3.6L1.9,10l1.3-1.5
			c0.2-0.2,5.4-5.1,13.4-2.6c5.6,1.8,9.8,8,9.9,8.2l-2.8,1.3c0-0.1-3.3-5.8-8.1-7.4c-3.9-1.3-7.5-0.1-9,0.7c1.6,0.7,3.8,1.8,5.1,3.9
			c0.6,1,0.7,2.2,0.8,3.3c0.1,1.6,0.3,3,1.4,4L10.7,21.1L10.7,21.1z"/>
		<path class="st0" d="M18.2,18.1c0,0-0.8-3.3-2.9-5c-3-2.4-6.6-1.1-6.6-1.1l-0.5-1.6c0.2-0.1,4.3-1.4,8.1,1.3s4.3,5.1,4.3,5.4
			L18.2,18.1L18.2,18.1z"/>
		<path class="st0" d="M25.6,97C14.8,96.2,11,86,11,83.9h2.8h-1.4h1.4c0,0.9,2.9,9.6,12,10.3L25.6,97L25.6,97z"/>
		<path class="st0" d="M22.6,78.7c-0.2-1-0.2-1.9,0-2.8c-0.8-0.6-2.3-0.8-3.4-1.2c-0.9-0.6-5.5,0.6-8.9-3.5C6.1,66.1,7,63.1,7,63.1
			c-1.1,1.2-2.1,0.7-3.8,6.3C1.6,75,4,78.9,8.5,82.8c2.1,1.8,5.1,2.6,7.7,2.9c-0.9-0.9,1.5-1,3.1-1.6c-0.1-1.3,0.1-2.6,1.1-3.6
			c0.6-0.6,1.3-1,2.1-1.3c0-0.1,0.1-0.2,0.1-0.3C22.7,78.9,22.6,78.8,22.6,78.7L22.6,78.7L22.6,78.7z"/>
		<path class="st0" d="M19.4,84.1c-0.1-0.3-0.2-0.6-0.2-0.8c-0.1-0.3-0.4-1.2,0-0.2c-0.1-0.3-0.2-0.5-0.3-0.8
			c-7.3,0-13.6-5-12.4-15.5c-1-1.3-2.3,2.6-2.3,2.6S0.6,80,10,84.1c3.1,1.4,5.9,2.3,6.6,2c1.4,0.3,2.6-0.7,3.1-1.3
			C19.5,84.5,19.4,84.3,19.4,84.1L19.4,84.1L19.4,84.1z"/>
		<path class="st0" d="M47.5,61.6c0,0,4.8,7.4,8.4,12.6c0.5,0.8-3.5,0.9-3.5,0.9L47.5,61.6L47.5,61.6z"/>
		<path class="st0" d="M45.2,46.3c0,0,1.5,3.6,2.3,5.6c0.9,2.1,4.2,3.1,4.2,3.1S50,53.2,50,48.7c0-1.9-2.5-2.7-2.5-2.7L45.2,46.3
			L45.2,46.3z"/>
		<path class="st0" d="M48.1,38.1c2.2-3.1,5.8-4.5,8.7-4.7c4.9-0.4,7.3,1.4,7.3,1.4s-8.1,0.3-10.4,3.4C49.4,43.9,43,44.4,42,43.1
			c1.2,0.1,2.5-0.5,3.8-1.8C46.7,40.4,47.4,39.1,48.1,38.1L48.1,38.1L48.1,38.1z"/>
		<path class="st0" d="M61.8,49.2c0,0,9-3.1,7.3-6.2c-1.7-3.1-0.3-4.8-0.3-4.8s5,3.7,3.7,7.7c-0.8,2.4-2.1,4.2-9.3,7.6
			c-3.5,6.4-0.7,18-0.9,18.1c-0.3,0.1-4.9-2.3-4.6-13.1C57.8,55.1,58,50.5,61.8,49.2L61.8,49.2L61.8,49.2z"/>
		<path class="st0" d="M50,16c3.8,1.9,8.9,4.6,8.9,4.6l-2,1c0.2,0.3,0.3,0.5,0.3,0.5L55.1,23c0,0-5.1,3.7-8.2,6
			c1-3.2,4.1-8.2,4.1-8.2S51.9,18.6,50,16L50,16L50,16z"/>
		<path class="st0" d="M37.5,93.9C49.1,93.9,53,88,53,88l-1.8,4.4c-0.7,1.9-8,7.8-13.6,7.8"/>
		<path class="st0" d="M69.1,45.8c0,0-2.4-0.9-3.1-6.1c-0.7-5.3,0.9-9.8,0.9-9.8s-0.1,7.2,0.7,8.7c0.9,1.4,1.6,1.8,2.6,3.7
			C71.1,44.1,69.7,45.2,69.1,45.8L69.1,45.8L69.1,45.8z"/>
		<path class="st0" d="M66.2,11.7l0.5-0.3C68.2,11.4,66.2,11.7,66.2,11.7L66.2,11.7L66.2,11.7z"/>
		<path class="st0" d="M64.4,21.1c1.9-1.6,0.5-3,0.6-4.8c0.1-0.9,0.2-1.8,0.5-2.3c1.7-2.7,5.8-3.5,5.8-3.6l1.9-0.4l-1.3-1.5
			c-0.2-0.2-5.4-5.1-13.4-2.6c-5.6,1.8-9.8,8-9.9,8.2l2.8,1.3c0-0.1,3.3-5.8,8.1-7.4c3.9-1.3,7.5-0.1,9,0.7
			c-1.6,0.7-3.8,1.8-5.1,3.9c-0.6,1-0.7,2.2-0.8,3.3c-0.1,1.6-0.3,3-1.4,4L64.4,21.1L64.4,21.1z"/>
		<path class="st0" d="M69.4,43.8c0,0-2.4-2.9-3.1-8.6c-0.3-2.2,0.2-6.7,1-8.4c-0.1,4.2,0.9,8.4,0.9,8.4S69,42.9,69.4,43.8
			L69.4,43.8L69.4,43.8z"/>
		<path class="st0" d="M57,18.1c0,0,0.8-3.3,2.9-5c3-2.4,6.6-1.1,6.6-1.1l0.5-1.6c-0.2-0.1-4.3-1.4-8.1,1.3
			c-3.8,2.7-4.3,5.1-4.3,5.4L57,18.1L57,18.1z"/>
		<path class="st0" d="M64.4,21.1c1.9-1.6,0.5-3,0.6-4.8c0.1-0.9,0.2-1.8,0.5-2.3c1.7-2.7,5.8-3.5,5.8-3.6l1.9-0.4l-1.3-1.5
			c-0.2-0.2-5.4-5.1-13.4-2.6c-5.6,1.8-9.8,8-9.9,8.2l2.8,1.3c0-0.1,3.3-5.8,8.1-7.4c3.9-1.3,7.5-0.1,9,0.7
			c-1.6,0.7-3.8,1.8-5.1,3.9c-0.6,1-0.7,2.2-0.8,3.3c-0.1,1.6-0.3,3-1.4,4L64.4,21.1L64.4,21.1z"/>
		<path class="st0" d="M57,18.1c0,0,0.8-3.3,2.9-5c3-2.4,6.6-1.1,6.6-1.1l0.5-1.6c-0.2-0.1-4.3-1.4-8.1,1.3
			c-3.8,2.7-4.3,5.1-4.3,5.4L57,18.1L57,18.1z"/>
		<path class="st0" d="M37.6,34.2c-1.9,0-4.4-0.1-6.3-1.4c0,0,2.5,4.3,6.3,4.3v-0.5v0.5c3.9,0,6.3-4.3,6.3-4.3
			C42,34.1,39.5,34.2,37.6,34.2L37.6,34.2L37.6,34.2z"/>
		<path class="st0" d="M42.9,34.2c-1.9,1.2-3.7,1.6-5.3,1.6s-3.4-0.4-5.3-1.6c0,0,2.8,3.4,5.3,3.5l0,0l0,0l0,0l0,0
			C40.1,37.6,42.9,34.2,42.9,34.2L42.9,34.2L42.9,34.2z"/>
		<path class="st0" d="M52.5,78.7c0.2-1,0.2-1.9,0-2.8c0.8-0.6,2.3-0.8,3.4-1.2c0.9-0.6,5.5,0.6,8.9-3.5c4.2-5.1,3.3-8.1,3.3-8.1
			c1.1,1.2,2.1,0.7,3.8,6.3c1.6,5.6-0.8,9.5-5.3,13.4c-2.1,1.8-5.1,2.6-7.7,2.9c0.9-0.9-1.5-1-3.1-1.6c0.1-1.3-0.1-2.6-1.1-3.6
			c-0.6-0.6-1.3-1-2.1-1.3c0-0.1-0.1-0.2-0.1-0.3C52.5,78.9,52.5,78.8,52.5,78.7L52.5,78.7L52.5,78.7z"/>
		<path class="st0" d="M68.2,62.9c-0.5,3.5-2.5,6.6-4.8,8.5c-0.6-4.4-0.7-10.8-0.7-12.1c0-2.9,1.8-4.8,2.4-5.1
			c0.5-0.3,1-0.6,1.6-0.9c3.5-1.9,7.9-4.2,7.9-8.5c0-3.1-1.8-4.5-3-5.4c-0.2-0.1-0.3-0.2-0.4-0.3c-0.4-0.3-0.7-0.6-0.8-0.8
			c-0.8-1.9-0.7-6.7-0.3-7.3c0.1-0.1,3.3-4.1,2.3-7.6c-0.4-1.4-1.3-2.6-2.7-3.3c-1-0.5-2.3-0.8-3.8-0.9c0-0.4-0.1-0.8-0.2-1.2
			c-0.1-0.5-0.2-1-0.2-1.6c0.1-0.9,0.1-1.8,0.4-2.2c1.6-2.6,5.6-3.4,5.7-3.4l2.4-0.5l-1.6-1.8c0,0-3.4-3.4-9-3.4
			c-1.5,0-3.1,0.3-4.7,0.8c-4.7,1.5-8.4,6-9.6,7.7c-0.6-0.2-1.2-0.4-1.8-0.5C46.5,10,49,5.6,49,5.6s-2.6-0.6-6.5,3
			c-0.5-1.3-1.6-4-0.3-7.2c-5.7,2-7.2,5.1-7.6,7.9c-1.5-1.1-1.3-4.5-1.4-5.4c-1.5,0.2-5.7,4.3-5.5,9.4c-0.4,0.1-0.8,0.2-1.1,0.3
			c-1.3-1.7-4.9-6.1-9.6-7.7c-1.6-0.5-3.1-0.8-4.7-0.8c-5.6,0-9,3.4-9,3.4l-1.6,1.8l2.4,0.5c0,0,4,0.8,5.7,3.4
			c0.3,0.4,0.3,1.3,0.4,2.2c0,0.5-0.1,1.1-0.2,1.6c-0.1,0.4-0.2,0.8-0.2,1.2C8.3,19.3,7,19.5,6,20.1c-1.4,0.7-2.4,1.9-2.7,3.3
			c-1,3.5,2.2,7.5,2.3,7.6c0.4,0.7,0.5,5.4-0.3,7.3c-0.1,0.3-0.4,0.5-0.8,0.8c-0.1,0.1-0.3,0.2-0.4,0.3c-1.2,0.9-3,2.3-3,5.4
			c0,4.3,4.4,6.6,7.9,8.5c0.6,0.3,1.1,0.6,1.6,0.9c0.5,0.3,2.4,2.2,2.4,5.1c0,1.3-0.1,7.7-0.7,12.1c-2.2-1.9-4.3-5-4.8-8.5
			c0,0-5.7,4.4-4,13.8c1,8.5,8,11.4,16.1,12.1c2.7,6.3,7.3,12,18.1,12c5.6,0,9.4-1.5,12.3-3.8c7.4-0.8,11.4-5.9,13.1-9.6
			c4.7-1.7,8.2-4.9,9.2-10.7C73.9,67.2,68.2,62.9,68.2,62.9z M37.6,98c-11.8,0-15.2-8.9-16.5-12.6c-0.7-2-0.7-3.5,0.2-4.5
			c0.6-0.6,1.9-1.4,4.8-1.4h3.1c2.3,0,5.1,0,8.5,0s6.2,0,8.5,0h3.1c2.9,0,4.2,0.8,4.8,1.4c0.8,0.9,0.9,2.4,0.2,4.5
			C52.8,89.1,49.4,98,37.6,98z M53.3,93.2c0.9-1.4,1.7-2.9,2.4-4.5c1.2-0.1,2.4-0.3,3.6-0.5C58,90.1,56.1,92.1,53.3,93.2z
			 M57.3,82.3c-0.1-1.1-0.5-2.1-1.3-2.9c-1-1.1-2.9-2.7-7.1-2.7c0,0-8.1-0.3-11.4-0.3l0,0l0,0c-3.3,0-11.4,0.3-11.4,0.3
			c-4.3,0-6.1,1.4-7.1,2.5c-1.4,1.5-1.7,3.7-0.8,6.3c-4.4-0.1-9-1.9-11.3-5.8c-2.4-3.9-1.7-10.5-0.7-11.5c2.4,7.5,8.9,9,14.3,8.9
			c0-0.9,0.2-1.7,0.6-2.6c0-0.1,0.1-0.1,0.1-0.2c-2.8,0-3.9-0.3-6.7-1.3c0.5-5,0.8-11.9,0.7-14.8c-0.2-3.4-2-5.7-3.7-6.7
			c-0.5-0.3-1.1-0.6-1.6-0.9C7,49,4,47.4,4,44.7c0-2.2,0.8-2.8,1.7-3.5l0.1-0.1c0.6-0.5,1.3-1,1.7-1.9c1.1-2.4,1.3-8.6,0-10.2
			c-0.6-0.8-2.3-3.4-1.8-5.2c0.2-0.7,0.6-1.2,1.3-1.5c0.7-0.4,1.7-0.6,2.9-0.6c2.4,0,5,0.7,6.4,1.2c4.9,1.5,10.8,6,12.5,7.3l0.1,0.1
			l1.1,0.8L29.3,30c0-0.1-3.7-6.1-10.3-9c0.4-0.6,1.4-1.6,4.2-2.9c4.2-2,9-3.1,14.5-3.1c5.4,0,10.3,1,14.5,3.1
			c2.8,1.4,3.8,2.4,4.2,2.9c-6.6,2.9-10.3,9-10.3,9l-0.7,1.1l1.1-0.8c0,0,0,0,0.1-0.1c1.7-1.3,7.6-5.8,12.5-7.3
			c1.4-0.4,4-1.2,6.4-1.2c1.2,0,2.2,0.2,2.9,0.6c0.7,0.4,1.1,0.9,1.3,1.5c0.5,1.8-1.2,4.4-1.8,5.2c-1.3,1.6-1.1,7.7,0,10.2
			c0.4,0.9,1.1,1.4,1.7,1.9l0.1,0.1c0.9,0.7,1.7,1.4,1.7,3.5c0,2.8-3,4.4-5.9,5.9c-0.6,0.3-1.1,0.6-1.6,0.9c-1.7,1-3.5,3.3-3.7,6.7
			c0,0.7-0.1,1.6,0,2.7c-0.5-1-1-1.8-1.4-2.1c-1-0.7-2.1-5.1-2.1-5.1S56.5,60.4,57,65c0.4,3.3,1.4,7,1.9,8.5
			c-2.2,0.6,2.3,0.7,0.2,0.7c0,0.1-3.9,0.1-3.8,0.2c0.4,0.9,1.6,1.7,1.6,2.6c5.3,0.1,9.7-1.4,12.2-8.6
			C69.1,77.4,63.7,81.8,57.3,82.3z"/>
		<g>
			<path class="st0" d="M73.6,44.6c-0.7-2.4-4.6-5.8-4.6-5.8s-1-6.1-0.2-7.6c0.7-1.5,5.1-5.1,2.7-7.8s-6.8-2.7-6.8-2.7l-5.6,0.5
				c0,0-9.5-8.5-21.9-8s-20.2,8-20.2,8s-4.1-1.5-7.8,0s-4.4,0-3.7,4.1c0,0,1.7,6.6,1.9,8.8S3,41.2,3,43.6s1,6.8,6.3,9
				c5.4,2.2,6.1,7.8,6.1,11.2s-1.9,10-1.9,10s-1.2,16.3,5.4,19.3C25.5,96,24,96,25.5,96s12.2,4.4,18.5,2.7c6.3-1.7,8-3.7,8-3.7
				s6.3,0.5,8.3-5.1s3.2-17.3,2.4-22.7C62,61.8,61,54.8,65.4,52.3C69.7,50,74.4,47,73.6,44.6z M18.8,79.9c0,0,3.1-3.6,4.6-8
				c0.1-0.4,3.8-10,5.1-12.1c-1.4,10.1-5.1,18.7-5.3,19.2C23,79.7,18.8,79.9,18.8,79.9z M33.2,84.4c-0.2,0.5-1.1,2.2-2.5,3.8
				c-0.5,0.6-1.3,0.9-2.1,0.9s-1.7-0.3-2.3-0.8c-0.5-0.4-2-1.8-2.7-3.5c-0.3-0.6-0.2-1.2,0.2-1.5c0.3-0.3,0.8-1.1,1.8-1.1l0.8-0.5
				c0.9,0,2.4,0,3.7,0h1.2c0.8,0,1.4,0.7,1.7,1C33.5,83,33.3,84.1,33.2,84.4z M29.8,46.5c0.2,3-2.7,6.3-2.7,6.3s1.1-2.9,0.5-4.9
				c-0.2-0.6-0.4-1.2-0.6-1.7c-3.7,3.4-9.3,0.3-10.7-1.2c-2.9-3.2-2.6-7.6-2.4-9.2c-1.1-0.4-2.2-0.8-3.2-1c8.2-2,14.3,4,16.2,6.2
				c3.2,3.7,6.9,1.7,6.9,1.7C34,44.9,31.9,46.4,29.8,46.5z M51.6,84.6c-0.7,1.7-2.2,3.1-2.7,3.5c-0.6,0.5-1.4,0.8-2.3,0.8
				c-0.9,0-1.6-0.3-2.1-0.9c-1.5-1.6-2.3-3.2-2.5-3.8c-0.1-0.3-0.3-1.4,0.2-1.8c0.3-0.3,0.9-1,1.7-1h1.2c1.3,0,2.8,0,3.7,0l0.8,0.5
				c1.1,0,1.6,0.6,1.8,0.8C51.8,83.2,51.8,84,51.6,84.6z M51.9,79c-0.2-0.6-3.8-9.1-5.3-19.2c1.3,2.2,5,11.7,5.1,12.1
				c1.5,4.4,4.6,8,4.6,8S52.1,79.7,51.9,79z M41.2,42.7c0,0,3.7,2,6.9-1.7c1.9-2.2,8-8.2,16.2-6.2c-1,0.2-2.1,0.6-3.2,1
				c0.2,1.6,0.5,6-2.4,9.2c-1.3,1.5-6.9,4.5-10.7,1.2c-0.2,0.5-0.4,1-0.6,1.7c-0.6,2,0.5,4.9,0.5,4.9"/>
		</g>
	</g>
</g>
</svg>
