<?xml version="1.0" encoding="utf-8"?>
<!-- Generator: Adobe Illustrator 20.1.0, SVG Export Plug-In . SVG Version: 6.00 Build 0)  -->
<svg version="1.1" id="Calque_1" xmlns="http://www.w3.org/2000/svg" xmlns:xlink="http://www.w3.org/1999/xlink" x="0px" y="0px"
	 viewBox="0 0 57.5 134" style="enable-background:new 0 0 57.5 134;" xml:space="preserve">
<style type="text/css">
	.st0{fill:#0493AA;}
</style>
<g>
	<path class="st0" d="M43.8,128.8l1.2-19.7l3.3-5.6c0,0-7.4,3-19.9,3s-19.8-3-19.8-3l3.7,6.1l1.3,19.2c0,2.1,6.8,3.7,15.1,3.7
		S43.8,130.8,43.8,128.8"/>
	<path class="st0" d="M40.1,36.7l2.5-9.8l13.8-14.5l-3.6-3.1L38.1,24.7l-2.9,11.7c-2.1-0.1-4.3-0.1-6.5-0.1
		c-15.3,0-27.8,1.7-27.8,3.9s12.4,3.9,27.8,3.9c15.3,0,27.8-1.7,27.8-3.9C56.5,38.7,49.7,37.3,40.1,36.7"/>
	<path class="st0" d="M38.6,42.2c0,0-0.5,0.1-2.1,0.1s-2.7,0-3.2-0.4c-0.1-0.1-0.2-0.3-0.2-0.5c0-0.3,0.2-0.4,0.5-0.5l0.2,0.4
		c-0.1,0-0.2,0.1-0.2,0.1c0,0.2,1.6,0.4,2.9,0.3c1.2,0,2.7-0.1,2.7-0.3c0-0.1-0.1-0.1-0.3-0.2l0.2-0.4c0.3,0.1,0.6,0.3,0.6,0.6
		C39.8,42,39.1,42.1,38.6,42.2"/>
	<path class="st0" d="M56.3,12.4c0.3-0.4-0.2-1.4-1.2-2.3c-1-0.9-2.1-1.2-2.4-0.8c-0.3,0.4,0.2,1.4,1.2,2.3
		C54.8,12.4,55.9,12.8,56.3,12.4"/>
	<path class="st0" d="M43.1,80.6c-0.3-3.1,6.9-7.7,5-7.8c-4,0.2-5.9,4.7-7.9,9.3c-0.7,1.7-3.2,8.9-4.9,8.1
		c-1.6-0.9,2.1-6.8,3.2-10.4c-1.2,0.9-5.7,4.4-6.8,1.1c-1.9,1.6-5.8,2.4-5.4-1.7c-1,1.7-3.2,4.2-5.9,3.2c-3.5-1.3,2-12.4,3.4-11.9
		c1.4,0.6-0.3,3.1-0.7,4.1c-0.9,2.2-2,4.9-1.3,5.4c1.3,1,4.7-3.6,4.7-3.7c0.6-0.8,2.5-6.4,3.9-5.7c1.5,0.6-3.7,7.9-1.7,9.4
		c0.4,0.3,2-0.2,2.9-1.2c0.6-0.7,0.4-2.2,2.5-7.1s3.9-11.1,5.3-10.6c1.4,0.5,0.2,3.6-0.3,4.8c-2.4,5.5-6.5,14.7-4.6,14
		c2-0.7,3-0.7,4.9-3s1.8-5.9,3.1-5.8s1.1,1.3,0.8,2.2c1.3-1.4,5.9-4.5,7.1-1.5c1.3,3.5-6.7,8.7-4.7,8.4c2-0.3,5.1-2.3,6.5-4.1
		l3.7-33.5c0,0-3.7,3.1-27.6,3.1s-27.2-3-27.2-3L4.3,73c1.7-4.8,5.7-14.5,12-14.1c2.9,0.1,6.7,5.7,3.4,5.9c-1.4,0.1-1.5-2.8-3.2-3.2
		c-1.2-0.3-2.8,0.7-3.9,1.7c-2.1,2.1-6.7,10.3-6.1,14.4c0.8,5.2,7.2-1.8,8.3-3.9c0.8-1.5,1.3-5.8,3-5.4c1.7,0.5-0.1,5-1.4,8.9
		c-1.4,4.5-2.1,9.2-3.8,8.6c-1.7-0.5,1.1-6.3,1-7.3C12,80.1,9,83.8,5.2,82l2,19c0,0,5.2,4.1,21,4.1s21.2-4.1,21.2-4.1l2.4-22
		C49.9,81,43.5,84.5,43.1,80.6"/>
</g>
</svg>
