<svg xmlns="http://www.w3.org/2000/svg" viewBox="0 0 55.54 123.34"><defs><style>.cls-1{fill:#99cabb;}</style></defs><title>Fichier 4</title><g id="Calque_2" data-name="Calque 2"><g id="Calque_1-2" data-name="Calque 1"><path class="cls-1" d="M42.85,119.62,44,99.91l3.27-5.58s-7.44,3-19.89,3-19.78-3-19.78-3l3.66,6.08,1.3,19.16c0,2.05,6.77,3.72,15.13,3.72s15.13-1.66,15.13-3.72"/><path class="cls-1" d="M39.12,27.54l2.48-9.82L55.36,3.25,51.73.16,37.17,15.58,34.28,27.31c-2.09-.07-4.27-.11-6.51-.11C12.43,27.2,0,28.95,0,31.1S12.43,35,27.77,35s27.77-1.75,27.77-3.9c0-1.59-6.74-3-16.42-3.56"/><path class="cls-1" d="M37.67,33a11.79,11.79,0,0,1-2.12.13c-1.58,0-2.71,0-3.15-.42a.71.71,0,0,1-.19-.47.61.61,0,0,1,.45-.55l.24.38c-.1,0-.16.08-.16.12,0,.21,1.62.36,2.86.34s2.74-.12,2.74-.33-.11-.12-.31-.17l.24-.37c.32.1.6.29.6.63,0,.57-.72.65-1.19.72"/><path class="cls-1" d="M55.33,3.28c.35-.4-.18-1.42-1.17-2.28S52.08-.24,51.73.16s.18,1.42,1.17,2.28,2.08,1.23,2.43.83"/><path class="cls-1" d="M42.19,71.46c-.33-3.14,6.86-7.68,5-7.82-4,.23-5.95,4.65-7.94,9.29-.73,1.7-3.24,8.94-4.88,8.05s2.13-6.85,3.19-10.39c-1.22.89-5.69,4.37-6.85,1.12-1.85,1.57-5.81,2.43-5.37-1.71-1,1.75-3.2,4.19-5.86,3.17-3.49-1.33,2-12.44,3.39-11.88s-.28,3.09-.71,4.07c-.95,2.16-2,4.88-1.31,5.44,1.25,1,4.67-3.61,4.74-3.71.64-.84,2.46-6.36,3.92-5.73s-3.66,7.92-1.74,9.36c.39.29,2-.18,2.93-1.22.62-.67.41-2.16,2.48-7.11s3.92-11.1,5.34-10.63.25,3.63-.26,4.81c-2.39,5.53-6.53,14.66-4.58,14s3-.73,4.88-3,1.82-5.92,3.1-5.84,1.06,1.26.75,2.16c1.25-1.43,5.94-4.46,7.08-1.46,1.34,3.54-6.71,8.66-4.7,8.4a12.15,12.15,0,0,0,6.48-4.09L55,33.24s-3.75,3.1-27.6,3.1-27.22-3-27.22-3L3.37,63.89C5.05,59.1,9,49.42,15.35,49.75c2.87.15,6.69,5.67,3.42,5.86-1.39.08-1.53-2.76-3.17-3.17-1.19-.3-2.84.66-3.9,1.71C9.56,56.22,5,64.44,5.59,68.53c.77,5.22,7.21-1.81,8.3-3.9.77-1.47,1.29-5.83,3-5.37s-.15,5-1.36,8.94c-1.37,4.47-2.08,9.18-3.8,8.64s1.08-6.31,1-7.32C11.06,71,8.09,74.75,4.3,72.89l2,19S11.51,96,27.28,96s21.2-4.07,21.2-4.07l2.45-22c-2,1.95-8.34,5.41-8.74,1.51"/></g></g></svg>