<svg xmlns="http://www.w3.org/2000/svg" viewBox="0 0 116.81 133.61"><defs><style>.cls-1{fill:#99cabb;}</style></defs><title>Fichier 1</title><g id="Calque_2" data-name="Calque 2"><g id="Calque_1-2" data-name="Calque 1"><path class="cls-1" d="M0,4.42,8.68,115.36A4.1,4.1,0,0,0,11.54,119l45.63,14.47a4.1,4.1,0,0,0,2.48,0L105.28,119a4.1,4.1,0,0,0,2.85-3.59L116.8,4.42A4.1,4.1,0,0,0,112.71,0H4.1A4.1,4.1,0,0,0,0,4.42ZM94.56,38.84H38l1.71,15.73H93.33L89.83,99.41l-31.42,10L27,99.41,25.15,76H41.65V87.48l17.2,4.62,17.1-4.62,1.33-18.31H24.62l-3.5-44.72H95.69Z"/></g></g></svg>