<?xml version="1.0" encoding="utf-8"?>
<!-- Generator: Adobe Illustrator 20.1.0, SVG Export Plug-In . SVG Version: 6.00 Build 0)  -->
<svg version="1.1" id="Calque_1" xmlns="http://www.w3.org/2000/svg" xmlns:xlink="http://www.w3.org/1999/xlink" x="0px" y="0px"
	 viewBox="0 0 119 136" style="enable-background:new 0 0 119 136;" xml:space="preserve">
<style type="text/css">
	.st0{fill:#0493AA;}
</style>
<path class="st0" d="M0.9,5.6l8.7,110.9c0.1,1.7,1.3,3.1,2.9,3.6l45.6,14.5c0.8,0.3,1.7,0.3,2.5,0l45.6-14.5
	c1.6-0.5,2.7-1.9,2.9-3.6l8.7-110.9c0.2-2.4-1.7-4.4-4.1-4.4H5C2.6,1.1,0.8,3.2,0.9,5.6z M95.5,40H39l1.7,15.7h53.6l-3.5,44.8
	l-31.4,10l-31.4-10l-1.8-23.4h16.5v11.5l17.2,4.6L77,88.6l1.3-18.3H25.6l-3.5-44.7h74.6L95.5,40z"/>
</svg>
