<svg xmlns="http://www.w3.org/2000/svg" viewBox="0 0 97 94"><defs><style>.cls-1{fill:#99cabb;}</style></defs><title>Fichier 7</title><g id="Calque_2" data-name="Calque 2"><g id="Calque_1-2" data-name="Calque 1"><path class="cls-1" d="M39.44,26h-.09c-.93,5-3.27,14-5.12,21H44.69C43.46,42,40.54,31,39.44,26Z"/><path class="cls-1" d="M0,94H97V0H0ZM73,67c0,.35-.06,1-.5,1H65.66c-.44,0-.66-.67-.66-1V32h7.5c.35,0,.5-.2.5.2ZM69.06,17.68a4.26,4.26,0,0,1,4.5,4.5c0,2.91-1.9,4.5-4.59,4.5a4.15,4.15,0,0,1-4.41-4.5A4.28,4.28,0,0,1,69.06,17.68ZM21.34,67.12l12.54-44a14.43,14.43,0,0,0,.44-3.68c0-.31.13-.45.35-.45h9.27c.31,0,.44,0,.53.4l14,47.83c.09.35,0,.77-.35.77H50.83a.69.69,0,0,1-.66-.56L46.55,54H32.42L28.94,67.4c-.09.35-.22.6-.66.6H21.79C21.34,68,21.26,67.64,21.34,67.12Z"/></g></g></svg>