<?xml version="1.0" encoding="utf-8"?>
<!-- Generator: Adobe Illustrator 20.1.0, SVG Export Plug-In . SVG Version: 6.00 Build 0)  -->
<svg version="1.1" id="Calque_1" xmlns="http://www.w3.org/2000/svg" xmlns:xlink="http://www.w3.org/1999/xlink" x="0px" y="0px"
	 viewBox="0 0 97 94" style="enable-background:new 0 0 97 94;" xml:space="preserve">
<style type="text/css">
	.st0{display:none;fill:#9ACABB;}
	.st1{fill:#9ACABB;}
	.st2{fill:#0493AA;}
	.st3{fill:none;}
</style>
<g id="Calque_2">
</g>
<g id="Calque_1_1_">
	<g>
		<path class="st0" d="M92.6,61c0.1,0,0.4-0.1,0.4-0.5V38c0-0.3-0.2-0.4-0.4-0.4c-0.7,0-1.2,4.4-1.2,11.7C91.5,57.6,92,61,92.6,61z"
			/>
		<path class="st1" d="M90,94h7V0h-7V94z"/>
	</g>
	<g>
		<path class="st0" d="M1.6,61C1.7,61,2,60.9,2,60.5V38c0-0.3-0.2-0.4-0.4-0.4C1,37.6,0.5,42,0.5,49.3C0.5,57.6,1,61,1.6,61z"/>
		<path class="st1" d="M-1,94h7V0h-7V94z"/>
	</g>
	<g>
		<path class="st2" d="M39.3,26L39.3,26c-1,5-3.4,14-5.2,21h10.5C43.3,42,40.4,31,39.3,26z"/>
		<path class="st2" d="M0,94h97V0H0V94z M73,67c0,0.4-0.2,1-0.6,1h-6.8c-0.4,0-0.5-0.7-0.5-1V32H65c0,0,0.1,0,0.5,0h6.9
			c0.4,0,0.6-0.2,0.6,0.2V67z M68.9,17.7c2.7,0,4.5,1.8,4.5,4.5c0,2.9-1.9,4.5-4.6,4.5c-2.6,0-4.4-1.6-4.4-4.5
			C64.4,19.4,66.4,17.7,68.9,17.7z M21.2,67.1l12.5-44c0.2-0.8,0.4-1.5,0.4-3.7c0-0.3,0.1-0.5,0.4-0.5h9.3c0.3,0,0.4,0,0.5,0.4
			l14,47.8c0.1,0.4,0,0.8-0.4,0.8h-7.3c-0.4,0-0.6-0.2-0.7-0.6L46.4,54H32.3l-3.5,13.4c-0.1,0.4-0.2,0.6-0.7,0.6h-6.5
			C21.2,68,21.1,67.6,21.2,67.1z"/>
	</g>
	<rect x="-1" class="st3" width="97" height="94"/>
</g>
</svg>
