<svg xmlns="http://www.w3.org/2000/svg" viewBox="0 0 98 94"><defs><style>.cls-1{fill:#99cabb;}</style></defs><title>Fichier 8</title><g id="Calque_2" data-name="Calque 2"><g id="Calque_1-2" data-name="Calque 1"><path class="cls-1" d="M60.74,61A8.91,8.91,0,0,0,64,60.46V38c0-.31-1.66-.44-2.72-.44-5.71,0-9.7,4.39-9.7,11.69C51.57,57.62,55.65,61,60.74,61Z"/><path class="cls-1" d="M0,94H98V0H0ZM61.54,30.83a23.46,23.46,0,0,1,2.46.09V19.13c0-.31,0-1.13.22-1.13H71.4c.35,0-.4.82-.4,1V60.46a43.3,43.3,0,0,0,.64,4.47c0,.31.12.35-.19.53A26.64,26.64,0,0,1,60,68.08c-9.79,0-16.68-6.07-16.68-18.43C43.23,39.07,50.33,30.83,61.54,30.83ZM27,19.27c0-.44.68-1.27,1-1.27H34.9c.35,0,.1.82.1,1.22V66.84c0,.44.34,1.16-.15,1.16H28c-.44,0-1-.81-1-1.16Z"/></g></g></svg>