<?xml version="1.0" encoding="utf-8"?>
<!-- Generator: Adobe Illustrator 20.1.0, SVG Export Plug-In . SVG Version: 6.00 Build 0)  -->
<svg version="1.1" id="Calque_1" xmlns="http://www.w3.org/2000/svg" xmlns:xlink="http://www.w3.org/1999/xlink" x="0px" y="0px"
	 viewBox="0 0 98 94" style="enable-background:new 0 0 98 94;" xml:space="preserve">
<style type="text/css">
	.st0{fill:#0493AA;}
</style>
<g id="Calque_2">
</g>
<g id="Calque_1_1_">
	<g>
		<path class="st0" d="M60.7,61c1.1,0,2.3-0.1,3.3-0.5V38c0-0.3-1.7-0.4-2.8-0.4c-5.7,0-9.7,4.4-9.7,11.7C51.5,57.6,55.6,61,60.7,61
			z"/>
		<path class="st0" d="M0,94h98V0H0V94z M61.5,30.8c0.9,0,1.5,0,2.5,0.1V19.1c0-0.3-0.1-1.1,0.1-1.1h7.2c0.4,0-0.3,0.8-0.3,1v41.4
			c0,1.2,0.4,2.8,0.6,4.5c0,0.3,0.1,0.4-0.2,0.5c-3.8,1.8-7.7,2.6-11.5,2.6c-9.8,0-16.7-6.1-16.7-18.4
			C43.1,39.1,50.3,30.8,61.5,30.8z M27,19.3c0-0.4,0.6-1.3,0.9-1.3h6.9c0.4,0,0.2,0.8,0.2,1.2v47.6c0,0.4,0.2,1.2-0.3,1.2h-6.8
			c-0.4,0-0.9-0.8-0.9-1.2C27,66.8,27,19.3,27,19.3z"/>
	</g>
</g>
</svg>
