<svg xmlns="http://www.w3.org/2000/svg" viewBox="0 0 49.49 49.49"><defs><style>.cls-1{fill:#0593aa;}</style></defs><title>Fichier 2</title><g id="Calque_2" data-name="Calque 2"><g id="Calque_1-2" data-name="Calque 1"><path class="cls-1" d="M24.74,0A24.74,24.74,0,1,0,49.49,24.74,24.74,24.74,0,0,0,24.74,0Zm14,33a39.35,39.35,0,0,0,.81-6.6h6.57A21.22,21.22,0,0,1,44.54,33Zm-28-16.5a39.35,39.35,0,0,0-.81,6.6H3.36a21.22,21.22,0,0,1,1.58-6.6Zm24.62,0a35.59,35.59,0,0,1,.89,6.6H26.39V16.5Zm-9-3.3V3.54a7.52,7.52,0,0,1,2.23,1.1,14.17,14.17,0,0,1,3.79,4.3,23.88,23.88,0,0,1,2,4.25h-8ZM17.07,8.94a14.17,14.17,0,0,1,3.79-4.3,7.52,7.52,0,0,1,2.23-1.1v9.66h-8a23.88,23.88,0,0,1,2-4.25Zm6,7.55v6.6H13.23a35.59,35.59,0,0,1,.89-6.6ZM4.94,33a21.27,21.27,0,0,1-1.58-6.6H9.93a39.35,39.35,0,0,0,.81,6.6Zm8.29-6.6h9.86V33h-9A35.59,35.59,0,0,1,13.23,26.39Zm9.86,9.9v9.66a7.52,7.52,0,0,1-2.23-1.1,14.17,14.17,0,0,1-3.79-4.3,23.88,23.88,0,0,1-2-4.25h8Zm9.32,4.25a14.17,14.17,0,0,1-3.79,4.3,7.56,7.56,0,0,1-2.23,1.1V36.29h8a23.94,23.94,0,0,1-2,4.25Zm-6-7.55v-6.6h9.86a35.59,35.59,0,0,1-.89,6.6Zm13.16-9.9a39.35,39.35,0,0,0-.81-6.6h5.8a21.22,21.22,0,0,1,1.58,6.6Zm3.26-9.9H37.88A26.16,26.16,0,0,0,34,5.39a21.6,21.6,0,0,1,8.83,7.81ZM9.58,9.58a21.4,21.4,0,0,1,5.91-4.19,26.2,26.2,0,0,0-3.88,7.81H6.67A21.4,21.4,0,0,1,9.58,9.58ZM6.67,36.29h4.94a26.2,26.2,0,0,0,3.88,7.81,21.6,21.6,0,0,1-8.83-7.81Zm33.24,3.62A21.4,21.4,0,0,1,34,44.1a26.2,26.2,0,0,0,3.88-7.81h4.94A21.4,21.4,0,0,1,39.91,39.91Z"/></g></g></svg>