<?xml version="1.0" encoding="utf-8"?>
<!-- Generator: Adobe Illustrator 20.1.0, SVG Export Plug-In . SVG Version: 6.00 Build 0)  -->
<svg version="1.1" id="Capa_1" xmlns="http://www.w3.org/2000/svg" xmlns:xlink="http://www.w3.org/1999/xlink" x="0px" y="0px"
	 viewBox="0 0 512 512" style="enable-background:new 0 0 512 512;" xml:space="preserve">
<style type="text/css">
	.st0{fill:#98CBBC;}
</style>
<g>
	<path class="st0" d="M264.8,247.3h105.8c-1.1-38.4-9.1-75.7-23.5-110.2c-26.6,7.7-54.2,12-82.2,12.7V247.3L264.8,247.3z"/>
	<path class="st0" d="M356.8,115.4c25.9-8.9,50.6-21.1,73.6-36.8l5.8-4.4C394,32.3,337.3,5.1,274.5,0.6l-4.6,3.7
		C307.2,35.2,336.6,73.1,356.8,115.4z"/>
	<path class="st0" d="M264.8,23.2v108.9c25.5-0.7,50.6-4.5,74.9-11.3C321.8,84,296.5,50.8,264.8,23.2z"/>
	<path class="st0" d="M366.9,372.9c27.7,10,54.1,23.6,78.5,41l7.7,5.7c35.1-42.3,56.9-96,58.9-154.7H388.3
		C387.3,302.4,380,338.8,366.9,372.9z"/>
	<path class="st0" d="M81.6,78.5c22.9,15.7,47.7,27.9,73.6,36.8c20.2-42.3,49.6-80.2,86.9-111l-4.6-3.7
		c-63,4.5-119.7,31.8-161.9,73.8L81.6,78.5z"/>
	<path class="st0" d="M247.2,23.2c-31.7,27.6-57,60.8-74.9,97.5c24.2,6.8,49.3,10.6,74.9,11.3V23.2z"/>
	<path class="st0" d="M123.7,264.9H0c2,58.7,23.8,112.4,58.9,154.7l7.5-5.6c24.5-17.5,51-31.1,78.7-41.1
		C132,338.8,124.7,302.4,123.7,264.9z"/>
	<path class="st0" d="M148,131.6c-26.8-9.4-52.5-22.1-76.4-38.4l-8.3-5.7C25.6,130.5,2.1,186.2,0,247.3h123.7
		C124.8,207,133.1,167.8,148,131.6z"/>
	<path class="st0" d="M141.4,247.3h105.8v-97.5c-28.1-0.8-55.7-5-82.2-12.7C150.5,171.6,142.5,208.8,141.4,247.3z"/>
	<path class="st0" d="M241.2,507.1c-39-32.6-69.3-73-89.3-117.9c-26.4,9.5-51.7,22.4-75,39.1l-6.1,4.6
		c42.2,44.2,99.9,73.4,164.4,78.6L241.2,507.1z"/>
	<path class="st0" d="M247.2,353.6v-88.7H141.4c1,35.5,8,70,20.4,102.3C189.3,359,218,354.4,247.2,353.6z"/>
	<path class="st0" d="M435,428.1c-23.2-16.6-48.4-29.5-74.8-38.9c-20.1,45-50.3,85.4-89.4,117.9l6.1,4.3
		c64.5-5.2,122.2-34.4,164.4-78.6L435,428.1z"/>
	<path class="st0" d="M440.8,92.8c-24,16.5-49.9,29.3-76.8,38.7c14.9,36.3,23.2,75.4,24.3,115.7H512C509.9,186,486.2,130.1,448.3,87
		L440.8,92.8z"/>
	<path class="st0" d="M247.2,489V371.3c-26.9,0.8-53.2,4.9-78.5,12.4C186.7,423.5,213.3,459.4,247.2,489z"/>
	<path class="st0" d="M370.6,264.9H264.8v88.7c29.2,0.8,57.9,5.3,85.4,13.6C362.6,334.9,369.6,300.4,370.6,264.9z"/>
	<path class="st0" d="M343.3,383.7c-25.3-7.5-51.6-11.6-78.5-12.4V489C298.7,459.6,325.3,423.6,343.3,383.7z"/>
</g>
</svg>
