<svg xmlns="http://www.w3.org/2000/svg" viewBox="0 0 265.96 60.44"><defs><style>.cls-1{fill:#99cabb;}</style></defs><title>Fichier 2</title><g id="Calque_2" data-name="Calque 2"><g id="Calque_1-2" data-name="Calque 1"><path class="cls-1" d="M255,4.72l11.17.06L243.75,35.2a13.06,13.06,0,0,0-1.81,2.54,56.69,56.69,0,0,0-2.17,8l-10.22.05s1.59-5.7,1.52-8.74c-.06-2.65-1.41-5.31-2.17-8s-1.81-8-1.81-8h10.5l1.45,5.8Z" transform="translate(-0.25 -0.25)"/><path class="cls-1" d="M233.9,10.65c2.06,1.24,3.33,8.1,3.33,8.1s-10.78.16-16.65.16H215.5l-6.16,26.8h-9.42s5.86-29.13,7.24-34.41c.45-1.71,3.07-1.42,7.5-1.42h7.07C226.31,9.88,231.65,9.3,233.9,10.65Z" transform="translate(-0.25 -0.25)"/><path class="cls-1" d="M198.93,16.76c1.2,4.32-1.09,14.49-1.09,14.49s-11.93-.2-18.47,0c-2,.06-4.47-.22-5.07.72-.85,1.33.31,3.36,1.3,4.23s3.34,1.1,4.14,1.21c5.31.67,16.41.17,16.41.17l-1.92,8.52s-15.69.79-23.54-1.09a8,8,0,0,1-4-2.17c-.27-.29-.5-.68-.75-1a9.46,9.46,0,0,1-1.06-1.87c-1.79-4.78.21-13.93,2.17-18.83.23-.57.51-1.29.81-1.9.38-.76.7-1.63,1-2.08s.45-.52.66-.81a12.37,12.37,0,0,1,.79-1,15,15,0,0,1,2.54-2.17c3.27-2.45,9.19-4.35,16.3-3.62,2.68.28,6.72,1.23,8.69,4A12.17,12.17,0,0,1,198.93,16.76Zm-8.87,6.94a5.64,5.64,0,0,0-1-3.71c-1.1-1.7-2.12-2.09-5-2.18-8.18-.26-8,5.81-8,5.81Z" transform="translate(-0.25 -0.25)"/><path class="cls-1" d="M155.73,9.85l9.13-.05s-5.09,24.14-7.68,35.91h-10.5c-7.34,0-13.88.91-16.66-4.35-2.7-5.1-.12-13.5,1.09-19.2.85-4,2.65-12.28,2.65-12.28l9.46-.09S140.55,22.63,139.44,29c-.4,2.3-1.22,4.46-.36,6.16s2,1.73,5.43,1.81c1.1,0,4.71,0,4.71,0Z" transform="translate(-0.25 -0.25)"/><path class="cls-1" d="M125.67,13.83c1,7.58-3,16-5.72,23.24,2.81.25,5.27,0,5.45.17s-1.88,8.69-2.6,8.71c-2.23.06-9.62.12-12.71.12-10.06,0-19.47.66-24.27-4.35a15.77,15.77,0,0,1-3.62-8,33.8,33.8,0,0,1,1.09-12.32A37.28,37.28,0,0,1,86.92,12C91.14,4.64,98.49-.83,110.82.43a23,23,0,0,1,8,2.54c.15.09.67.5.79.57C122.47,5.38,125.11,9.78,125.67,13.83ZM113,27.23c1-3.4,2.35-7.08,2.17-10.14-.19-3.27-2.94-6.26-4.71-6.88a12.07,12.07,0,0,0-12.32,2.9c-2.57,2.78-3.44,6-4.35,10.5-.68,3.32-1.23,6.83,0,9.42,2.18,4.58,9,3.58,16.3,3.62C111.18,33.74,112.08,30.47,113,27.23Z" transform="translate(-0.25 -0.25)"/><path class="cls-1" d="M81.17,9.89c-.61,2.77-1.22,5.91-1.86,8.65H69.17c.79-3,1.39-6.05,2.17-8.69C74.59,9.85,77.6,9.89,81.17,9.89Z" transform="translate(-0.25 -0.25)"/><path class="cls-1" d="M68.8,21.08h9.78c-1.28,7.08-3.81,18.49-5.8,26.44-1.24,5-2.07,8.6-5.43,11.23-.3.24-.47.12-.72.36-.62.59-3.48,1.27-5.07,1.45a73,73,0,0,1-8.66,0c.83-3,1.77-6.67,2.51-9.39,7.73.93,7.92-6.37,9.42-13.4C65.69,33.67,68.31,22.71,68.8,21.08Z" transform="translate(-0.25 -0.25)"/><path class="cls-1" d="M46,39.55l-.21.54c-3.57,7-9.9,11.22-18.93,11.41A26.46,26.46,0,0,1,16,49.33,28.07,28.07,0,0,1,2.94,37C-.79,29.78-1.46,19.72,6.3,12.2c.12,0-.94,1.63-.82,1.63l-.21.7C-.33,32,16.91,47.06,33.67,45.34A22,22,0,0,0,46,39.55Z" transform="translate(-0.25 -0.25)"/><path class="cls-1" d="M46.65,17.68c-.66,1.5-4.43,4.34-6.1,4.7-6.6,1.41-10.83-1.72-13-5.28a16.26,16.26,0,0,1-1-2.35c-.86-2.92-.46-7.33,2.1-9.62a12,12,0,0,0-.48,6.34,14.1,14.1,0,0,0,1.75,3.81,10,10,0,0,0,4,3.52,10.62,10.62,0,0,0,2,1C37.48,20.24,41,21.53,46.65,17.68Z" transform="translate(-0.25 -0.25)"/><path class="cls-1" d="M35.84,32.31A16,16,0,0,0,47.07,27.6c-2.28,5.79-8.89,9.52-17.75,8.33-7.42-1-14.48-8.46-15.21-15.94-.53-5.44,1.37-8.69,4.49-12.63A13.22,13.22,0,0,0,17,12C15.82,23.8,26.42,32.24,35.84,32.31Z" transform="translate(-0.25 -0.25)"/></g></g></svg>