<?xml version="1.0" encoding="utf-8"?>
<!-- Generator: Adobe Illustrator 20.1.0, SVG Export Plug-In . SVG Version: 6.00 Build 0)  -->
<svg version="1.1" id="Calque_1" xmlns="http://www.w3.org/2000/svg" xmlns:xlink="http://www.w3.org/1999/xlink" x="0px" y="0px"
	 viewBox="0 0 280.3 63.3" style="enable-background:new 0 0 280.3 63.3;" xml:space="preserve">
<style type="text/css">
	.st0{fill:#0493AA;}
</style>
<g id="XMLID_2_">
	<g>
		<path class="st0" d="M267.4,5.8l11.2,0.1c0,0-20.8,28.1-22.5,30.4c-0.6,0.7-1.4,1.5-1.8,2.5c-1.1,2.5-2.2,8-2.2,8l-10.2,0.1
			c0,0,1.6-5.7,1.5-8.7c-0.1-2.7-1.4-5.3-2.2-8s-1.8-8-1.8-8h10.5l1.4,5.8L267.4,5.8z"/>
		<path class="st0" d="M246.2,11.8c2.1,1.2,3.3,8.1,3.3,8.1s-10.8,0.2-16.7,0.2c-1.4,0-5.1,0-5.1,0l-6,26.7h-9.4
			c0,0,5.9-29.1,7.2-34.4c0.4-1.7,3.1-1.4,7.5-1.4c2.2,0,5.3,0,7.1,0C238.7,11,244,10.4,246.2,11.8z"/>
		<path class="st0" d="M211.3,17.9c1.2,4.3-1.1,14.5-1.1,14.5s-11.9-0.2-18.5,0c-2,0.1-4.5-0.2-5.1,0.7c-0.9,1.3,0.3,3.4,1.3,4.2
			c1.1,1,3.3,1.1,4.1,1.2c5.3,0.7,16.4,0.2,16.4,0.2l-1.9,8.5c0,0-15.7,0.8-23.5-1.1c-1.6-0.4-3-1.1-4-2.2c-0.3-0.3-0.5-0.7-0.8-1
			c-0.2-0.3-0.8-1.2-1.1-1.9c-1.8-4.8,0.2-13.9,2.2-18.8c0.2-0.6,0.5-1.3,0.8-1.9c0.4-0.8,0.7-1.6,1-2.1c0.2-0.3,0.5-0.5,0.7-0.8
			c0.2-0.4,0.5-0.7,0.8-1c0.7-0.8,1.5-1.4,2.5-2.2c3.3-2.4,9.2-4.4,16.3-3.6c2.7,0.3,6.7,1.2,8.7,4C210.7,15.3,211,16.8,211.3,17.9z
			 M202.4,24.8c0,0,0.3-1.7-1-3.7c-1.1-1.7-2.1-2.1-5-2.2c-8.2-0.3-8,5.8-8,5.8L202.4,24.8z"/>
		<path class="st0" d="M168.1,11l9.1-0.1c0,0-5.1,24.1-7.7,35.9c-3.9,0-7.3,0-10.5,0c-7.3,0-13.9,0.9-16.7-4.3
			c-2.7-5.1-0.1-13.5,1.1-19.2c0.9-4,2.7-12.3,2.7-12.3l9.5-0.1c0,0-2.7,12.8-3.8,19.3c-0.4,2.3-1.2,4.5-0.4,6.2
			c0.8,1.6,2,1.7,5.4,1.8c1.1,0,4.7,0,4.7,0L168.1,11z"/>
		<path class="st0" d="M138,14.9c1,7.6-3,16-5.7,23.2c2.8,0.3,5.3,0,5.5,0.2c0.2,0.3-1.9,8.7-2.6,8.7c-2.2,0.1-9.6,0.1-12.7,0.1
			c-10.1,0-19.5,0.7-24.3-4.3c-1.9-2-3.3-5.5-3.6-8c-0.5-4.1,0.1-8.6,1.1-12.3c0.9-3.4,2-6.5,3.6-9.4c4.2-7.4,11.6-12.9,23.9-11.6
			c2.4,0.2,5.8,1.3,8,2.5c0.1,0.1,0.7,0.5,0.8,0.6C134.8,6.5,137.5,10.9,138,14.9z M125.3,28.3c1-3.4,2.4-7.1,2.2-10.1
			c-0.2-3.3-2.9-6.3-4.7-6.9c-5.3-1.9-10.3,0.7-12.3,2.9c-2.6,2.8-3.4,6-4.3,10.5c-0.7,3.3-1.2,6.8,0,9.4c2.2,4.6,9,3.6,16.3,3.6
			C123.5,34.9,124.4,31.6,125.3,28.3z"/>
		<path class="st0" d="M93.5,11c-0.6,2.8-1.2,5.9-1.9,8.6c-3.4,0-6.8,0-10.1,0c0.8-3,1.4-6.1,2.2-8.7C86.9,11,89.9,11,93.5,11z"/>
		<path class="st0" d="M81.1,22.2c3.3,0,6.5,0,9.8,0c-1.2,7.1-3.8,18.5-5.8,26.4c-1.2,5-2.1,8.6-5.4,11.2c-0.3,0.2-0.5,0.1-0.7,0.4
			c-0.6,0.6-3.5,1.3-5.1,1.4c-2.6,0.3-5.5,0-8.7,0c0.8-3,1.8-6.7,2.5-9.4c7.7,0.9,7.9-6.4,9.4-13.4C78,34.8,80.7,23.8,81.1,22.2z"/>
		<path class="st0" d="M58.3,40.7l-0.2,0.5c-3.6,7-9.9,11.2-18.9,11.4c-4.2,0.1-8.2-1-10.9-2.2c-5.7-2.5-10.4-7.3-13-12.3
			c-3.7-7.2-4.4-17.3,3.4-24.8c0.1,0-0.9,1.6-0.8,1.6l-0.2,0.7c-5.6,17.5,11.6,32.5,28.4,30.8C50,46,55.2,43.8,58.3,40.7z"/>
		<path class="st0" d="M59,18.8c-0.7,1.5-4.4,4.3-6.1,4.7c-6.6,1.4-10.8-1.7-13-5.3c-0.3-0.5-0.9-2-1-2.4C38,12.9,38.4,8.5,41,6.2
			c-0.8,2.2-0.9,4.7-0.5,6.3c0.2,1,1,2.7,1.7,3.8c1.4,2,2.2,2.5,4,3.5c0.8,0.5,1.6,0.9,2,1C49.8,21.4,53.3,22.6,59,18.8z"/>
		<path class="st0" d="M48.2,33.4c4.2,0,8.6-1.9,11.2-4.7c-2.3,5.8-8.9,9.5-17.7,8.3c-7.4-1-14.5-8.5-15.2-15.9
			C26,15.7,27.9,12.4,31,8.5c-1.1,2.1-1.5,3.7-1.6,4.7C28.2,24.9,38.8,33.4,48.2,33.4z"/>
	</g>
</g>
</svg>
