<?xml version="1.0" encoding="utf-8"?>
<!-- Generator: Adobe Illustrator 20.1.0, SVG Export Plug-In . SVG Version: 6.00 Build 0)  -->
<svg version="1.1" id="Calque_1" xmlns="http://www.w3.org/2000/svg" xmlns:xlink="http://www.w3.org/1999/xlink" x="0px" y="0px"
	 viewBox="0 0 134 133" style="enable-background:new 0 0 134 133;" xml:space="preserve">
<style type="text/css">
	.st0{fill:#0493AA;}
</style>
<path class="st0" d="M0,0v133h134V0H0z M73,103.6c0,13-7.7,18.8-18.8,18.8c-10,0-15.9-5.5-18.9-11.5h-0.2l0,0h0.1l10.2-6.1
	c2,3.5,3.7,6.5,8,6.5c4.1,0,6.6-1.6,6.6-7.9V61h13C73,61,73,103.6,73,103.6z M102.3,122.5c-11.6,0-19.1-5.5-22.8-12.8l10.2-5.9
	c2.7,4.4,6.2,7.6,12.3,7.6c5.2,0,8.5-2.6,8.5-6.2c0-4.3-3.4-5.8-9.1-8.3l-3.1-1.3c-9-3.8-15-8.7-15-18.9c0-9.4,7.2-16.6,18.3-16.6
	c8,0,13.7,2.8,17.8,10l-9.8,6.3c-2.1-3.8-4.5-5.4-8.1-5.4c-3.7,0-6,2.3-6,5.4c0,3.8,2.3,5.3,7.7,7.6l3.1,1.3
	c10.6,4.6,16.6,9.2,16.6,19.7C123.1,116.3,114.2,122.5,102.3,122.5z"/>
</svg>
