<svg xmlns="http://www.w3.org/2000/svg" viewBox="0 0 134 133"><defs><style>.cls-1{fill:#99cabb;}</style></defs><title>Fichier 3</title><g id="Calque_2" data-name="Calque 2"><g id="Calque_1-2" data-name="Calque 1"><path class="cls-1" d="M0,0V133H134V0ZM73,103.5c0,13-7.8,18.92-18.89,18.92-10,0-16-5.41-18.94-11.41h-.11l10.23-6.21c2,3.49,3.73,6.42,8,6.42,4.12,0,6.69-1.63,6.69-7.89V61H73Zm29.23,18.88c-11.63,0-19.15-5.55-22.81-12.79l10.2-5.9c2.68,4.38,6.17,7.6,12.35,7.6,5.19,0,8.5-2.59,8.5-6.17,0-4.29-3.4-5.82-9.13-8.32L98.2,95.45c-9-3.85-15-8.68-15-18.88,0-9.39,7.16-16.55,18.34-16.55,8,0,13.69,2.77,17.8,10l-9.75,6.26c-2.15-3.85-4.47-5.37-8.05-5.37s-6,2.33-6,5.37c0,3.76,2.33,5.28,7.69,7.61l3.13,1.34C117,89.81,123,94.46,123,104.93,123,116.21,114.13,122.38,102.23,122.38Z"/></g></g></svg>