<?xml version="1.0" encoding="utf-8"?>
<!-- Generator: Adobe Illustrator 20.1.0, SVG Export Plug-In . SVG Version: 6.00 Build 0)  -->
<svg version="1.1" id="Calque_1" xmlns="http://www.w3.org/2000/svg" xmlns:xlink="http://www.w3.org/1999/xlink" x="0px" y="0px"
	 viewBox="0 0 164.2 45.3" style="enable-background:new 0 0 164.2 45.3;" xml:space="preserve">
<style type="text/css">
	.st0{fill:#0493AA;}
</style>
<path class="st0" d="M25.3,24.2c0-0.5-0.2-0.9-0.7-1.1l-10.9-6.3c-0.2-0.1-0.4-0.2-0.6-0.2H13c-0.2,0-0.4,0.1-0.6,0.2L1.5,23.1
	c-0.4,0.2-0.7,0.7-0.7,1.1v16.9c0,0.2,0.1,0.5,0.3,0.6s0.5,0.1,0.7,0L8.3,38C8.7,37.8,9,37.3,9,36.9V29c0-0.5,0.2-0.9,0.7-1.1
	l2.8-1.6c0.2-0.1,0.4-0.2,0.7-0.2c0.2,0,0.5,0.1,0.7,0.2l2.8,1.6c0.4,0.2,0.7,0.7,0.7,1.1v7.9c0,0.5,0.3,0.9,0.7,1.1l6.5,3.7
	c0.2,0.1,0.5,0.1,0.7,0s0.3-0.3,0.3-0.6L25.3,24.2z"/>
<path class="st0" d="M83.5,1c-0.2-0.1-0.5-0.1-0.7,0s-0.3,0.3-0.3,0.6v16.7c0,0.2-0.1,0.3-0.2,0.4s-0.3,0.1-0.5,0l-2.7-1.6
	c-0.4-0.2-0.9-0.2-1.3,0l-10.9,6.3c-0.4,0.2-0.7,0.7-0.7,1.1v12.6c0,0.5,0.3,0.9,0.7,1.1l10.9,6.3c0.4,0.2,0.9,0.2,1.3,0L90,38.2
	c0.4-0.2,0.7-0.7,0.7-1.1V5.8c0-0.5-0.3-0.9-0.7-1.1L83.5,1z M82.5,33c0,0.1-0.1,0.2-0.2,0.3l-3.7,2.2c-0.1,0.1-0.2,0.1-0.3,0
	l-3.7-2.2c-0.1-0.1-0.2-0.2-0.2-0.3v-4.3c0-0.1,0.1-0.2,0.2-0.3l3.7-2.2c0.1-0.1,0.2-0.1,0.3,0l3.7,2.2c0.1,0.1,0.2,0.2,0.2,0.3V33z
	"/>
<path class="st0" d="M122.5,28.6c0.4-0.2,0.7-0.7,0.7-1.1v-3c0-0.5-0.2-0.9-0.7-1.1l-10.8-6.3c-0.4-0.2-0.9-0.2-1.3,0l-11,6.1
	c-0.4,0.2-0.7,0.7-0.7,1.1v12.6c0,0.5,0.3,0.9,0.7,1.1l10.8,6.2c0.4,0.2,0.9,0.2,1.3,0l6.5-3.6c0.2-0.1,0.3-0.3,0.3-0.6
	c0-0.2-0.1-0.5-0.3-0.6l-11-6.3c-0.2-0.1-0.3-0.3-0.3-0.6v-3.9c0-0.2,0.1-0.5,0.3-0.6l3.4-2c0.2-0.1,0.5-0.1,0.7,0l3.4,2
	c0.2,0.1,0.3,0.3,0.3,0.6v3.1c0,0.2,0.1,0.5,0.3,0.6c0.2,0.1,0.5,0.1,0.7,0L122.5,28.6z"/>
<path class="st0" d="M45.1,16.9c0.4-0.2,0.9-0.2,1.3,0l10.9,6.3c0.4,0.2,0.7,0.7,0.7,1.1v12.6c0,0.5-0.3,0.9-0.7,1.1l-10.9,6.3
	c-0.4,0.2-0.9,0.2-1.3,0L34.2,38c-0.4-0.2-0.7-0.7-0.7-1.1V24.3c0-0.5,0.3-0.9,0.7-1.1L45.1,16.9z"/>
<path class="st0" d="M143.6,44.5c-0.4,0-0.7-0.1-1.1-0.3l-3.4-2c-0.5-0.3-0.3-0.4-0.1-0.4c0.7-0.2,0.8-0.3,1.6-0.7
	c0.1,0,0.2,0,0.3,0l2.6,1.6c0.1,0.1,0.2,0.1,0.3,0l10.3-5.9c0.1-0.1,0.2-0.2,0.2-0.3v-12c0-0.1-0.1-0.2-0.2-0.3l-10.3-5.9
	c-0.1-0.1-0.2-0.1-0.3,0l-10.3,5.9c-0.1,0.1-0.2,0.2-0.2,0.3v11.9c0,0.1,0.1,0.2,0.2,0.3l2.8,1.6c1.5,0.8,2.5-0.1,2.5-1V25.6
	c0-0.2,0.1-0.3,0.3-0.3h1.3c0.2,0,0.3,0.1,0.3,0.3v11.7c0,2-1.1,3.2-3,3.2c-0.6,0-1.1,0-2.4-0.6l-2.7-1.6c-0.7-0.4-1.1-1.1-1.1-1.9
	V24.5c0-0.8,0.4-1.5,1.1-1.9l10.3-5.9c0.7-0.4,1.5-0.4,2.2,0l10.3,5.9c0.7,0.4,1.1,1.1,1.1,1.9v11.9c0,0.8-0.4,1.5-1.1,1.9
	l-10.4,5.9C144.4,44.4,144,44.5,143.6,44.5z"/>
<path class="st0" d="M146.8,36.3c-4.5,0-5.4-2.1-5.4-3.8c0-0.2,0.1-0.3,0.3-0.3h1.3c0.1,0,0.3,0.1,0.3,0.3c0.2,1.4,0.8,2,3.5,2
	c2.2,0,3.1-0.5,3.1-1.6c0-0.7-0.3-1.2-3.6-1.5c-2.8-0.3-4.6-0.9-4.6-3.1c0-2.1,1.7-3.3,4.7-3.3c3.3,0,4.9,1.1,5.1,3.6
	c0,0.1,0,0.2-0.1,0.2c-0.1,0.1-0.1,0.1-0.2,0.1h-1.3c-0.1,0-0.3-0.1-0.3-0.2c-0.3-1.4-1.1-1.9-3.2-1.9c-2.4,0-2.6,0.8-2.6,1.4
	c0,0.7,0.3,1,3.5,1.4s4.7,1,4.7,3.2C151.9,35,150.1,36.3,146.8,36.3z"/>
<path class="st0" d="M110.8,28c0.1,0,0.2,0,0.3,0l2.1,1.2c0.1,0,0.1,0.1,0.1,0.2v2.4c0,0.1,0,0.2-0.1,0.2l-2.1,1.2
	c-0.1,0-0.2,0-0.3,0l-2.1-1.2c-0.1,0-0.1-0.1-0.1-0.2v-2.4c0-0.1,0-0.2,0.1-0.2L110.8,28z"/>
<g>
	<path class="st0" d="M163.2,19.9c0,1.1-0.9,2-2,2s-2-0.9-2-2s0.9-2,2-2C162.3,18,163.2,18.8,163.2,19.9z M159.6,19.9
		c0,0.9,0.7,1.7,1.7,1.7c0.9,0,1.7-0.8,1.7-1.7c0-0.9-0.8-1.7-1.7-1.7C160.3,18.3,159.6,19,159.6,19.9z M160.5,18.8h0.8
		c0.3,0,0.8,0,0.8,0.6c0,0.4-0.3,0.5-0.4,0.5c0.3,0,0.3,0.2,0.4,0.5c0,0.2,0.1,0.5,0.1,0.6h-0.5c0-0.1-0.1-0.7-0.1-0.7
		c0-0.1-0.1-0.2-0.2-0.2H161V21h-0.4v-2.2H160.5z M160.9,19.8h0.3c0.3,0,0.3-0.2,0.3-0.3c0-0.3-0.2-0.3-0.3-0.3h-0.4L160.9,19.8
		L160.9,19.8z"/>
</g>
</svg>
