<svg xmlns="http://www.w3.org/2000/svg" viewBox="0 0 162.31 43.83"><defs><style>.cls-1,.cls-2{fill:#99cabb;}.cls-1{fill-rule:evenodd;}</style></defs><title>Fichier 5</title><g id="Calque_2" data-name="Calque 2"><g id="Calque_1-2" data-name="Calque 1"><path class="cls-1" d="M24.42,23.29a1.31,1.31,0,0,0-.66-1.14l-10.9-6.27a1.28,1.28,0,0,0-.6-.17h-.11a1.3,1.3,0,0,0-.6.17L.66,22.15A1.32,1.32,0,0,0,0,23.29L0,40.18a.65.65,0,0,0,.33.57.63.63,0,0,0,.65,0L7.48,37a1.33,1.33,0,0,0,.66-1.14V28a1.31,1.31,0,0,1,.66-1.14l2.76-1.59a1.31,1.31,0,0,1,.66-.18,1.29,1.29,0,0,1,.65.18l2.76,1.59A1.31,1.31,0,0,1,16.28,28V35.9A1.33,1.33,0,0,0,16.94,37l6.47,3.71a.64.64,0,0,0,.66,0,.66.66,0,0,0,.33-.57Z"/><path class="cls-1" d="M82.6.08a.66.66,0,0,0-1,.57V17.38a.46.46,0,0,1-.69.4L78.2,16.21a1.32,1.32,0,0,0-1.32,0L66,22.5a1.32,1.32,0,0,0-.66,1.14V36.22A1.32,1.32,0,0,0,66,37.36l10.9,6.3a1.32,1.32,0,0,0,1.32,0l10.9-6.3a1.32,1.32,0,0,0,.66-1.14V4.85a1.32,1.32,0,0,0-.68-1.15Zm-1,32a.33.33,0,0,1-.16.28l-3.74,2.16a.33.33,0,0,1-.33,0l-3.74-2.16a.33.33,0,0,1-.16-.28V27.76a.33.33,0,0,1,.16-.29l3.74-2.16a.33.33,0,0,1,.33,0l3.74,2.16a.33.33,0,0,1,.16.29Z"/><path class="cls-1" d="M121.6,27.65a1.32,1.32,0,0,0,.65-1.14v-3a1.32,1.32,0,0,0-.66-1.14L110.77,16a1.32,1.32,0,0,0-1.32,0l-10.9,6.29a1.32,1.32,0,0,0-.66,1.14V36a1.32,1.32,0,0,0,.66,1.14l10.83,6.17a1.32,1.32,0,0,0,1.29,0l6.55-3.64a.66.66,0,0,0,0-1.15l-11-6.29a.66.66,0,0,1-.33-.57V27.77a.66.66,0,0,1,.33-.57l3.41-2a.66.66,0,0,1,.66,0l3.41,2a.66.66,0,0,1,.33.57v3.1a.66.66,0,0,0,1,.57Z"/><path class="cls-1" d="M44.24,16a1.32,1.32,0,0,1,1.32,0l10.9,6.29a1.32,1.32,0,0,1,.66,1.14V36a1.32,1.32,0,0,1-.66,1.14l-10.9,6.29a1.32,1.32,0,0,1-1.32,0l-10.9-6.29A1.32,1.32,0,0,1,32.69,36V23.4a1.32,1.32,0,0,1,.66-1.14Z"/><path class="cls-2" d="M142.76,43.6a2.15,2.15,0,0,1-1.08-.29l-3.43-2c-.51-.29-.26-.39-.09-.45a6.84,6.84,0,0,0,1.55-.71.26.26,0,0,1,.26,0l2.64,1.57a.34.34,0,0,0,.32,0l10.28-5.93a.32.32,0,0,0,.16-.28V23.64a.33.33,0,0,0-.16-.28l-10.27-5.93a.32.32,0,0,0-.32,0l-10.27,5.93a.33.33,0,0,0-.16.28V35.5a.31.31,0,0,0,.16.27l2.82,1.63c1.53.76,2.46-.14,2.46-1V24.66a.3.3,0,0,1,.3-.3h1.3a.3.3,0,0,1,.3.3V36.37c0,2-1.11,3.21-3,3.21a4.4,4.4,0,0,1-2.37-.64l-2.69-1.55a2.17,2.17,0,0,1-1.08-1.87V23.64a2.17,2.17,0,0,1,1.08-1.87l10.28-5.94a2.25,2.25,0,0,1,2.16,0l10.28,5.94a2.17,2.17,0,0,1,1.08,1.87V35.5a2.18,2.18,0,0,1-1.08,1.87l-10.28,5.93A2.16,2.16,0,0,1,142.76,43.6Z"/><path class="cls-2" d="M145.93,35.43c-4.5,0-5.44-2.06-5.44-3.8a.3.3,0,0,1,.3-.3h1.33a.3.3,0,0,1,.3.25c.2,1.35.8,2,3.52,2,2.16,0,3.09-.49,3.09-1.64,0-.66-.26-1.15-3.63-1.48-2.81-.28-4.55-.9-4.55-3.15,0-2.07,1.75-3.31,4.68-3.31,3.29,0,4.92,1.14,5.13,3.59a.3.3,0,0,1-.3.32H149a.3.3,0,0,1-.29-.23c-.32-1.42-1.1-1.88-3.21-1.88-2.36,0-2.64.82-2.64,1.44s.32,1,3.52,1.39,4.66,1,4.66,3.23S149.19,35.43,145.93,35.43Z"/><path class="cls-1" d="M109.95,27.06a.25.25,0,0,1,.25,0l2.09,1.21a.25.25,0,0,1,.13.22V30.9a.25.25,0,0,1-.13.22l-2.09,1.21a.25.25,0,0,1-.25,0l-2.09-1.21a.25.25,0,0,1-.13-.22V28.49a.25.25,0,0,1,.13-.22Z"/><path class="cls-2" d="M162.31,19a2,2,0,1,1-2-2A2,2,0,0,1,162.31,19Zm-3.64,0a1.66,1.66,0,1,0,1.66-1.66A1.66,1.66,0,0,0,158.67,19Zm.92-1.11h.77c.26,0,.78,0,.78.59a.51.51,0,0,1-.42.54c.3,0,.33.22.37.5a2.19,2.19,0,0,0,.12.59h-.47c0-.1-.08-.67-.08-.7s-.07-.19-.23-.19H160v.89h-.43Zm.42,1h.35a.3.3,0,0,0,.34-.31c0-.3-.21-.3-.33-.3H160Z"/></g></g></svg>