<svg xmlns="http://www.w3.org/2000/svg" width="1920" height="1080"><path d="M563,1288L-124,1290L1004,1318Z" fill="#697b92" stroke="#697b92" stroke-width="1.51"/><path d="M477,-259L685,-245L1129,-233Z" fill="#b9e1c8" stroke="#b9e1c8" stroke-width="1.51"/><path d="M477,-259L1129,-233L1751,-237Z" fill="#a6cfca" stroke="#a6cfca" stroke-width="1.51"/><path d="M1585,1282L1339,1288L1768,1340Z" fill="#1b4088" stroke="#1b4088" stroke-width="1.51"/><path d="M1339,1288L1004,1318L1768,1340Z" fill="#1e4f8e" stroke="#1e4f8e" stroke-width="1.51"/><path d="M1751,-237L1926,-162L2089,-175Z" fill="#968fa9" stroke="#968fa9" stroke-width="1.51"/><path d="M1926,-162L1899,-22L2089,-175Z" fill="#918b9e" stroke="#918b9e" stroke-width="1.51"/><path d="M2092,424L2048,550L2099,643Z" fill="#326995" stroke="#326995" stroke-width="1.51"/><path d="M1921,387L2092,424L2099,211Z" fill="#527596" stroke="#527596" stroke-width="1.51"/><path d="M1977,1297L2041,1333L2107,1159Z" fill="#162772" stroke="#162772" stroke-width="1.51"/><path d="M2045,939L1881,1094L2107,1159Z" fill="#1f3789" stroke="#1f3789" stroke-width="1.51"/><path d="M2063,822L2045,939L2107,1159Z" fill="#1b3e87" stroke="#1b3e87" stroke-width="1.51"/><path d="M2099,643L2063,822L2107,1159Z" fill="#1c488b" stroke="#1c488b" stroke-width="1.51"/><path d="M1899,-22L2115,49L2141,-25Z" fill="#838492" stroke="#838492" stroke-width="1.51"/><path d="M2089,-175L1899,-22L2141,-25Z" fill="#8a8793" stroke="#8a8793" stroke-width="1.51"/><path d="M2115,49L2099,211L2141,-25Z" fill="#777f8b" stroke="#777f8b" stroke-width="1.51"/><path d="M2099,211L2092,424L2141,-25Z" fill="#66798d" stroke="#66798d" stroke-width="1.51"/><path d="M2092,424L2099,643L2141,-25Z" fill="#4d718e" stroke="#4d718e" stroke-width="1.51"/><path d="M2099,643L2107,1159L2141,-25Z" fill="#2c6391" stroke="#2c6391" stroke-width="1.51"/><path d="M1977,1297L1768,1340L2041,1333Z" fill="#162875" stroke="#162875" stroke-width="1.51"/><path d="M1882,742L2063,822L2099,643Z" fill="#245c99" stroke="#245c99" stroke-width="1.51"/><path d="M1890,286L1921,387L2099,211Z" fill="#5f7a9d" stroke="#5f7a9d" stroke-width="1.51"/><path d="M1899,-22L1924,67L2115,49Z" fill="#858799" stroke="#858799" stroke-width="1.51"/><path d="M1924,67L2099,211L2115,49Z" fill="#798193" stroke="#798193" stroke-width="1.51"/><path d="M1129,-233L1540,-167L1751,-237Z" fill="#9eb2bf" stroke="#9eb2bf" stroke-width="1.51"/><path d="M1907,964L1881,1094L2045,939Z" fill="#224193" stroke="#224193" stroke-width="1.51"/><path d="M1881,1094L1977,1297L2107,1159Z" fill="#1e2d83" stroke="#1e2d83" stroke-width="1.51"/><path d="M2048,550L1901,548L2099,643Z" fill="#33699b" stroke="#33699b" stroke-width="1.51"/><path d="M1901,548L1882,742L2099,643Z" fill="#3066a0" stroke="#3066a0" stroke-width="1.51"/><path d="M1924,67L1890,286L2099,211Z" fill="#72819b" stroke="#72819b" stroke-width="1.51"/><path d="M1921,387L2048,550L2092,424Z" fill="#44709a" stroke="#44709a" stroke-width="1.51"/><path d="M333,1260L-124,1290L563,1288Z" fill="#7f8394" stroke="#7f8394" stroke-width="1.51"/><path d="M1540,-167L1672,-201L1751,-237Z" fill="#9ca2b8" stroke="#9ca2b8" stroke-width="1.51"/><path d="M1921,387L1901,548L2048,550Z" fill="#4171a1" stroke="#4171a1" stroke-width="1.51"/><path d="M1899,841L2045,939L2063,822Z" fill="#214d94" stroke="#214d94" stroke-width="1.51"/><path d="M1882,742L1899,841L2063,822Z" fill="#26579e" stroke="#26579e" stroke-width="1.51"/><path d="M1899,841L1907,964L2045,939Z" fill="#224a96" stroke="#224a96" stroke-width="1.51"/><path d="M685,-245L900,-216L1129,-233Z" fill="#afdbc9" stroke="#afdbc9" stroke-width="1.51"/><path d="M1751,185L1890,286L1924,67Z" fill="#7a87a7" stroke="#7a87a7" stroke-width="1.51"/><path d="M1768,103L1751,185L1924,67Z" fill="#858ea8" stroke="#858ea8" stroke-width="1.51"/><path d="M1838,-73L1899,-22L1926,-162Z" fill="#958fa3" stroke="#958fa3" stroke-width="1.51"/><path d="M1881,1094L1768,1340L1977,1297Z" fill="#1f2e86" stroke="#1f2e86" stroke-width="1.51"/><path d="M1129,-233L1286,-166L1540,-167Z" fill="#a0bfc2" stroke="#a0bfc2" stroke-width="1.51"/><path d="M1798,1088L1768,1340L1881,1094Z" fill="#253693" stroke="#253693" stroke-width="1.51"/><path d="M1795,575L1780,701L1882,742Z" fill="#336bad" stroke="#336bad" stroke-width="1.51"/><path d="M1795,575L1882,742L1901,548Z" fill="#386dac" stroke="#386dac" stroke-width="1.51"/><path d="M1789,361L1795,575L1901,548Z" fill="#4678ad" stroke="#4678ad" stroke-width="1.51"/><path d="M1798,1088L1881,1094L1907,964Z" fill="#26409a" stroke="#26409a" stroke-width="1.51"/><path d="M1760,1026L1798,1088L1907,964Z" fill="#26459c" stroke="#26459c" stroke-width="1.51"/><path d="M1789,361L1901,548L1921,387Z" fill="#5078a9" stroke="#5078a9" stroke-width="1.51"/><path d="M1890,286L1789,361L1921,387Z" fill="#5c7da9" stroke="#5c7da9" stroke-width="1.51"/><path d="M1899,-22L1768,103L1924,67Z" fill="#8b8ca6" stroke="#8b8ca6" stroke-width="1.51"/><path d="M1751,-237L1838,-73L1926,-162Z" fill="#9993ad" stroke="#9993ad" stroke-width="1.51"/><path d="M1838,-73L1768,103L1899,-22Z" fill="#8f8fa7" stroke="#8f8fa7" stroke-width="1.51"/><path d="M1806,787L1760,1026L1899,841Z" fill="#2855a4" stroke="#2855a4" stroke-width="1.51"/><path d="M1882,742L1806,787L1899,841Z" fill="#2b5da8" stroke="#2b5da8" stroke-width="1.51"/><path d="M1899,841L1760,1026L1907,964Z" fill="#264b9f" stroke="#264b9f" stroke-width="1.51"/><path d="M1751,185L1789,361L1890,286Z" fill="#6985aa" stroke="#6985aa" stroke-width="1.51"/><path d="M1780,701L1806,787L1882,742Z" fill="#2c65ab" stroke="#2c65ab" stroke-width="1.51"/><path d="M1620,874L1654,990L1760,1026Z" fill="#2455a4" stroke="#2455a4" stroke-width="1.51"/><path d="M1789,361L1682,390L1795,575Z" fill="#4e80ae" stroke="#4e80ae" stroke-width="1.51"/><path d="M1585,1282L1768,1340L1798,1088Z" fill="#20398d" stroke="#20398d" stroke-width="1.51"/><path d="M1610,1095L1585,1282L1798,1088Z" fill="#26439b" stroke="#26439b" stroke-width="1.51"/><path d="M1620,874L1760,1026L1806,787Z" fill="#2659a6" stroke="#2659a6" stroke-width="1.51"/><path d="M1751,-237L1672,-201L1838,-73Z" fill="#9a99b2" stroke="#9a99b2" stroke-width="1.51"/><path d="M1672,-201L1611,-94L1838,-73Z" fill="#999caf" stroke="#999caf" stroke-width="1.51"/><path d="M1611,-94L1768,103L1838,-73Z" fill="#9297aa" stroke="#9297aa" stroke-width="1.51"/><path d="M1506,1265L1339,1288L1585,1282Z" fill="#1f488f" stroke="#1f488f" stroke-width="1.51"/><path d="M1751,185L1682,390L1789,361Z" fill="#6288ac" stroke="#6288ac" stroke-width="1.51"/><path d="M1688,696L1780,701L1795,575Z" fill="#3371af" stroke="#3371af" stroke-width="1.51"/><path d="M1682,390L1635,556L1795,575Z" fill="#4281b1" stroke="#4281b1" stroke-width="1.51"/><path d="M1780,701L1688,696L1806,787Z" fill="#2c6bae" stroke="#2c6bae" stroke-width="1.51"/><path d="M1688,696L1620,874L1806,787Z" fill="#2868ad" stroke="#2868ad" stroke-width="1.51"/><path d="M1635,556L1688,696L1795,575Z" fill="#3679b1" stroke="#3679b1" stroke-width="1.51"/><path d="M1760,1026L1610,1095L1798,1088Z" fill="#26479d" stroke="#26479d" stroke-width="1.51"/><path d="M1580,197L1682,390L1751,185Z" fill="#6c90ae" stroke="#6c90ae" stroke-width="1.51"/><path d="M1611,-94L1586,137L1768,103Z" fill="#8c9cad" stroke="#8c9cad" stroke-width="1.51"/><path d="M1654,990L1610,1095L1760,1026Z" fill="#264ea0" stroke="#264ea0" stroke-width="1.51"/><path d="M1586,137L1751,185L1768,103Z" fill="#8194ac" stroke="#8194ac" stroke-width="1.51"/><path d="M1586,137L1580,197L1751,185Z" fill="#7c98ae" stroke="#7c98ae" stroke-width="1.51"/><path d="M115,1257L-124,1290L333,1260Z" fill="#898795" stroke="#898795" stroke-width="1.51"/><path d="M-125,-240L-19,-232L340,-256Z" fill="#f4fbc1" stroke="#f4fbc1" stroke-width="1.51"/><path d="M1525,-67L1586,137L1611,-94Z" fill="#91a4af" stroke="#91a4af" stroke-width="1.51"/><path d="M1580,197L1464,283L1682,390Z" fill="#6595b2" stroke="#6595b2" stroke-width="1.51"/><path d="M1464,283L1469,397L1682,390Z" fill="#5894b4" stroke="#5894b4" stroke-width="1.51"/><path d="M1469,397L1635,556L1682,390Z" fill="#4a8bb4" stroke="#4a8bb4" stroke-width="1.51"/><path d="M1635,556L1518,675L1688,696Z" fill="#307cb3" stroke="#307cb3" stroke-width="1.51"/><path d="M1518,675L1620,874L1688,696Z" fill="#2573b3" stroke="#2573b3" stroke-width="1.51"/><path d="M1518,675L1518,868L1620,874Z" fill="#2470b1" stroke="#2470b1" stroke-width="1.51"/><path d="M1540,-167L1611,-94L1672,-201Z" fill="#9ba4b5" stroke="#9ba4b5" stroke-width="1.51"/><path d="M1506,1265L1585,1282L1610,1095Z" fill="#214595" stroke="#214595" stroke-width="1.51"/><path d="M1518,868L1474,963L1620,874Z" fill="#2366ac" stroke="#2366ac" stroke-width="1.51"/><path d="M1469,397L1506,576L1635,556Z" fill="#3e8cb7" stroke="#3e8cb7" stroke-width="1.51"/><path d="M1506,576L1518,675L1635,556Z" fill="#3284b6" stroke="#3284b6" stroke-width="1.51"/><path d="M1620,874L1474,963L1654,990Z" fill="#235da7" stroke="#235da7" stroke-width="1.51"/><path d="M1474,963L1610,1095L1654,990Z" fill="#2456a5" stroke="#2456a5" stroke-width="1.51"/><path d="M1439,1162L1506,1265L1610,1095Z" fill="#264c9d" stroke="#264c9d" stroke-width="1.51"/><path d="M1525,-67L1440,133L1586,137Z" fill="#8aa6b1" stroke="#8aa6b1" stroke-width="1.51"/><path d="M1474,963L1439,1162L1610,1095Z" fill="#2656a4" stroke="#2656a4" stroke-width="1.51"/><path d="M1540,-167L1525,-67L1611,-94Z" fill="#99a7b2" stroke="#99a7b2" stroke-width="1.51"/><path d="M1219,1265L1004,1318L1339,1288Z" fill="#265d96" stroke="#265d96" stroke-width="1.51"/><path d="M1440,133L1580,197L1586,137Z" fill="#7fa1b1" stroke="#7fa1b1" stroke-width="1.51"/><path d="M1440,133L1464,283L1580,197Z" fill="#76a2b3" stroke="#76a2b3" stroke-width="1.51"/><path d="M1280,676L1336,889L1518,675Z" fill="#2187bc" stroke="#2187bc" stroke-width="1.51"/><path d="M1518,675L1336,889L1518,868Z" fill="#2378b5" stroke="#2378b5" stroke-width="1.51"/><path d="M1347,-68L1440,133L1525,-67Z" fill="#93b0b4" stroke="#93b0b4" stroke-width="1.51"/><path d="M1347,-68L1525,-67L1540,-167Z" fill="#9ab0b4" stroke="#9ab0b4" stroke-width="1.51"/><path d="M1286,-166L1347,-68L1540,-167Z" fill="#9db7bb" stroke="#9db7bb" stroke-width="1.51"/><path d="M1328,1091L1439,1162L1474,963Z" fill="#285ea8" stroke="#285ea8" stroke-width="1.51"/><path d="M1469,397L1315,531L1506,576Z" fill="#3e96ba" stroke="#3e96ba" stroke-width="1.51"/><path d="M1506,576L1280,676L1518,675Z" fill="#2d8bba" stroke="#2d8bba" stroke-width="1.51"/><path d="M1336,889L1474,963L1518,868Z" fill="#236daf" stroke="#236daf" stroke-width="1.51"/><path d="M1347,-68L1377,138L1440,133Z" fill="#8cb2b6" stroke="#8cb2b6" stroke-width="1.51"/><path d="M1439,1162L1339,1288L1506,1265Z" fill="#234f97" stroke="#234f97" stroke-width="1.51"/><path d="M1315,531L1280,676L1506,576Z" fill="#3095bd" stroke="#3095bd" stroke-width="1.51"/><path d="M900,-216L1068,-218L1129,-233Z" fill="#a9d4c9" stroke="#a9d4c9" stroke-width="1.51"/><path d="M1440,133L1377,138L1464,283Z" fill="#7ba8b6" stroke="#7ba8b6" stroke-width="1.51"/><path d="M1377,138L1372,294L1464,283Z" fill="#70a7b7" stroke="#70a7b7" stroke-width="1.51"/><path d="M1464,283L1372,294L1469,397Z" fill="#5d9fb7" stroke="#5d9fb7" stroke-width="1.51"/><path d="M1310,376L1315,531L1469,397Z" fill="#4ba0bc" stroke="#4ba0bc" stroke-width="1.51"/><path d="M1336,889L1314,939L1474,963Z" fill="#2370b1" stroke="#2370b1" stroke-width="1.51"/><path d="M1314,939L1328,1091L1474,963Z" fill="#2569ae" stroke="#2569ae" stroke-width="1.51"/><path d="M1372,294L1310,376L1469,397Z" fill="#58a2ba" stroke="#58a2ba" stroke-width="1.51"/><path d="M1328,1091L1339,1288L1439,1162Z" fill="#2858a2" stroke="#2858a2" stroke-width="1.51"/><path d="M1314,939L1239,1001L1328,1091Z" fill="#266eb0" stroke="#266eb0" stroke-width="1.51"/><path d="M1280,676L1239,870L1336,889Z" fill="#2187bb" stroke="#2187bb" stroke-width="1.51"/><path d="M1328,1091L1219,1265L1339,1288Z" fill="#275ca0" stroke="#275ca0" stroke-width="1.51"/><path d="M1128,-23L1139,79L1347,-68Z" fill="#96c4bb" stroke="#96c4bb" stroke-width="1.51"/><path d="M1347,-68L1139,79L1377,138Z" fill="#8fbcba" stroke="#8fbcba" stroke-width="1.51"/><path d="M1209,272L1372,294L1377,138Z" fill="#71afba" stroke="#71afba" stroke-width="1.51"/><path d="M1139,79L1209,272L1377,138Z" fill="#81babc" stroke="#81babc" stroke-width="1.51"/><path d="M1209,272L1310,376L1372,294Z" fill="#60adbc" stroke="#60adbc" stroke-width="1.51"/><path d="M1229,635L1280,676L1315,531Z" fill="#2d9bc1" stroke="#2d9bc1" stroke-width="1.51"/><path d="M1134,1170L1219,1265L1328,1091Z" fill="#2d63a8" stroke="#2d63a8" stroke-width="1.51"/><path d="M1286,-166L1128,-23L1347,-68Z" fill="#9dc3bb" stroke="#9dc3bb" stroke-width="1.51"/><path d="M1310,376L1144,390L1315,531Z" fill="#4ba9c0" stroke="#4ba9c0" stroke-width="1.51"/><path d="M1239,870L1314,939L1336,889Z" fill="#227bb6" stroke="#227bb6" stroke-width="1.51"/><path d="M1239,1001L1134,1170L1328,1091Z" fill="#2c6bae" stroke="#2c6bae" stroke-width="1.51"/><path d="M1144,572L1229,635L1315,531Z" fill="#31a2c2" stroke="#31a2c2" stroke-width="1.51"/><path d="M1144,390L1144,572L1315,531Z" fill="#40a9c2" stroke="#40a9c2" stroke-width="1.51"/><path d="M1239,870L1239,1001L1314,939Z" fill="#2379b5" stroke="#2379b5" stroke-width="1.51"/><path d="M1209,272L1144,390L1310,376Z" fill="#5ab0bf" stroke="#5ab0bf" stroke-width="1.51"/><path d="M1229,635L1062,643L1239,870Z" fill="#2898c1" stroke="#2898c1" stroke-width="1.51"/><path d="M1229,635L1239,870L1280,676Z" fill="#2193c0" stroke="#2193c0" stroke-width="1.51"/><path d="M1129,-233L1128,-23L1286,-166Z" fill="#a2c9c0" stroke="#a2c9c0" stroke-width="1.51"/><path d="M1032,-107L1128,-23L1129,-233Z" fill="#a3cebf" stroke="#a3cebf" stroke-width="1.51"/><path d="M1139,79L1071,261L1209,272Z" fill="#7bbfbd" stroke="#7bbfbd" stroke-width="1.51"/><path d="M1032,890L1075,945L1239,870Z" fill="#2d86b8" stroke="#2d86b8" stroke-width="1.51"/><path d="M1062,643L1032,890L1239,870Z" fill="#2b93be" stroke="#2b93be" stroke-width="1.51"/><path d="M1239,870L1075,945L1239,1001Z" fill="#297db6" stroke="#297db6" stroke-width="1.51"/><path d="M1075,945L1134,1170L1239,1001Z" fill="#3075b1" stroke="#3075b1" stroke-width="1.51"/><path d="M678,1254L563,1288L1004,1318Z" fill="#4b7296" stroke="#4b7296" stroke-width="1.51"/><path d="M1144,572L1062,643L1229,635Z" fill="#33a3c3" stroke="#33a3c3" stroke-width="1.51"/><path d="M1134,1170L1004,1318L1219,1265Z" fill="#2e649d" stroke="#2e649d" stroke-width="1.51"/><path d="M1068,-218L1032,-107L1129,-233Z" fill="#a6d1c5" stroke="#a6d1c5" stroke-width="1.51"/><path d="M1033,120L1071,261L1139,79Z" fill="#87c5bc" stroke="#87c5bc" stroke-width="1.51"/><path d="M1071,261L1144,390L1209,272Z" fill="#65b8be" stroke="#65b8be" stroke-width="1.51"/><path d="M899,1261L678,1254L1004,1318Z" fill="#406f99" stroke="#406f99" stroke-width="1.51"/><path d="M924,823L1032,890L1062,643Z" fill="#319bbf" stroke="#319bbf" stroke-width="1.51"/><path d="M1075,945L993,1146L1134,1170Z" fill="#3775af" stroke="#3775af" stroke-width="1.51"/><path d="M993,1146L1004,1318L1134,1170Z" fill="#366ba4" stroke="#366ba4" stroke-width="1.51"/><path d="M1128,-23L1033,120L1139,79Z" fill="#93c9bc" stroke="#93c9bc" stroke-width="1.51"/><path d="M1071,261L1032,419L1144,390Z" fill="#5eb8bf" stroke="#5eb8bf" stroke-width="1.51"/><path d="M1008,527L1062,643L1144,572Z" fill="#3aabc3" stroke="#3aabc3" stroke-width="1.51"/><path d="M1144,390L1032,419L1144,572Z" fill="#4bb1c2" stroke="#4bb1c2" stroke-width="1.51"/><path d="M1032,419L1008,527L1144,572Z" fill="#44b1c3" stroke="#44b1c3" stroke-width="1.51"/><path d="M1032,-107L1033,120L1128,-23Z" fill="#9acdbc" stroke="#9acdbc" stroke-width="1.51"/><path d="M1032,-107L931,-99L1033,120Z" fill="#9fd2bc" stroke="#9fd2bc" stroke-width="1.51"/><path d="M935,647L924,823L1062,643Z" fill="#35a6c3" stroke="#35a6c3" stroke-width="1.51"/><path d="M1033,120L886,207L1071,261Z" fill="#81c8be" stroke="#81c8be" stroke-width="1.51"/><path d="M886,207L1032,419L1071,261Z" fill="#6cc1bf" stroke="#6cc1bf" stroke-width="1.51"/><path d="M1032,890L870,1012L1075,945Z" fill="#3588b6" stroke="#3588b6" stroke-width="1.51"/><path d="M870,1012L993,1146L1075,945Z" fill="#3a80b2" stroke="#3a80b2" stroke-width="1.51"/><path d="M1008,527L935,647L1062,643Z" fill="#3badc3" stroke="#3badc3" stroke-width="1.51"/><path d="M900,-216L1032,-107L1068,-218Z" fill="#a8d6c5" stroke="#a8d6c5" stroke-width="1.51"/><path d="M993,1146L899,1261L1004,1318Z" fill="#386e9f" stroke="#386e9f" stroke-width="1.51"/><path d="M886,207L857,441L1032,419Z" fill="#65c2c0" stroke="#65c2c0" stroke-width="1.51"/><path d="M900,-216L931,-99L1032,-107Z" fill="#a9d8c1" stroke="#a9d8c1" stroke-width="1.51"/><path d="M931,-99L866,141L1033,120Z" fill="#99d2bc" stroke="#99d2bc" stroke-width="1.51"/><path d="M924,823L870,1012L1032,890Z" fill="#3a8fb8" stroke="#3a8fb8" stroke-width="1.51"/><path d="M857,441L1008,527L1032,419Z" fill="#50bac3" stroke="#50bac3" stroke-width="1.51"/><path d="M866,141L886,207L1033,120Z" fill="#8dcebc" stroke="#8dcebc" stroke-width="1.51"/><path d="M870,1012L854,1111L993,1146Z" fill="#447caf" stroke="#447caf" stroke-width="1.51"/><path d="M847,546L935,647L1008,527Z" fill="#43b4c3" stroke="#43b4c3" stroke-width="1.51"/><path d="M857,441L847,546L1008,527Z" fill="#50bac2" stroke="#50bac2" stroke-width="1.51"/><path d="M854,1111L899,1261L993,1146Z" fill="#4374aa" stroke="#4374aa" stroke-width="1.51"/><path d="M768,-96L772,143L866,141Z" fill="#a2d8b9" stroke="#a2d8b9" stroke-width="1.51"/><path d="M718,254L857,441L886,207Z" fill="#78c9bd" stroke="#78c9bd" stroke-width="1.51"/><path d="M854,1111L780,1185L899,1261Z" fill="#4976a7" stroke="#4976a7" stroke-width="1.51"/><path d="M720,693L760,832L924,823Z" fill="#4ba4be" stroke="#4ba4be" stroke-width="1.51"/><path d="M760,832L870,1012L924,823Z" fill="#4695b8" stroke="#4695b8" stroke-width="1.51"/><path d="M900,-216L768,-96L931,-99Z" fill="#aedbbf" stroke="#aedbbf" stroke-width="1.51"/><path d="M768,-96L866,141L931,-99Z" fill="#a7d9ba" stroke="#a7d9ba" stroke-width="1.51"/><path d="M720,693L924,823L935,647Z" fill="#44a9c1" stroke="#44a9c1" stroke-width="1.51"/><path d="M847,546L720,693L935,647Z" fill="#4db3c1" stroke="#4db3c1" stroke-width="1.51"/><path d="M444,1261L333,1260L563,1288Z" fill="#6f7e96" stroke="#6f7e96" stroke-width="1.51"/><path d="M760,832L725,986L870,1012Z" fill="#4e90b5" stroke="#4e90b5" stroke-width="1.51"/><path d="M780,1185L678,1254L899,1261Z" fill="#4c749f" stroke="#4c749f" stroke-width="1.51"/><path d="M685,-245L768,-96L900,-216Z" fill="#b6dfc3" stroke="#b6dfc3" stroke-width="1.51"/><path d="M718,254L690,442L857,441Z" fill="#72c7be" stroke="#72c7be" stroke-width="1.51"/><path d="M866,141L772,143L886,207Z" fill="#92d1bb" stroke="#92d1bb" stroke-width="1.51"/><path d="M772,143L718,254L886,207Z" fill="#8ed1bb" stroke="#8ed1bb" stroke-width="1.51"/><path d="M725,986L854,1111L870,1012Z" fill="#4d85b1" stroke="#4d85b1" stroke-width="1.51"/><path d="M680,488L847,546L857,441Z" fill="#5dbfc1" stroke="#5dbfc1" stroke-width="1.51"/><path d="M690,442L680,488L857,441Z" fill="#68c3bf" stroke="#68c3bf" stroke-width="1.51"/><path d="M725,986L780,1185L854,1111Z" fill="#5180ad" stroke="#5180ad" stroke-width="1.51"/><path d="M680,488L628,592L720,693Z" fill="#60bcc0" stroke="#60bcc0" stroke-width="1.51"/><path d="M768,-96L622,108L772,143Z" fill="#a9dbb8" stroke="#a9dbb8" stroke-width="1.51"/><path d="M680,488L720,693L847,546Z" fill="#59bac1" stroke="#59bac1" stroke-width="1.51"/><path d="M610,820L725,986L760,832Z" fill="#579cb7" stroke="#579cb7" stroke-width="1.51"/><path d="M685,-245L605,-89L768,-96Z" fill="#bbe2bd" stroke="#bbe2bd" stroke-width="1.51"/><path d="M605,-89L622,108L768,-96Z" fill="#b4e0b7" stroke="#b4e0b7" stroke-width="1.51"/><path d="M725,986L531,1134L780,1185Z" fill="#5b83ac" stroke="#5b83ac" stroke-width="1.51"/><path d="M531,1134L678,1254L780,1185Z" fill="#5b7ba4" stroke="#5b7ba4" stroke-width="1.51"/><path d="M720,693L610,820L760,832Z" fill="#57a8bd" stroke="#57a8bd" stroke-width="1.51"/><path d="M622,108L718,254L772,143Z" fill="#9bd6b9" stroke="#9bd6b9" stroke-width="1.51"/><path d="M580,-171L605,-89L685,-245Z" fill="#c1e5be" stroke="#c1e5be" stroke-width="1.51"/><path d="M557,257L528,417L690,442Z" fill="#84cebc" stroke="#84cebc" stroke-width="1.51"/><path d="M557,257L690,442L718,254Z" fill="#83cebb" stroke="#83cebb" stroke-width="1.51"/><path d="M622,108L557,257L718,254Z" fill="#9bd7b9" stroke="#9bd7b9" stroke-width="1.51"/><path d="M572,650L610,820L720,693Z" fill="#60b1be" stroke="#60b1be" stroke-width="1.51"/><path d="M610,820L531,998L725,986Z" fill="#6198b3" stroke="#6198b3" stroke-width="1.51"/><path d="M531,998L531,1134L725,986Z" fill="#668dae" stroke="#668dae" stroke-width="1.51"/><path d="M628,592L572,650L720,693Z" fill="#62b9bf" stroke="#62b9bf" stroke-width="1.51"/><path d="M531,1134L563,1288L678,1254Z" fill="#617b9e" stroke="#617b9e" stroke-width="1.51"/><path d="M477,-259L580,-171L685,-245Z" fill="#c9e9c3" stroke="#c9e9c3" stroke-width="1.51"/><path d="M528,417L680,488L690,442Z" fill="#75c8bd" stroke="#75c8bd" stroke-width="1.51"/><path d="M605,-89L488,-36L622,108Z" fill="#bde4b6" stroke="#bde4b6" stroke-width="1.51"/><path d="M528,417L628,592L680,488Z" fill="#72c6be" stroke="#72c6be" stroke-width="1.51"/><path d="M482,990L531,998L610,820Z" fill="#6d9bb2" stroke="#6d9bb2" stroke-width="1.51"/><path d="M409,876L482,990L610,820Z" fill="#72a2b4" stroke="#72a2b4" stroke-width="1.51"/><path d="M572,650L479,697L610,820Z" fill="#6db5be" stroke="#6db5be" stroke-width="1.51"/><path d="M427,83L557,257L622,108Z" fill="#b0dfb7" stroke="#b0dfb7" stroke-width="1.51"/><path d="M488,-36L427,83L622,108Z" fill="#bee5b6" stroke="#bee5b6" stroke-width="1.51"/><path d="M425,538L572,650L628,592Z" fill="#75c2be" stroke="#75c2be" stroke-width="1.51"/><path d="M528,417L425,538L628,592Z" fill="#7cc9be" stroke="#7cc9be" stroke-width="1.51"/><path d="M479,697L409,876L610,820Z" fill="#74afba" stroke="#74afba" stroke-width="1.51"/><path d="M427,83L442,257L557,257Z" fill="#afdfb7" stroke="#afdfb7" stroke-width="1.51"/><path d="M580,-171L488,-36L605,-89Z" fill="#c6e8b7" stroke="#c6e8b7" stroke-width="1.51"/><path d="M442,257L528,417L557,257Z" fill="#97d5b9" stroke="#97d5b9" stroke-width="1.51"/><path d="M531,1134L444,1261L563,1288Z" fill="#6b7f9d" stroke="#6b7f9d" stroke-width="1.51"/><path d="M425,538L479,697L572,650Z" fill="#7ac1bd" stroke="#7ac1bd" stroke-width="1.51"/><path d="M477,-259L488,-36L580,-171Z" fill="#cdebbc" stroke="#cdebbc" stroke-width="1.51"/><path d="M531,998L482,990L531,1134Z" fill="#7190ad" stroke="#7190ad" stroke-width="1.51"/><path d="M-19,-232L186,-204L340,-256Z" fill="#edf8c0" stroke="#edf8c0" stroke-width="1.51"/><path d="M477,-259L340,-256L488,-36Z" fill="#d6efbd" stroke="#d6efbd" stroke-width="1.51"/><path d="M442,257L393,416L528,417Z" fill="#97d5b9" stroke="#97d5b9" stroke-width="1.51"/><path d="M393,416L425,538L528,417Z" fill="#8dd0bb" stroke="#8dd0bb" stroke-width="1.51"/><path d="M482,990L412,1142L531,1134Z" fill="#768cab" stroke="#768cab" stroke-width="1.51"/><path d="M412,1142L444,1261L531,1134Z" fill="#7584a5" stroke="#7584a5" stroke-width="1.51"/><path d="M233,725L409,876L479,697Z" fill="#85b9ba" stroke="#85b9ba" stroke-width="1.51"/><path d="M293,982L412,1142L482,990Z" fill="#7f96ad" stroke="#7f96ad" stroke-width="1.51"/><path d="M270,-59L427,83L488,-36Z" fill="#cfecb4" stroke="#cfecb4" stroke-width="1.51"/><path d="M340,-256L270,-59L488,-36Z" fill="#dbf1b6" stroke="#dbf1b6" stroke-width="1.51"/><path d="M425,538L233,725L479,697Z" fill="#88c3bc" stroke="#88c3bc" stroke-width="1.51"/><path d="M409,876L293,982L482,990Z" fill="#7f9fb0" stroke="#7f9fb0" stroke-width="1.51"/><path d="M240,560L233,725L425,538Z" fill="#91cabc" stroke="#91cabc" stroke-width="1.51"/><path d="M427,83L317,266L442,257Z" fill="#b7e2b6" stroke="#b7e2b6" stroke-width="1.51"/><path d="M276,62L317,266L427,83Z" fill="#c7e9b4" stroke="#c7e9b4" stroke-width="1.51"/><path d="M270,-59L276,62L427,83Z" fill="#d3eeb4" stroke="#d3eeb4" stroke-width="1.51"/><path d="M317,266L393,416L442,257Z" fill="#a6dbb8" stroke="#a6dbb8" stroke-width="1.51"/><path d="M412,1142L333,1184L444,1261Z" fill="#7c86a1" stroke="#7c86a1" stroke-width="1.51"/><path d="M333,1184L333,1260L444,1261Z" fill="#7b849b" stroke="#7b849b" stroke-width="1.51"/><path d="M233,725L256,892L409,876Z" fill="#8ab2b6" stroke="#8ab2b6" stroke-width="1.51"/><path d="M293,982L333,1184L412,1142Z" fill="#8490a9" stroke="#8490a9" stroke-width="1.51"/><path d="M393,416L240,560L425,538Z" fill="#94d1bc" stroke="#94d1bc" stroke-width="1.51"/><path d="M317,266L235,347L393,416Z" fill="#a7dbb8" stroke="#a7dbb8" stroke-width="1.51"/><path d="M256,892L293,982L409,876Z" fill="#87a6b2" stroke="#87a6b2" stroke-width="1.51"/><path d="M235,347L240,560L393,416Z" fill="#9fd7ba" stroke="#9fd7ba" stroke-width="1.51"/><path d="M7,1250L-124,1290L115,1257Z" fill="#8e8999" stroke="#8e8999" stroke-width="1.51"/><path d="M235,347L161,436L240,560Z" fill="#a4d8ba" stroke="#a4d8ba" stroke-width="1.51"/><path d="M189,72L140,196L276,62Z" fill="#d3edb3" stroke="#d3edb3" stroke-width="1.51"/><path d="M276,62L140,196L317,266Z" fill="#c7e9b5" stroke="#c7e9b5" stroke-width="1.51"/><path d="M150,1163L333,1260L333,1184Z" fill="#8588a0" stroke="#8588a0" stroke-width="1.51"/><path d="M293,982L150,1163L333,1184Z" fill="#8a91a9" stroke="#8a91a9" stroke-width="1.51"/><path d="M186,-204L270,-59L340,-256Z" fill="#e4f5bb" stroke="#e4f5bb" stroke-width="1.51"/><path d="M150,1163L115,1257L333,1260Z" fill="#88889c" stroke="#88889c" stroke-width="1.51"/><path d="M161,949L150,1163L293,982Z" fill="#8e9bac" stroke="#8e9bac" stroke-width="1.51"/><path d="M140,196L235,347L317,266Z" fill="#b9e2b6" stroke="#b9e2b6" stroke-width="1.51"/><path d="M132,692L233,725L240,560Z" fill="#96c7bb" stroke="#96c7bb" stroke-width="1.51"/><path d="M233,725L158,880L256,892Z" fill="#90b3b6" stroke="#90b3b6" stroke-width="1.51"/><path d="M270,-59L185,-14L276,62Z" fill="#dbf1b3" stroke="#dbf1b3" stroke-width="1.51"/><path d="M256,892L161,949L293,982Z" fill="#8ca4b0" stroke="#8ca4b0" stroke-width="1.51"/><path d="M186,-204L185,-14L270,-59Z" fill="#e4f4b4" stroke="#e4f4b4" stroke-width="1.51"/><path d="M185,-14L189,72L276,62Z" fill="#d8efb3" stroke="#d8efb3" stroke-width="1.51"/><path d="M161,436L115,547L240,560Z" fill="#a0d5bb" stroke="#a0d5bb" stroke-width="1.51"/><path d="M115,547L132,692L240,560Z" fill="#9ccebc" stroke="#9ccebc" stroke-width="1.51"/><path d="M158,880L161,949L256,892Z" fill="#91aab2" stroke="#91aab2" stroke-width="1.51"/><path d="M132,692L158,880L233,725Z" fill="#94bdba" stroke="#94bdba" stroke-width="1.51"/><path d="M39,1124L150,1163L161,949Z" fill="#9498aa" stroke="#9498aa" stroke-width="1.51"/><path d="M140,196L161,436L235,347Z" fill="#b3e0b7" stroke="#b3e0b7" stroke-width="1.51"/><path d="M132,692L32,849L158,880Z" fill="#98bab8" stroke="#98bab8" stroke-width="1.51"/><path d="M140,196L-65,279L161,436Z" fill="#bee4b6" stroke="#bee4b6" stroke-width="1.51"/><path d="M-65,279L-53,401L161,436Z" fill="#b8e1ba" stroke="#b8e1ba" stroke-width="1.51"/><path d="M-2,1008L39,1124L161,949Z" fill="#979fac" stroke="#979fac" stroke-width="1.51"/><path d="M-13,-86L-68,44L185,-14Z" fill="#e9f7b3" stroke="#e9f7b3" stroke-width="1.51"/><path d="M-13,-86L185,-14L186,-204Z" fill="#ebf7b3" stroke="#ebf7b3" stroke-width="1.51"/><path d="M-19,-232L-13,-86L186,-204Z" fill="#f2fabb" stroke="#f2fabb" stroke-width="1.51"/><path d="M185,-14L-68,44L189,72Z" fill="#e0f3b2" stroke="#e0f3b2" stroke-width="1.51"/><path d="M-68,44L140,196L189,72Z" fill="#dbf1b3" stroke="#dbf1b3" stroke-width="1.51"/><path d="M115,547L-15,649L132,692Z" fill="#a1cebb" stroke="#a1cebb" stroke-width="1.51"/><path d="M-53,401L115,547L161,436Z" fill="#acdbba" stroke="#acdbba" stroke-width="1.51"/><path d="M158,880L32,849L161,949Z" fill="#96aeb3" stroke="#96aeb3" stroke-width="1.51"/><path d="M32,849L-2,1008L161,949Z" fill="#99a9b0" stroke="#99a9b0" stroke-width="1.51"/><path d="M39,1124L115,1257L150,1163Z" fill="#928da2" stroke="#928da2" stroke-width="1.51"/><path d="M39,1124L7,1250L115,1257Z" fill="#928c9e" stroke="#928c9e" stroke-width="1.51"/><path d="M-53,401L-58,535L115,547Z" fill="#acdabe" stroke="#acdabe" stroke-width="1.51"/><path d="M-15,649L32,849L132,692Z" fill="#9ec4bb" stroke="#9ec4bb" stroke-width="1.51"/><path d="M-68,44L-65,279L140,196Z" fill="#d5eeb8" stroke="#d5eeb8" stroke-width="1.51"/><path d="M-58,535L-15,649L115,547Z" fill="#a5d3be" stroke="#a5d3be" stroke-width="1.51"/><path d="M-118,991L-2,1008L32,849Z" fill="#9aa8b5" stroke="#9aa8b5" stroke-width="1.51"/><path d="M-152,827L-118,991L32,849Z" fill="#9db1bb" stroke="#9db1bb" stroke-width="1.51"/><path d="M-15,649L-121,732L32,849Z" fill="#9fc4c1" stroke="#9fc4c1" stroke-width="1.51"/><path d="M-121,732L-152,827L32,849Z" fill="#9fbdc0" stroke="#9fbdc0" stroke-width="1.51"/><path d="M-112,1174L7,1250L39,1124Z" fill="#968fa7" stroke="#968fa7" stroke-width="1.51"/><path d="M-2,1008L-112,1174L39,1124Z" fill="#9997ae" stroke="#9997ae" stroke-width="1.51"/><path d="M-19,-232L-125,-240L-13,-86Z" fill="#f6fcc3" stroke="#f6fcc3" stroke-width="1.51"/><path d="M-125,-240L-165,-105L-13,-86Z" fill="#f5fbc2" stroke="#f5fbc2" stroke-width="1.51"/><path d="M-118,991L-112,1174L-2,1008Z" fill="#9b9db3" stroke="#9b9db3" stroke-width="1.51"/><path d="M-112,1174L-124,1290L7,1250Z" fill="#928ca2" stroke="#928ca2" stroke-width="1.51"/><path d="M-68,44L-183,41L-65,279Z" fill="#e0f3bd" stroke="#e0f3bd" stroke-width="1.51"/><path d="M-183,41L-209,269L-65,279Z" fill="#d6efc2" stroke="#d6efc2" stroke-width="1.51"/><path d="M-127,493L-58,535L-53,401Z" fill="#b0dcc3" stroke="#b0dcc3" stroke-width="1.51"/><path d="M-58,535L-121,732L-15,649Z" fill="#a4cfc3" stroke="#a4cfc3" stroke-width="1.51"/><path d="M-165,-105L-68,44L-13,-86Z" fill="#eff9ba" stroke="#eff9ba" stroke-width="1.51"/><path d="M-165,-105L-183,41L-68,44Z" fill="#edf8be" stroke="#edf8be" stroke-width="1.51"/><path d="M-209,269L-211,378L-65,279Z" fill="#c4e7c5" stroke="#c4e7c5" stroke-width="1.51"/><path d="M-127,493L-121,732L-58,535Z" fill="#a8d4c6" stroke="#a8d4c6" stroke-width="1.51"/><path d="M-65,279L-211,378L-53,401Z" fill="#bce3c2" stroke="#bce3c2" stroke-width="1.51"/><path d="M-211,378L-127,493L-53,401Z" fill="#b6dfc5" stroke="#b6dfc5" stroke-width="1.51"/><path d="M-127,493L-211,378L-121,732Z" fill="#abdac9" stroke="#abdac9" stroke-width="1.51"/><path d="M-118,991L-152,827L-112,1174Z" fill="#9ca4b9" stroke="#9ca4b9" stroke-width="1.51"/><path d="M-152,827L-124,1290L-112,1174Z" fill="#9c99b4" stroke="#9c99b4" stroke-width="1.51"/><path d="M-211,378L-152,827L-121,732Z" fill="#a6cfc9" stroke="#a6cfc9" stroke-width="1.51"/><path d="M-152,827L-211,378L-124,1290Z" fill="#a0bac4" stroke="#a0bac4" stroke-width="1.51"/></svg>