<svg xmlns="http://www.w3.org/2000/svg" viewBox="0 0 98 96"><defs><style>.cls-1{fill:#99cabb;}</style></defs><title>Fichier 6</title><g id="Calque_2" data-name="Calque 2"><g id="Calque_1-2" data-name="Calque 1"><path class="cls-1" d="M42.84,35.2c0-5.73-3.54-8.62-9.54-8.62-1.8,0-3.3.09-4.3.14V44.14c1,.09,1.82.09,3.63.09C37.91,44.23,42.84,42.38,42.84,35.2Z"/><path class="cls-1" d="M0,96H98V0H0ZM56,60.65c0-.45-.13-.59.19-.36A16.19,16.19,0,0,0,65.09,63c3.56,0,5-1.49,5-3.52,0-1.62-1.08-3.07-5.64-5.42C58,51,55.32,47.84,55.32,42.65,55.32,36.83,59.87,32,67.76,32a19.88,19.88,0,0,1,7.93,1.26c.36.23.3.59.3.9v6.18c0,.36-.08.59-.54.45a15,15,0,0,0-7.78-2c-3.56,0-4.75,1.8-4.75,3.29s.83,2.75,5.61,5.23c7.08,3.43,9.3,6.72,9.3,11.55,0,7.22-5.5,11.1-12.95,11.1A18.07,18.07,0,0,1,56,68c-.32-.14,0-.36,0-.72ZM21,20h.08a2,2,0,0,1,.91-.45c2.89-.14,7.13-.18,11.6-.18,12.5,0,17.35,6.88,17.35,15.64,0,11.46-8.26,16.39-18.46,16.39-1.71,0-2.48-.08-3.48-.08V68.64C29,69,28.76,70,28.36,70h-6.9c-.36,0-.45-1-.45-1.36Z"/></g></g></svg>