<?xml version="1.0" encoding="utf-8"?>
<!-- Generator: Adobe Illustrator 20.1.0, SVG Export Plug-In . SVG Version: 6.00 Build 0)  -->
<svg version="1.1" id="Calque_1" xmlns="http://www.w3.org/2000/svg" xmlns:xlink="http://www.w3.org/1999/xlink" x="0px" y="0px"
	 viewBox="0 0 98 94" style="enable-background:new 0 0 98 94;" xml:space="preserve">
<style type="text/css">
	.st0{fill:#0493AA;}
	.st1{display:none;fill:#0493AA;}
</style>
<g id="Calque_2">
</g>
<g id="Calque_1_1_">
	<g>
		<path class="st0" d="M45.7,34.2c0-5.7-3.5-8.6-9.5-8.6c-1.8,0-3.2,0.1-4.2,0.1v17.4c1,0.1,1.8,0.1,3.6,0.1
			C40.9,43.2,45.7,41.4,45.7,34.2z"/>
		<path class="st0" d="M3,94h93V0H3V94z M59,59.7c0-0.5-0.2-0.6,0.1-0.4C62,61.1,65,62,68,62c3.6,0,5-1.5,5-3.5
			c0-1.6-1.1-3.1-5.6-5.4c-6.4-3.1-9.1-6.2-9.1-11.4c0-5.8,4.5-10.6,12.4-10.6c3.9,0,6.5,0.6,8,1.3c0.4,0.2,0.4,0.6,0.4,0.9v6.2
			c0,0.4-0.1,0.6-0.6,0.5c-2-1.3-4.9-2-7.8-2c-3.6,0-4.8,1.8-4.8,3.3c0,1.6,0.8,2.8,5.6,5.2c7.1,3.4,9.3,6.7,9.3,11.6
			c0,7.2-5.5,11.1-12.9,11.1c-3.9,0-6.9-0.8-8.8-1.9c-0.3-0.1,0-0.4,0-0.7L59,59.7L59,59.7z M24,19L24,19c0,0,0.5-0.5,0.9-0.5
			c2.9-0.1,7.1-0.2,11.6-0.2c12.5,0,17.4,6.9,17.4,15.6c0,11.5-8.2,16.4-18.4,16.4c-1.7,0-2.4-0.1-3.4-0.1v17.3
			c0,0.4-0.4,1.4-0.8,1.4h-6.9C24,69,24,68,24,67.6V19z"/>
	</g>
	<g>
		<path class="st1" d="M2.6,61C2.7,61,3,60.9,3,60.5V38c0-0.3-0.2-0.4-0.4-0.4c-0.7,0-1.2,4.4-1.2,11.7C1.5,57.6,2,61,2.6,61z"/>
		<path class="st0" d="M0,94h7V0H0V94z"/>
	</g>
	<g>
		<path class="st1" d="M93.6,61c0.1,0,0.4-0.1,0.4-0.5V38c0-0.3-0.2-0.4-0.4-0.4c-0.7,0-1.2,4.4-1.2,11.7C92.5,57.6,93,61,93.6,61z"
			/>
		<path class="st0" d="M91,94h7V0h-7V94z"/>
	</g>
</g>
</svg>
