<svg xmlns="http://www.w3.org/2000/svg" viewBox="0 0 135 135"><defs><style>.cls-1{fill:#99cabb;}</style></defs><title>Fichier 4</title><g id="Calque_2" data-name="Calque 2"><g id="Calque_1-2" data-name="Calque 1"><path class="cls-1" d="M103.14,58H97.47l-3,15h5c3.24,0,5.67-.52,7.29-1.74s2.7-3.3,3.24-6.13.41-4.51-.67-5.59S106.24,58,103.14,58Z"/><path class="cls-1" d="M67.5,0A67.5,67.5,0,1,0,135,67.5,67.5,67.5,0,0,0,67.5,0ZM52.65,65.74a15.71,15.71,0,0,1-1.76,5,20,20,0,0,1-3.37,4.18,14.67,14.67,0,0,1-5.4,3.18,24.17,24.17,0,0,1-7.56.89h-7L25.65,89h-8.1l7.29-37H40.5c4.72,0,8.1,1.07,10.26,3.5S53.46,61.29,52.65,65.74ZM73.44,79l3.24-16.28c.4-1.89.27-3-.41-3.71s-2-1-4-1H65.74L61.56,79h-8.1l7.42-37H69L67.09,52h7.16c4.45,0,7.69.73,9.32,2.35s2.29,4,1.48,7.46L81.67,79Zm43.2-8.26a20,20,0,0,1-3.37,4.18,14.67,14.67,0,0,1-5.4,3.18,24.17,24.17,0,0,1-7.56.89h-7L91.39,89h-8.1l7.29-37h15.66c4.72,0,8.1,1.07,10.26,3.5s2.7,5.87,1.89,10.32A15.29,15.29,0,0,1,116.64,70.74Z"/><path class="cls-1" d="M37.39,58H31.72l-3,15h5c3.24,0,5.67-.52,7.29-1.74s2.7-3.3,3.24-6.13.41-4.51-.67-5.59S40.5,58,37.39,58Z"/></g></g></svg>