<svg xmlns="http://www.w3.org/2000/svg" viewBox="0 0 85.78 96.35"><defs><style>.cls-1{fill:#99cabb;}.cls-2{fill:#525353;}.cls-3{fill:#aa9678;}.cls-4{fill:#fff;}.cls-5{fill:#bbbcbd;}.cls-6{fill:none;}.cls-7{fill:#fcb03f;}.cls-8{fill:#e3dddb;}</style></defs><title>Fichier 2</title><g id="Calque_2" data-name="Calque 2"><g id="Calque_1-2" data-name="Calque 1"><path class="cls-1" d="M54.49,70l4.27-1c-1.08-.39-2.17-.76-3.27-1.09-1.37-.4-2.76-.76-4.16-1.05A53.12,53.12,0,0,0,45.59,66"/><path class="cls-2" d="M57.76,74c-.18-.2-.36-.41-.55-.65.19.24.37.45.55.65"/><path class="cls-3" d="M59.11,75.28v0A11.2,11.2,0,0,1,57.76,74a11.2,11.2,0,0,0,1.35,1.3"/><path class="cls-4" d="M77,23.93h0"/><path class="cls-4" d="M79.36,40.27v0"/><path class="cls-5" d="M79.36,40.25v0"/><path class="cls-6" d="M77.09,36.8c-.49,0-.88.66-.88,1.47s.4,1.47.88,1.47.88-.66.88-1.47-.4-1.47-.88-1.47"/><path class="cls-1" d="M80.7,40.2l-1.46-1.46s-.09,0-.1-.07-.09-.13-.09-.21h0L77,29.33l-2,9.38h0s0-.09,0-.07a4.78,4.78,0,0,0-.15.58c0,.07,0,.1,0,.17a3.37,3.37,0,0,0-.06.47C74.67,42.8,75.72,44,77,44a1.44,1.44,0,0,0,.65-.06s.07,0,.1,0a1.72,1.72,0,0,0,.25-.14l.13-.1a2.57,2.57,0,0,0,.3-.31c.06-.08.13-.16.19-.26l.11-.18a4,4,0,0,0,.18-.37l.06-.14a5.08,5.08,0,0,0,.19-.57,5.92,5.92,0,0,0,.13-.67l0-.09a6.55,6.55,0,0,0,0-.66c0-.05,0-.1,0-.15s-.16-.09-.16-.14-.15.08-.15.12v0s0,.09,0,.13c0,.22,0,.45,0,.66h0s.13,0,.12,0,0,0,0,0a5.34,5.34,0,0,0-.12.67v-.11h.13Zm-3.62-.47c-.49,0-.88-.66-.88-1.47s.4-1.47.88-1.47.88.66.88,1.47S77.58,39.73,77.09,39.73Zm2.21-.36v.07h0Z"/><path class="cls-1" d="M74.65,39.82a.93.93,0,0,0,0,.1s0,0,0-.07v0Z"/><path class="cls-6" d="M43.86,35.52a2,2,0,1,0,2.07,2,2,2,0,0,0-2.07-2"/><path class="cls-7" d="M60.7,31.11v0"/><path class="cls-1" d="M49.37,40.21v0a5.34,5.34,0,0,0,0-.55h0a5.29,5.29,0,0,0-.09-.53h0a5.21,5.21,0,0,0-.14-.5h0a5,5,0,0,0-.19-.48h0c-.07-.16-.15-.31-.24-.46a5.4,5.4,0,0,0-1-1.23h0L43.89,25.08l-3.8,11.26v0l0-.24-16,3.58h0l15.83,4a6.08,6.08,0,0,0,1.28,1.09v.06c.15.08.3.18.46.25l0,0,.44.17.08,0,.43.11.12,0,.43.07.13,0,.57,0A5.64,5.64,0,0,0,46,45.17a5.51,5.51,0,0,0,2.43-1.94,5.3,5.3,0,0,0,.51-.91,5.19,5.19,0,0,0,.43-2.08S49.37,40.22,49.37,40.21Zm-5.52-.67a2,2,0,1,1,2.07-2A2,2,0,0,1,43.86,39.54Z"/><path class="cls-8" d="M60.71,31.13h0v0l0,0v0"/><path class="cls-1" d="M80,52.53q-1.17-1.52-2.36-3l-.22-.28q-1.12-1.43-2.27-2.85L75,46.22q-1.21-1.49-2.45-3l0,0q-1.28-1.51-2.59-3l-.17-.19c-.54-.6-1.08-1.19-1.63-1.78l-.57-.61-1.38-1.43-1.09-1.09-1-1c-.75-.72-1.52-1.43-2.29-2.12l-1-.9.15-.29h0a23,23,0,0,1,4.39-6.13A9.57,9.57,0,0,1,71.6,21.8c1.9,0,3.45.75,5.45,2.11v0c0,.12.28.26.43.39l.26.24c.24.22.47.46.7.7,0,0,0-.27,0-.26v-.29h0l0,.22,0,.2V25c.52.54,1,.68,1.5,1.68h0s0,.2,0,.22a2.09,2.09,0,0,1,.07.39h0L80,27.06C74.5,11.33,59.15,0,41.07,0,18.39,0,0,17.82,0,39.81A38.27,38.27,0,0,0,2,52.2v0q.39-1.76.94-3.49.43-1.35.94-2.67l0-.1c.3-.77.63-1.52,1-2.28l.3-.62c.29-.59.59-1.17.9-1.75l.38-.7.23-.38c.33-.57.67-1.14,1-1.7l.26-.39c.45-.67.91-1.33,1.4-2L9.58,36c.51-.67,1-1.31,1.6-1.94l.35-.4q.83-.92,1.71-1.78l.35-.33c.63-.6,1.27-1.18,1.94-1.73h0a35.48,35.48,0,0,1,8.24-5.12,33.47,33.47,0,0,1,11-2.78l.32,0c.73,0,1.47-.08,2.21-.08a33.37,33.37,0,0,1,6.52.65h0A44.15,44.15,0,0,1,50,24.27q1.24.51,2.43,1.11l.18.1,0,0,.25.13h0l.36.2,0,0,1.28.71.05,0,0,0h0a35.31,35.31,0,0,1,4.25,3,35.35,35.35,0,0,0-4.25-3c.08,1.19.12,2.39.14,3.58,0,.13,0,.27,0,.4,0,.46,0,.93,0,1.39s0,1.19-.06,1.79q0,.66-.09,1.32s0,.09,0,.14a47.4,47.4,0,0,1-.67,5l-.54,2.48c-1.13,4.45-3.43,8.48-5.32,12.64-.5,1.1-1,2.22-1.39,3.36l-.12.32c-.36,1-.78,2.1-1.13,3.28L45,62.11a55.3,55.3,0,0,1-12.5-6.56A54.07,54.07,0,0,0,42.88,65a21.18,21.18,0,0,0,1.86,1.17c-.27,4.11,1.6,8.06,10.05,9.24a17.7,17.7,0,0,0,4.37,0l.25,0A26.54,26.54,0,0,0,64.91,74c.93-.32,1.85-.67,2.76-1.08l.82-.39c9.41-4.41,17.29-12.21,17.29-12.21S83.46,57.07,80,52.53ZM60.7,31.11h0v0l0,0Z"/><path class="cls-6" d="M56.57,76.63l-.16.07a42,42,0,0,1-4.86,1.56,42.11,42.11,0,0,1,6.18,2.1Z"/><path class="cls-6" d="M30.48,78.22c-1-.26-2-.55-3-.88l-1.14-.39c-.31-.12-.61-.26-.92-.38L24.31,80.2A41.68,41.68,0,0,1,30.48,78.22Z"/><path class="cls-6" d="M17.6,72.41q.85.58,1.73,1.11c.62.38,1.26.75,1.91,1.1a41.74,41.74,0,0,0,4.21,1.95c.31.12.61.26.92.38l1.14.39c1,.33,2,.62,3,.88A42.45,42.45,0,0,0,56.41,76.7l.16-.07.58-.24,1.2-.51,1.06-.49-.25,0a18.92,18.92,0,0,1-2.93.09c-.48,0-1-.06-1.43-.12-8.45-1.18-10.32-5.13-10.05-9.24A21.18,21.18,0,0,1,42.88,65a54.07,54.07,0,0,1-10.36-9.44A55.3,55.3,0,0,0,45,62.11l.47.17c.35-1.17.76-2.29,1.13-3.28l.12-.32c.42-1.14.89-2.25,1.39-3.36,1.89-4.16,4.19-8.44,5.32-12.89L54,39.71H49.37s0,.27,0,.29a5.81,5.81,0,0,1-.43,2.21,5.87,5.87,0,0,1-.51,1,5.61,5.61,0,0,1-2.43,2,5.75,5.75,0,0,1-2.72.4l-.13,0-.43-.06-.12,0-.43-.11-.08,0-.44-.16,0,0-.46-.22h0a6.69,6.69,0,0,1-1.28-1.21L24,39.71H6.76c-.07,1-.16.49-.23.62s-.26.59-.38.82c-.31.58-.61,1.22-.9,1.81-.1.21-.2.45-.3.65-.35.75-.68,1.52-1,2.29l0,.11c-.34.88-.66,1.77-.94,2.67C2.62,49.84,2.31,51,2,52.18A40,40,0,0,0,16.76,71.84L17,72Z"/><path class="cls-1" d="M70.41,88.73a58.36,58.36,0,0,0,8.83-6A50.64,50.64,0,0,0,61.59,70.1c-.94-.4-1.88-.78-2.84-1.13l-4.27,1,1.74,5.56a18.92,18.92,0,0,0,2.93-.1l.25,0-1.06.49-1.2.51-.58.24-5,1.62a42.1,42.1,0,0,1-21.07,0l-5-1.66a41.74,41.74,0,0,1-4.21-1.95c-.65-.35-1.28-.67-1.91-1.05s-1.16-.75-1.73-1.13L17,72l-.22-.17a50.48,50.48,0,0,0-14,10.86,58.7,58.7,0,0,0,8.83,6.11h0c.68.38,1.37.76,2.06,1.12a31.54,31.54,0,0,0,.55-3.44h0a31.41,31.41,0,0,1-.55,3.45c.74.38,1.48.74,2.24,1.09l0-.07A59.79,59.79,0,0,0,41,96.31v0a59.81,59.81,0,0,0,25.11-5.4c.76-.35,1.31-.68,2-1.06Z"/></g></g></svg>