<?xml version="1.0" encoding="utf-8"?>
<!-- Generator: Adobe Illustrator 20.1.0, SVG Export Plug-In . SVG Version: 6.00 Build 0)  -->
<svg version="1.1" id="Calque_1" xmlns="http://www.w3.org/2000/svg" xmlns:xlink="http://www.w3.org/1999/xlink" x="0px" y="0px"
	 viewBox="0 0 87.5 98" style="enable-background:new 0 0 87.5 98;" xml:space="preserve">
<style type="text/css">
	.st0{fill:#9ACABB;}
	.st1{fill:#535454;}
	.st2{fill:#AB9779;}
	.st3{fill:#FFFFFF;}
	.st4{fill:#BBBCBD;}
	.st5{fill:none;}
	.st6{fill:#0493AA;}
	.st7{fill:#F9B041;}
	.st8{fill:#E3DDDB;}
</style>
<g>
	<path class="st0" d="M55.1,70.7l4.3-1c-1.1-0.4-2.2-0.8-3.3-1.1c-1.4-0.4-2.8-0.8-4.2-1.1c-1.9-0.4-3.8-0.7-5.7-0.9"/>
	<path class="st1" d="M58.4,74.8c-0.2-0.2-0.4-0.4-0.5-0.6C58,74.4,58.2,74.6,58.4,74.8"/>
	<path class="st2" d="M59.7,76.1C59.7,76.1,59.8,76.1,59.7,76.1C59.8,76.1,59.7,76.1,59.7,76.1s-0.6-0.5-1.3-1.3
		C59.2,75.6,59.7,76.1,59.7,76.1"/>
	<path class="st3" d="M77.6,24.7L77.6,24.7L77.6,24.7"/>
	<path class="st3" d="M80,41.1C80,41.1,80,41,80,41.1C80,41,80,41.1,80,41.1"/>
	<path class="st4" d="M80,41L80,41L80,41"/>
	<path class="st5" d="M77.7,37.6c-0.5,0-0.9,0.7-0.9,1.5s0.4,1.5,0.9,1.5s0.9-0.7,0.9-1.5C78.6,38.2,78.2,37.6,77.7,37.6"/>
	<g>
		<path class="st6" d="M81.3,41l-1.4-1.5c0,0,0,0,0-0.1s0-0.1,0-0.2l0,0l-2.1-9.1l-2.2,9.4l0,0v-0.1c-0.1,0.2-0.1,0.4-0.2,0.6
			c0,0.1,0,0.1,0,0.2c0,0.2-0.1,0.3-0.1,0.5c0,2.9,1.1,4.1,2.4,4.1c0.2,0,0.4,0,0.6-0.1h0.1c0.1,0,0.2-0.1,0.2-0.1l0.1-0.1
			c0.1-0.1,0.2-0.2,0.3-0.3c0.1-0.1,0.1-0.2,0.2-0.3c0-0.1,0.1-0.1,0.1-0.2c0.1-0.1,0.1-0.2,0.2-0.4c0,0,0-0.1,0.1-0.1
			c0.1-0.2,0.1-0.4,0.2-0.6c0.1-0.2,0.1-0.4,0.1-0.7v-0.1c0-0.2,0-0.4,0-0.7c0-0.1,0-0.1,0-0.1l-0.1-0.1L79.7,41l0,0l0,0v0.1
			c0,0.2,0,0.4,0,0.7l0,0h0.1l0,0c0,0.2-0.1,0.5-0.1,0.7v-0.1l0,0l0,0l0,0l0,0L81.3,41z M77.7,40.5c-0.5,0-0.9-0.7-0.9-1.5
			s0.4-1.5,0.9-1.5s0.9,0.7,0.9,1.5C78.6,39.9,78.2,40.5,77.7,40.5z M79.9,40.2L79.9,40.2L79.9,40.2L79.9,40.2L79.9,40.2z"/>
		<path class="st0" d="M75.3,40.6C75.3,40.6,75.3,40.7,75.3,40.6C75.3,40.7,75.3,40.7,75.3,40.6L75.3,40.6L75.3,40.6z"/>
	</g>
	<path class="st5" d="M44.5,36.3c-1.1,0-2.1,0.9-2.1,2s0.9,2,2.1,2c1.1,0,2.1-0.9,2.1-2S45.6,36.3,44.5,36.3"/>
	<path class="st7" d="M61.3,31.9L61.3,31.9L61.3,31.9"/>
	<path class="st6" d="M50,41L50,41c0-0.2,0-0.4,0-0.6l0,0c0-0.2-0.1-0.4-0.1-0.5l0,0c0-0.2-0.1-0.3-0.1-0.5l0,0
		c-0.1-0.2-0.1-0.3-0.2-0.5l0,0c-0.1-0.2-0.2-0.3-0.2-0.5c-0.3-0.5-0.6-0.9-1-1.2l0,0l-3.8-11.3l-3.8,11.3l0,0V37l-16,3.6l0,0
		l15.8,4c0.4,0.4,0.8,0.8,1.3,1.1v0.1c0.1,0.1,0.3,0.2,0.5,0.3l0,0c0.1,0.1,0.3,0.1,0.4,0.2h0.1c0.1,0,0.3,0.1,0.4,0.1h0.1
		c0.1,0,0.3,0,0.4,0.1h0.1c0.2,0,0.4,0,0.6,0c0.8,0,1.5-0.1,2.1-0.4c0.3-0.1,0.6-0.3,0.9-0.5c0.6-0.4,1.1-0.9,1.5-1.4
		c0.2-0.3,0.4-0.6,0.5-0.9C49.9,42.5,50,41.8,50,41L50,41z M44.5,40.3c-1.1,0-2.1-0.9-2.1-2s0.9-2,2.1-2c1.1,0,2.1,0.9,2.1,2
		C46.6,39.4,45.6,40.3,44.5,40.3z"/>
	<path class="st8" d="M61.3,31.9L61.3,31.9L61.3,31.9C61.3,31.9,61.4,31.9,61.3,31.9C61.4,31.9,61.3,31.9,61.3,31.9"/>
	<path class="st6" d="M80.6,53.3c-0.8-1-1.6-2-2.4-3c-0.1-0.1-0.1-0.2-0.2-0.3c-0.7-1-1.5-1.9-2.3-2.9L75.6,47c-0.8-1-1.6-2-2.4-3
		l0,0c-0.9-1-1.7-2-2.6-3c-0.1-0.1-0.1-0.1-0.2-0.2c-0.5-0.6-1.1-1.2-1.6-1.8c-0.2-0.2-0.4-0.4-0.6-0.6c-0.5-0.5-0.9-1-1.4-1.4
		c-0.4-0.4-0.7-0.7-1.1-1.1c-0.3-0.3-0.7-0.7-1-1c-0.8-0.7-1.5-1.4-2.3-2.1c-0.3-0.3-0.7-0.6-1-0.9c0-0.1,0.1-0.2,0.1-0.3l0,0
		c1.1-2.2,2.6-4.4,4.4-6.1c1.7-1.6,4-2.9,6.4-2.9c1.9,0,3.5,0.7,5.5,2.1l0,0c0,0.1,0.2,0.3,0.4,0.4c0.1,0.1,0.1,0.2,0.2,0.2
		c0.2,0.2,0.5,0.5,0.7,0.7v-0.3v-0.3l0,0v0.2v0.2v-0.1c0.5,0.5,1,0.7,1.5,1.7l0,0l0.1,0.2c0,0.1,0.1,0.3,0.1,0.4l0,0l-0.1-0.3
		c-5.5-15.6-20.9-26.9-39-26.9C19,0.8,0.6,18.6,0.6,40.6c0,4.3,0.7,8.5,2,12.4l0,0c0.3-1.2,0.6-2.3,0.9-3.5c0.3-0.9,0.6-1.8,0.9-2.7
		v-0.1c0.3-0.8,0.6-1.5,1-2.3c0.1-0.2,0.2-0.4,0.3-0.6c0.3-0.6,0.6-1.2,0.9-1.7c0.1-0.2,0.3-0.5,0.4-0.7c0.1-0.1,0.2-0.3,0.2-0.4
		c0.3-0.6,0.7-1.1,1-1.7c0.1-0.1,0.2-0.3,0.3-0.4c0.4-0.7,0.9-1.3,1.4-2c0-0.1,0.1-0.1,0.1-0.2c0.5-0.7,1-1.3,1.6-1.9
		c0.1-0.1,0.2-0.3,0.4-0.4c0.6-0.6,1.1-1.2,1.7-1.8c0.1-0.1,0.2-0.2,0.4-0.3c0.6-0.6,1.3-1.2,1.9-1.7l0,0c2.5-2.1,5.3-3.8,8.2-5.1
		c3.5-1.5,7.2-2.5,11-2.8c0.1,0,0.2,0,0.3,0c0.7,0,1.5-0.1,2.2-0.1c2.2,0,4.4,0.2,6.5,0.7l0,0c1.5,0.3,4.1,1,6.1,1.9
		c0.8,0.3,1.6,0.7,2.4,1.1c0,0,0.1,0.1,0.2,0.1l0,0c0.1,0,0.2,0.1,0.2,0.1l0,0c0.1,0.1,0.2,0.1,0.4,0.2l0,0c0.5,0.3,1.1,0.6,1.3,0.7
		c0,0,0,0,0.1,0l0,0l0,0l0,0c1.5,0.9,2.9,1.9,4.2,3c-1.3-1.1-2.8-2.1-4.2-3C55,28.6,55,29.8,55,31c0,0.1,0,0.3,0,0.4
		c0,0.5,0,0.9,0,1.4c0,0.6,0,1.2-0.1,1.8c0,0.4-0.1,0.9-0.1,1.3V36c-0.1,1.7-0.4,3.3-0.7,5l0,2.5c-1.1,4.4-3.4,8.5-5.3,12.6
		c-0.5,1.1-1,2.2-1.4,3.4c0,0.1-0.1,0.2-0.1,0.3c-0.4,1-0.8,2.1-1.1,3.3C46,63,45.9,63,45.7,62.9c-7.5-2.8-12.5-6.6-12.5-6.6
		s3.9,4.9,10.4,9.4c0.6,0.4,1.2,0.8,1.9,1.2c-0.3,4.1,1.6,8.1,10.1,9.2c1.4,0.2,2.9,0.2,4.4,0c0.1,0,0.2,0,0.3,0
		c1.8-0.2,3.7-0.7,5.5-1.3c0.9-0.3,1.9-0.7,2.8-1.1c0.3-0.1,0.5-0.3,0.8-0.4c9.4-4.4,17.3-12.2,17.3-12.2S84.1,57.9,80.6,53.3z
		 M61.3,31.9L61.3,31.9L61.3,31.9C61.3,31.9,61.4,31.9,61.3,31.9C61.4,31.9,61.3,31.9,61.3,31.9L61.3,31.9z"/>
	<g>
		<path class="st5" d="M57.2,77.4c-0.1,0-0.1,0-0.2,0.1c-1.6,0.6-3.2,1.1-4.9,1.6c2.1,0.5,4.2,1.2,6.2,2.1L57.2,77.4z"/>
		<path class="st5" d="M31.1,79c-1-0.3-2-0.6-3-0.9c-0.4-0.1-0.8-0.3-1.1-0.4s-0.6-0.3-0.9-0.4L25,80.9C26.9,80.2,29,79.5,31.1,79z"
			/>
		<path class="st5" d="M18.2,73.2c0.6,0.4,1.1,0.8,1.7,1.1c0.6,0.4,1.3,0.7,1.9,1.1c1.4,0.7,2.8,1.4,4.2,1.9
			c0.3,0.1,0.6,0.3,0.9,0.4c0.4,0.1,0.8,0.3,1.1,0.4c1,0.3,2,0.6,3,0.9c3.4,0.9,6.9,1.4,10.6,1.4c3.6,0,7.1-0.5,10.5-1.3
			c1.7-0.4,3.3-0.9,4.9-1.6c0.1,0,0.1,0,0.2-0.1c0.2-0.1,0.4-0.2,0.6-0.2c0.4-0.2,0.8-0.3,1.2-0.5c0.4-0.2,0.7-0.3,1.1-0.5
			c-0.1,0-0.2,0-0.3,0c-1,0.1-2,0.1-2.9,0.1c-0.5,0-1-0.1-1.4-0.1C47,75,45.2,71.1,45.4,67c-0.6-0.3-1.2-0.7-1.9-1.2
			c-6.5-4.6-10.4-9.4-10.4-9.4s5,3.8,12.5,6.6c0.2,0.1,0.3,0.1,0.5,0.2c0.4-1.2,0.8-2.3,1.1-3.3c0-0.1,0.1-0.2,0.1-0.3
			c0.4-1.1,0.9-2.3,1.4-3.4c1.9-4.2,4.2-8.4,5.3-12.9l0.5-2.7h-4.3h-0.3l0,0v0.3c0,0.7-0.2,1.6-0.4,2.2c-0.1,0.3-0.3,0.7-0.5,1
			c-0.4,0.6-0.9,1.1-1.5,1.5c-0.3,0.2-0.6,0.4-0.9,0.5c-0.7,0.3-1.4,0.4-2.1,0.4c-0.2,0-0.4,0-0.6,0h-0.1c-0.1,0-0.3,0-0.4-0.1h-0.1
			c-0.1,0-0.3-0.1-0.4-0.1h-0.1c-0.2,0-0.3-0.1-0.4-0.2l0,0c-0.2-0.1-0.3-0.1-0.5-0.2l0,0c-0.5-0.3-0.9-0.8-1.3-1.2l-15.8-4H7.4
			c-0.1,1-0.2,0.5-0.2,0.6c-0.1,0.2-0.3,0.6-0.4,0.8c-0.3,0.6-0.6,1.2-0.9,1.8c-0.1,0.2-0.2,0.4-0.3,0.7c-0.3,0.8-0.7,1.5-1,2.3V47
			c-0.3,0.9-0.7,1.8-0.9,2.7C3.3,50.9,3,52,2.8,53.2c2.7,8,7.9,14.8,14.7,19.7c0.1,0.1,0.1,0.1,0.2,0.2C17.8,72.9,18,73.1,18.2,73.2
			z"/>
		<path class="st6" d="M71,89.5c3.1-1.8,6.1-3.8,8.8-6c-5-5.5-11-9.7-17.6-12.6c-0.9-0.4-1.9-0.8-2.8-1.1l-4.3,1l1.7,5.6
			c1,0,1.9,0,2.9-0.1c0.1,0,0.2,0,0.3,0c-0.3,0.2-0.7,0.3-1.1,0.5s-0.8,0.3-1.2,0.5c-0.2,0.1-0.4,0.2-0.6,0.2l-5,1.6
			c-3.3,0.9-6.9,1.3-10.5,1.3c-3.7,0-7.2-0.5-10.6-1.4l-5-1.7c-1.4-0.6-2.9-1.2-4.2-1.9c-0.6-0.3-1.3-0.7-1.9-1.1s-1.2-0.7-1.7-1.1
			c-0.2-0.1-0.4-0.3-0.6-0.4c-0.1-0.1-0.1-0.1-0.2-0.2c-5.2,2.7-10,6.4-14,10.9c2.7,2.3,5.7,4.3,8.8,6.1l0,0
			c0.7,0.4,1.4,0.8,2.1,1.1c0.2-1.1,0.4-2.3,0.5-3.4l0,0c-0.1,1.2-0.3,2.3-0.5,3.5c0.7,0.4,1.5,0.7,2.2,1.1c0,0,0,0,0-0.1
			c7.6,3.5,16.1,5.4,25.1,5.4V85v12.2c9,0,17.5-1.9,25.1-5.4c0.8-0.3,1.3-0.7,2-1.1L71,89.5z"/>
	</g>
</g>
</svg>
