<svg xmlns="http://www.w3.org/2000/svg" viewBox="0 0 124.31 93.22"><defs><style>.cls-1{fill:#99cabb;}</style></defs><title>Fichier 1</title><g id="Calque_2" data-name="Calque 2"><g id="Calque_1-2" data-name="Calque 1"><path class="cls-1" d="M107,53.59A25.74,25.74,0,0,0,95.78,56.2c-1.16-2.29-2.32-4.34-2.52-5.84a15.67,15.67,0,0,1-.23-4.9,43.56,43.56,0,0,1,1.48-5.29c0-.23-.27-1.29-2.77-1.32s-4.65.48-4.9,1.14a27.4,27.4,0,0,0-1,3.7c-.43,2.27-5,10.38-7.61,14.62A15.77,15.77,0,0,1,76.45,54a15.67,15.67,0,0,1-.23-4.9,43.56,43.56,0,0,1,1.48-5.29c0-.23-.27-1.29-2.77-1.32S70.28,43,70,43.67s-.52,2.2-1,3.7-6.58,15-8.17,18.53c-.82,1.79-1.52,3.22-2,4.2h0a1,1,0,0,1-.09.18c-.43.84-.68,1.29-.68,1.29v0c-.34.61-.7,1.18-.89,1.18s-.39-1.63,0-3.86c.91-4.7,3.07-12,3-12.26s.41-1.41-1.41-2.07a2.25,2.25,0,0,0-2.57.43c-.16,0-.27.39-.27.39s2-8.22-3.77-8.22c-3.59,0-8.54,3.93-11,7.47l-8.36,4.56c-1.34.75-2.72,1.5-4,2.2l-.27-.3C21.62,53.7,8.77,48.46,9.31,38.49c.2-3.63,1.45-13.17,24.68-24.75,19.12-9.42,34.33-6.81,37-1,3.77,8.26-8.15,23.61-27.9,25.84-7.54.84-11.49-2.07-12.49-3.16s-1.2-1.2-1.59-1c-.64.34-.23,1.36,0,2,.59,1.54,3,4.27,7.13,5.61,3.63,1.18,12.47,1.84,23.16-2.29,12-4.63,21.32-17.51,18.57-28.29C75.09.46,56.93-3.15,39.74,3c-10.22,3.63-21.3,9.35-29.27,16.8C1,28.61-.49,36.31.12,39.54,2.32,51,18.1,58.43,24.41,63.94l-.86.48C20.39,66,8.36,72.28,5.36,78.93,2,86.47,5.91,91.87,8.52,92.6,16.63,94.84,25,90.8,29.43,84.13s3.93-15.35,1.86-19.32a.48.48,0,0,0-.09-.14l2.47-1.45c1.61-1,3.2-1.84,4.56-2.57a29.92,29.92,0,0,0-1.61,8.26c-.34,4.27,1.41,9.81,3.7,12a4.09,4.09,0,0,0,3,1c2.68,0,3.88-2.23,5.22-4.86,1.63-3.22,3.11-7,3.11-7s-1.84,10.13,3.16,10.13c1.82,0,3.66-2.36,4.47-3.56v0l.14-.23.3-.48v0c.73-1.27,2.36-4.16,4.79-8.95C67.64,60.76,70.66,53,70.66,53a39.46,39.46,0,0,0,1.2,5,47.25,47.25,0,0,0,2.59,5.81c-.73,1-1.18,1.59-1.18,1.59l0,0c-.59.77-1.23,1.61-1.93,2.43-2.47,3-5.43,6.33-5.84,7.31a2,2,0,0,0,.54,2.68,5,5,0,0,0,3,.5,14,14,0,0,0,4.56-1,15.32,15.32,0,0,0,3.93-2.07,8.79,8.79,0,0,0,3.77-7.74A15.63,15.63,0,0,0,80,62.08c.23-.32.43-.64.66-1a104,104,0,0,0,6.81-11.76,39.46,39.46,0,0,0,1.2,5,33.61,33.61,0,0,0,2.2,5,21.58,21.58,0,0,0-6.63,8.56c-1.43,4.13-.32,6,1.79,6.43a6.33,6.33,0,0,0,3.31-.68,15.1,15.1,0,0,0,4.2-2.16c2.43-1.79,4.77-4.29,4.63-7.67a14.51,14.51,0,0,0-1-4.54,23.78,23.78,0,0,1,12.06-1.39c10.81,1.27,12.94,8,12.53,10.85a7.18,7.18,0,0,1-3.43,4.86c-.75.48-1,.64-.93,1,.09.5.45.48,1.09.39a8.44,8.44,0,0,0,5.88-7.52C124.63,60.81,118.28,53.52,107,53.59ZM23.66,81.7c-3.59,3.91-8.58,5.38-10.74,4.13-2.32-1.34-1.41-7.11,3-11.24a57.2,57.2,0,0,1,8.42-6.29L26.57,67l.25-.14h0l.54-.34A15.51,15.51,0,0,1,23.66,81.7ZM49.78,63.94c-1.25,3-3.86,10.83-5.45,10.4-1.36-.36-2.2-6.27-.27-12.1a27.49,27.49,0,0,1,4.25-7.79c2-2.18,4.11-2.91,4.63-2C53.59,53.59,50.55,62,49.78,63.94ZM71.32,74.25c-.52.27-1,.45-1.25.32s.23-.45.23-.45,2.7-2.91,3.77-4.22c.61-.77,1.34-1.68,2.11-2.7v.3C76.18,71,72.82,73.3,71.32,74.25Zm16.62-3.79c-.39-.27-.32-1.18,1-4a15.13,15.13,0,0,1,3.7-4.77A6.43,6.43,0,0,1,93,63.76C93,68.14,89.83,69.78,87.94,70.46Z"/></g></g></svg>