<?xml version="1.0" encoding="utf-8"?>
<!-- Generator: Adobe Illustrator 20.1.0, SVG Export Plug-In . SVG Version: 6.00 Build 0)  -->
<svg version="1.1" id="Capa_1" xmlns="http://www.w3.org/2000/svg" xmlns:xlink="http://www.w3.org/1999/xlink" x="0px" y="0px"
	 viewBox="0 0 512 512" style="enable-background:new 0 0 512 512;" xml:space="preserve">
<style type="text/css">
	.st0{fill:#98CBBC;}
</style>
<g>
	<g>
		<path class="st0" d="M509.1,187c-2.5-3.1-6.2-4.8-10.2-4.8h-49.8c-12.3-32.4-28.3-64.2-46.5-76.2c-63-41.4-230.1-41.4-293.1,0
			c-18.2,12-34.2,43.8-46.5,76.2H13.1c-4,0-7.7,1.8-10.2,4.8c-2.5,3-3.5,7.1-2.7,10.9l7.4,35.8c1.3,6.1,6.6,10.4,12.8,10.4h14.8
			C21,260.5,14.1,281.2,14,301.9c-0.1,25.6,9.6,48.7,27.4,65.1c0.2,0.2,0.4,0.3,0.6,0.5v50c0,10.8,8.8,19.7,19.7,19.7h46
			c10.9,0,19.7-8.8,19.7-19.7v-20.1h257.5v20.1c0,10.8,8.8,19.7,19.7,19.7h46c10.8,0,19.7-8.8,19.7-19.7v-49.1
			c18.9-17.3,27.9-41,28-64.7c0.1-21.4-7.1-42.9-22.2-59.7h15.7c6.2,0,11.6-4.4,12.8-10.5l7.4-35.8C512.5,194,511.6,190,509.1,187z
			 M131.1,138.7c50.2-33,199.6-33,249.8,0c9.8,6.4,22.3,32.3,33.8,63.9H97.3C108.8,171,121.3,145.2,131.1,138.7z M72.3,306.9
			c0-21.4,17.3-38.7,38.7-38.7c21.4,0,38.7,17.3,38.7,38.7c0,21.4-17.3,38.7-38.7,38.7C89.6,345.6,72.3,328.2,72.3,306.9z
			 M401.6,345.6c-21.4,0-38.7-17.3-38.7-38.7c0-21.4,17.3-38.7,38.7-38.7c21.4,0,38.7,17.3,38.7,38.7
			C440.3,328.2,422.9,345.6,401.6,345.6z"/>
	</g>
</g>
</svg>
