<svg xmlns="http://www.w3.org/2000/svg" viewBox="0 0 100.56 100.56"><defs><style>.cls-1{fill:#99cabb;}</style></defs><title>Fichier 3</title><g id="Calque_2" data-name="Calque 2"><g id="Calque_1-2" data-name="Calque 1"><path class="cls-1" d="M7.15,50.28A43.14,43.14,0,0,0,31.46,89.1L10.88,32.72A43,43,0,0,0,7.15,50.28ZM79.4,48.1a22.71,22.71,0,0,0-3.56-11.9c-2.19-3.55-4.24-6.56-4.24-10.11a7.47,7.47,0,0,1,7.24-7.66c.19,0,.37,0,.56,0a43.12,43.12,0,0,0-65.16,8.12c1,0,2,.05,2.78.05,4.51,0,11.5-.55,11.5-.55a1.78,1.78,0,0,1,.28,3.55s-2.34.27-4.94.41L39.56,76.78,49,48.47,42.28,30.05c-2.32-.14-4.52-.41-4.52-.41-2.32-.14-2.05-3.69.27-3.55,0,0,7.12.55,11.36.55,4.51,0,11.5-.55,11.5-.55a1.78,1.78,0,0,1,.28,3.55s-2.34.27-4.94.41L71.81,76.42,76.11,62c1.86-6,3.28-10.25,3.28-13.94ZM51,54.05,38.09,91.65A43.15,43.15,0,0,0,64.6,91a3.79,3.79,0,0,1-.31-.59L51,54.05ZM88.13,29.58A33.09,33.09,0,0,1,88.42,34a40.69,40.69,0,0,1-3.28,15.45L72,87.56a43.14,43.14,0,0,0,16.16-58ZM50.28,0a50.28,50.28,0,1,0,50.28,50.28A50.34,50.34,0,0,0,50.28,0Zm0,98.25a48,48,0,1,1,48-48,48,48,0,0,1-48,48Z"/></g></g></svg>