<?xml version="1.0" encoding="utf-8"?>
<!-- Generator: Adobe Illustrator 20.1.0, SVG Export Plug-In . SVG Version: 6.00 Build 0)  -->
<svg version="1.1" id="Calque_1" xmlns="http://www.w3.org/2000/svg" xmlns:xlink="http://www.w3.org/1999/xlink" x="0px" y="0px"
	 viewBox="0 0 103.8 103.2" style="enable-background:new 0 0 103.8 103.2;" xml:space="preserve">
<style type="text/css">
	.st0{fill:#0493AA;}
</style>
<g>
	<path class="st0" d="M8.6,51.5c0,17.1,9.9,31.8,24.3,38.8L12.4,34C9.9,39.3,8.6,45.2,8.6,51.5L8.6,51.5z M80.8,49.3
		c0-5.3-1.9-9-3.6-11.9c-2.2-3.6-4.2-6.6-4.2-10.1c0-4,3-7.7,7.2-7.7c0.2,0,0.4,0,0.6,0c-7.7-7-17.9-11.3-29.1-11.3
		c-15.1,0-28.3,7.7-36,19.4c1,0,2,0.1,2.8,0.1c4.5,0,11.5-0.5,11.5-0.5c2.3-0.1,2.6,3.3,0.3,3.6c0,0-2.3,0.3-4.9,0.4L41.1,78
		l9.4-28.3l-6.8-18.5c-2.3-0.1-4.5-0.4-4.5-0.4c-2.3-0.1-2.1-3.7,0.3-3.6c0,0,7.1,0.5,11.4,0.5c4.5,0,11.5-0.5,11.5-0.5
		c2.3-0.1,2.6,3.3,0.3,3.6c0,0-2.3,0.3-4.9,0.4l15.4,46.4l4.3-14.4C79.4,57.3,80.8,53,80.8,49.3L80.8,49.3z M52.5,55.2l-13,37.6
		c3.9,1.1,8,1.8,12.2,1.8c5,0,9.8-0.9,14.3-2.4c-0.1-0.2-0.2-0.4-0.3-0.6L52.5,55.2L52.5,55.2z M89.7,30.8c0.2,1.4,0.3,2.8,0.3,4.4
		c0,4.4-0.8,9.3-3.3,15.4L73.4,88.8c12.8-7.5,21.4-21.4,21.4-37.3C94.8,44,92.9,37,89.7,30.8L89.7,30.8z M51.8,1.2
		C24,1.2,1.4,23.8,1.4,51.5c0,27.7,22.6,50.3,50.3,50.3s50.3-22.6,50.3-50.3C102.1,23.8,79.4,1.2,51.8,1.2L51.8,1.2z M51.8,99.4
		c-26.5,0-48-21.5-48-48s21.5-48,48-48s48,21.5,48,48S78.2,99.4,51.8,99.4L51.8,99.4z"/>
</g>
</svg>
